<svg fill="none" height="225" viewBox="0 0 173 225" width="173" xmlns="http://www.w3.org/2000/svg" xmlns:xlink="http://www.w3.org/1999/xlink"><radialGradient id="a" cx="0" cy="0" gradientTransform="matrix(0 237.197 -182.804 0 86.4489 -12.3731)" gradientUnits="userSpaceOnUse" r="1"><stop offset="0" stop-color="#fbfbfb" stop-opacity=".46"/><stop offset="1" stop-color="#fff" stop-opacity=".12"/></radialGradient><clipPath id="b"><rect height="3.37212" rx="1.68606" width="3.37212" x="21.4004" y="152.71"/></clipPath><clipPath id="c"><rect height="3.37212" rx="1.68606" width="3.37212" x="21.4004" y="172.739"/></clipPath><clipPath id="d"><path d="m0 0h9.19695v8.27703h-9.19695z" transform="matrix(-1 0 0 1 103.717 191.577)"/></clipPath><rect fill="#020202" fill-opacity=".56" height="223.68" rx="10.7039" width="172.234" x=".332168" y=".812148"/><rect height="223.68" rx="10.7039" stroke="url(#a)" stroke-width=".664336" width="172.234" x=".332168" y=".812148"/><g fill="#fff"><path d="m14.571 14.3111-.0901-.8497h.5343l-.0901.8497.7725-.3476.1609.5021-.7854.1739.5344.5987-.4249.3025-.4313-.7403-.4378.7403-.4249-.3025.5408-.5987-.7919-.1739.161-.5021zm2.6359 0-.0901-.8497h.5343l-.0901.8497.7725-.3476.161.5021-.7854.1739.5343.5987-.4249.3025-.4313-.7403-.4378.7403-.4249-.3025.5408-.5987-.7918-.1739.1609-.5021zm2.636 0-.0902-.8497h.5344l-.0902.8497.7726-.3476.1609.5021-.7854.1739.5343.5987-.4249.3025-.4313-.7403-.4377.7403-.4249-.3025.5407-.5987-.7918-.1739.1609-.5021zm2.6359 0-.0901-.8497h.5343l-.0901.8497.7725-.3476.1609.5021-.7854.1739.5344.5987-.4249.3025-.4314-.7403-.4377.7403-.4249-.3025.5408-.5987-.7919-.1739.161-.5021zm3.9705 0-.0901-.8497h.5343l-.0901.8497.7725-.3476.1609.5021-.7854.1739.5344.5987-.4249.3025-.4314-.7403-.4377.7403-.4249-.3025.5408-.5987-.7919-.1739.161-.5021zm2.6359 0-.0901-.8497h.5343l-.0901.8497.7725-.3476.161.5021-.7854.1739.5343.5987-.4249.3025-.4313-.7403-.4378.7403-.4249-.3025.5408-.5987-.7918-.1739.1609-.5021zm2.6359 0-.0901-.8497h.5343l-.0901.8497.7725-.3476.161.5021-.7854.1739.5343.5987-.4249.3025-.4313-.7403-.4378.7403-.4248-.3025.5407-.5987-.7918-.1739.1609-.5021zm2.636 0-.0901-.8497h.5343l-.0901.8497.7725-.3476.1609.5021-.7854.1739.5343.5987-.4248.3025-.4314-.7403-.4377.7403-.4249-.3025.5408-.5987-.7919-.1739.161-.5021zm3.9705 0-.0902-.8497h.5344l-.0902.8497.7726-.3476.1609.5021-.7854.1739.5343.5987-.4248.3025-.4314-.7403-.4377.7403-.4249-.3025.5407-.5987-.7918-.1739.161-.5021zm2.6359 0-.0901-.8497h.5343l-.0901.8497.7725-.3476.1609.5021-.7854.1739.5344.5987-.4249.3025-.4313-.7403-.4378.7403-.4249-.3025.5408-.5987-.7919-.1739.161-.5021zm2.6359 0-.0901-.8497h.5343l-.0901.8497.7725-.3476.161.5021-.7854.1739.5343.5987-.4249.3025-.4313-.7403-.4378.7403-.4249-.3025.5408-.5987-.7918-.1739.1609-.5021zm2.636 0-.0902-.8497h.5344l-.0902.8497.7726-.3476.1609.5021-.7854.1739.5343.5987-.4249.3025-.4313-.7403-.4377.7403-.4249-.3025.5407-.5987-.7918-.1739.1609-.5021zm4.067 3.1094h1.9313v.6889h-3.0192v-.5923c.5407-.4163.8669-.6695.9785-.7596.1159-.0945.2189-.1803.309-.2575.2918-.2576.5-.4936.6245-.7082.1287-.2146.1931-.4335.1931-.6566 0-.2361-.0622-.4206-.1867-.5537-.1202-.133-.2897-.1995-.5086-.1995-.1974 0-.3584.0643-.4828.1931-.1202.1244-.1803.2875-.1803.4892 0 .073.0086.1438.0258.2125.0214.0644.0558.133.103.206l-.6695.2704c-.073-.0987-.1288-.2082-.1674-.3283-.0344-.1202-.0515-.2554-.0515-.4056 0-.3605.1352-.6652.4056-.9142.2703-.2489.618-.3734 1.0429-.3734.4506 0 .8068.1245 1.0686.3734.2661.249.3992.5859.3992 1.0107 0 .3734-.1481.749-.4442 1.1266-.2962.3777-.7533.7704-1.3713 1.1781zm4.6645.6889h-.7725v-1.2039h-1.9185v-.618l1.912-2.4785h.779v2.5107h.824v.5858h-.824zm-.7725-3.3991h-.0258l-1.1974 1.5836v.0258h1.2232zm2.7215 1.4742h-.6502l.1159-2.3755h2.4012v.676h-1.7768l-.0579 1.133c.103-.0858.221-.1524.3541-.1996.133-.0515.2703-.0772.412-.0772.3862 0 .6995.1266.9399.3798.2403.2532.3605.5815.3605.985 0 .4463-.1481.8047-.4442 1.0751-.2919.2703-.6652.4055-1.1202.4055-.412 0-.7596-.1051-1.0429-.3154-.2832-.2103-.4549-.485-.515-.824l.7017-.2511c.0429.236.1395.4227.2897.5601.1502.133.3391.1995.5665.1995.2404 0 .4313-.0751.573-.2253.1416-.1502.2124-.3541.2124-.6116 0-.2403-.0665-.4313-.1995-.5729-.1288-.1416-.3048-.2125-.5279-.2125-.1202 0-.2318.0236-.3348.0709-.103.0429-.1888.103-.2575.1802zm4.0736-2.4463v4.3712h-.8047v-3.4764l-.9656.2382v-.7146z"/><path d="m135.671 15.5505c-.142-.0379-.274-.0568-.454-.0568-.54 0-1.155.3218-1.155 1.2021v2.0729h-1.126v-4.373h1.126l-.019.9896c.18-.7667.653-1.1411 1.742-1.0843z"/><path d="m139.412 17.5391c0 .3123.132.407.321.407.105 0 .18-.0284.266-.0663v.833c-.161.0946-.37.1325-.635.1325-.539 0-.88-.2082-.994-.6909-.208.5394-.7.7288-1.277.7288-.776 0-1.297-.4449-1.297-1.1927 0-.9749.776-1.5144 2.489-1.4198v-.4637c0-.426-.208-.6531-.596-.6531-.398 0-.606.246-.634.6625l-1.108-.1988c.067-.9276.862-1.3251 1.799-1.3251 1.003 0 1.666.4259 1.666 1.4104zm-1.127-.6342c-.984-.0284-1.363.2177-1.363.6626 0 .2935.199.5016.559.5016.369 0 .804-.1987.804-.653z"/><path d="m142.894 17.3782.965.3123c-.208.8803-.984 1.1927-1.836 1.1927-1.221 0-2.054-.8141-2.054-2.2433 0-1.4955.804-2.3474 2.082-2.3474 1.202 0 1.808.8046 1.808 1.912 0 .2082-.019.4164-.066.5868h-2.736c.029.7289.369 1.2211 1.004 1.2211.388 0 .681-.1514.833-.6342zm-.123-1.2589c.009-.0662.009-.1041.009-.1609 0-.4638-.275-.814-.776-.814-.521 0-.852.3786-.918.9749z"/><path d="m145.471 15.239c.237-.6531.685-.9465 1.357-.9465.691 0 1.297.3975 1.297 1.3725v3.1046h-1.126v-2.7071c0-.5017-.171-.814-.644-.814-.454 0-.88.2461-.88 1.079v2.4421h-1.126v-4.373h1.122z"/><path d="m151.472 17.3782.965.3123c-.208.8803-.984 1.1927-1.836 1.1927-1.221 0-2.054-.8141-2.054-2.2433 0-1.4955.804-2.3474 2.082-2.3474 1.202 0 1.808.8046 1.808 1.912 0 .2082-.019.4164-.066.5868h-2.736c.029.7289.37 1.2211 1.004 1.2211.388 0 .681-.1514.833-.6342zm-.123-1.2589c.009-.0662.009-.1041.009-.1609 0-.4638-.274-.814-.776-.814-.521 0-.852.3786-.918.9749z"/><path d="m153.578 17.4161c.086.4827.436.672.881.672.407 0 .691-.142.691-.4449 0-.284-.171-.4259-.597-.5395l-.643-.1514c-.777-.1893-1.117-.6153-1.117-1.2779 0-1.0601.861-1.3819 1.741-1.3819.994 0 1.6.3597 1.676 1.2115l-1.07.1515c-.038-.3787-.255-.5206-.662-.5206-.36 0-.587.1609-.587.4355 0 .246.132.3975.482.4637l.616.142c.852.1893 1.268.6247 1.268 1.3725 0 .9654-.776 1.3346-1.808 1.3346-1.05 0-1.666-.3029-1.817-1.1169z"/><path d="m159.562 18.6081c-.34.1799-.766.2745-1.249.2745-.842 0-1.382-.407-1.382-1.3535v-2.2528h-.634v-.8803h.644v-.9276l1.126-.1325v1.0601h1.297v.8803h-1.307v2.0067c0 .4733.199.6342.549.6342.275 0 .502-.0853.758-.2556z"/><path d="m131.303 15.2957c-.027.15-.066.3033-.117.4584-.131.3953-.236.7988-.307 1.209-.112.6368-.485 1.1446-.995 1.5327-.489.3719-1.073.4532-1.65.3387-.163-.0322-.321-.0825-.472-.1488-.162-.0715-.291-.2036-.358-.3685-.046-.1145-.166-.539-.197-.6482-.01-.0316.02-.06.052-.0503.006.0019.013.0038.019.0055.754.2063 1.916.1865 2.827-.6028.225-.1955.424-.4051.595-.6217.136-.1735.186-.3996.134-.6142-.078-.3242-.211-.6471-.4-.9533-.27-.4354-.621-.7828-1.011-1.0283-.239-.1503-.544-.1439-.779.0134-.358.2406-.703.5654-1.003.9621-.518.6846-.792 1.4426-.808 2.09h-.001c-.002.0323-.025.568.174 1.2275.01.0327-.029.058-.055.0355-.312-.2751-.576-.562-.781-.8078-.553-.6631-.693-1.5821-.352-2.375.214-.4952.583-.9418 1.09-1.2558.448-.2776.968-.3639 1.483-.2838.381.0594.77.0522 1.148-.0235.124-.0247.245-.0404.362-.047h.002c.09-.0051.177-.0047.263.0012.389.0268.722.1676.95.4304.326.3767.374.9323.187 1.5246z"/><path d="m57.1426 43.4178c0 .2943.1012.5334.3035.7173.2023.184.5518.3357 1.0484.4553v-2.4555c-.4138.0551-.7449.1977-.9932.4276-.2391.2299-.3587.515-.3587.8553zm3.6143 4.0144c0-.2851-.1011-.5196-.3035-.7036-.2023-.1839-.5472-.3357-1.0346-.4552v2.4555c.4323-.0644.7633-.2069.9933-.4276.2299-.23.3448-.5197.3448-.8691zm-1.3381 2.6072v1.4623h-.9243v-1.4485c-.8736-.0552-1.5956-.2943-2.1658-.7173-.5702-.4323-.9288-1.0025-1.076-1.7106l1.4485-.5794c.0736.4782.2667.8645.5794 1.1588s.7173.4736 1.2139.538v-2.6762c-.5334-.1104-.9472-.2162-1.2415-.3173-.2943-.1012-.5426-.2254-.7449-.3725-.3035-.2023-.5289-.4552-.676-.7587s-.2207-.6622-.2207-1.076c0-.7358.2667-1.3474.8001-1.8348.5334-.4966 1.2278-.7863 2.083-.8691v-1.2829h.9243v1.2967c.8001.0644 1.4393.2989 1.9175.7036.4875.4046.7909.9564.9105 1.6554l-1.4899.3862c-.0459-.3678-.1885-.6759-.4276-.9242-.2299-.2483-.5334-.4185-.9105-.5104v2.621c.5426.1104.9611.2207 1.2554.3311.2943.1012.5426.2207.7449.3587.2943.2115.515.4736.6622.7863.1471.3035.2207.6621.2207 1.076 0 .7449-.2621 1.3611-.7863 1.8485-.5243.4783-1.2232.7634-2.0969.8553zm5.6866-4.1109h-1.3933l.2483-5.0904h5.1456v1.4485h-3.8075l-.1241 2.4279c.2207-.1839.4736-.3264.7587-.4276.2851-.1104.5794-.1655.8829-.1655.8277 0 1.499.2713 2.0141.8139.515.5426.7725 1.2461.7725 2.1106 0 .9565-.3173 1.7244-.9519 2.3038-.6254.5794-1.4255.8691-2.4003.8691-.8829 0-1.6278-.2254-2.2348-.676s-.9749-1.0392-1.1036-1.7658l1.5036-.538c.092.5059.2989.9059.6208 1.2002.3219.2851.7266.4276 1.214.4276.515 0 .9242-.1609 1.2277-.4828s.4553-.7587.4553-1.3105c0-.515-.1426-.9243-.4277-1.2278-.2759-.3035-.6529-.4552-1.1312-.4552-.2575 0-.4966.0506-.7173.1517-.2207.092-.4047.2208-.5518.3863zm6.6218 4.1247 3.2281-7.7942h-3.297v1.4761h-1.4899v-2.897h6.5802v1.2692l-3.228 7.9459zm5.8242-2.1106c.3771 0 .6852.1425.9243.4276.2483.2851.3725.653.3725 1.1036 0 .7634-.2299 1.3933-.6898 1.89-.4598.4966-1.0576.7449-1.7933.7449v-.7863c.4138-.0276.7541-.1702 1.0208-.4277.2759-.2575.4138-.561.4138-.9105 0-.0459-.0046-.0873-.0138-.1241-.0091-.0368-.0183-.0644-.0275-.0828-.046.0276-.1012.0506-.1656.069-.0552.0092-.1057.0138-.1517.0138-.2575 0-.4737-.0828-.6484-.2483-.1655-.1748-.2483-.4001-.2483-.676 0-.2943.0966-.5334.2897-.7173.1931-.184.4322-.2759.7173-.2759zm4.8954-7.2562v9.3668h-1.7243v-7.4493l-2.0693.5104v-1.5312zm5.433-.0138c.6898 0 1.2784.1517 1.7658.4552.4874.2943.8507.722 1.0898 1.283l-1.214.8001c-.1379-.3679-.354-.653-.6483-.8553-.2851-.2115-.6208-.3173-1.0071-.3173-.7081 0-1.2737.3127-1.6968.9381-.4138.6161-.6207 1.4392-.6207 2.4693v.2345h.0414c.1655-.4598.4552-.8277.869-1.1036.4231-.2759.8967-.4139 1.4209-.4139.8645 0 1.5589.2759 2.0831.8277.5334.5426.8001 1.2462.8001 2.1107 0 .9197-.2943 1.6692-.8829 2.2486s-1.3565.8691-2.3038.8691c-.6069 0-1.145-.1242-1.614-.3725s-.8645-.6116-1.1864-1.0898c-.2667-.3955-.469-.8507-.6069-1.3657-.138-.5242-.207-1.0944-.207-1.7106 0-1.5083.3541-2.7176 1.0623-3.6281.7173-.9197 1.6692-1.3795 2.8555-1.3795zm-.3724 8.1942c.4966 0 .9012-.1563 1.2139-.469s.4691-.7219.4691-1.2277c0-.5059-.1564-.9151-.4691-1.2278s-.7173-.469-1.2139-.469c-.4783 0-.8737.1563-1.1864.469-.3035.3127-.4552.7219-.4552 1.2278 0 .5058.1517.915.4552 1.2277.3127.3127.7081.469 1.1864.469zm10.9283-1.2829c0 .8001-.3127 1.4393-.938 1.9175-.6162.4782-1.4439.7174-2.4831.7174-1.0393 0-1.867-.2392-2.4831-.7174-.6162-.4782-.9243-1.1174-.9243-1.9175 0-.5334.1701-1.007.5104-1.4209.3403-.4138.7863-.6897 1.3381-.8277v-.0276c-.4874-.1563-.8691-.4184-1.145-.7863-.2667-.3771-.4-.8277-.4-1.3519 0-.7449.2851-1.3473.8553-1.8072.5702-.4598 1.3197-.6897 2.2486-.6897.938 0 1.6922.2299 2.2623.6897.5702.4599.8553 1.0623.8553 1.8072 0 .5242-.1379.9748-.4138 1.3519-.2667.3679-.6438.63-1.1312.7863v.0276c.5518.138.9978.4139 1.3381.8277.3403.4139.5104.8875.5104 1.4209zm-4.911-4.2903c0 .4415.1333.7864.4001 1.0347.2667.2391.6299.3586 1.0898.3586.4598 0 .8231-.1241 1.0898-.3724.2759-.2483.4138-.5886.4138-1.0209 0-.4414-.1333-.7817-.4-1.0208s-.6346-.3587-1.1036-.3587c-.4691 0-.8369.1196-1.1036.3587-.2575.2391-.3863.5794-.3863 1.0208zm3.2142 4.1662c0-.4599-.1563-.8232-.469-1.0899-.3035-.2667-.7219-.4-1.2553-.4-.5243 0-.9427.1333-1.2554.4-.3035.2667-.4552.63-.4552 1.0899 0 .4598.1517.8231.4552 1.0898.3035.2575.722.3862 1.2554.3862s.9518-.1287 1.2553-.3862c.3127-.2667.469-.63.469-1.0898zm3.8531.4828c.312 0 .575.1057.786.3173.212.2115.317.4736.317.7863s-.105.5794-.317.8001c-.211.2115-.474.3173-.786.3173-.313 0-.575-.1058-.7866-.3173-.2115-.2207-.3173-.4874-.3173-.8001s.1058-.5748.3173-.7863c.2116-.2116.4736-.3173.7866-.3173zm1.861-2.4969c0-1.4347.326-2.5889.979-3.4626s1.536-1.3105 2.649-1.3105 1.996.4368 2.649 1.3105c.652.8737.979 2.0279.979 3.4626s-.331 2.5888-.993 3.4625c-.653.8737-1.532 1.3106-2.635 1.3106-1.104 0-1.987-.4369-2.649-1.3106-.653-.8737-.979-2.0278-.979-3.4625zm1.724 0c0 1.0668.161 1.8899.483 2.4693.331.5702.805.8553 1.421.8553.625 0 1.099-.2851 1.421-.8553.331-.5794.496-1.4025.496-2.4693s-.165-1.8853-.496-2.4555c-.322-.5794-.796-.8691-1.421-.8691-.616 0-1.09.2897-1.421.8691-.322.5702-.483 1.3887-.483 2.4555zm8.351.4828h-1.393l.248-5.0904h5.146v1.4485h-3.808l-.124 2.4279c.221-.1839.474-.3264.759-.4276.285-.1104.579-.1655.883-.1655.827 0 1.499.2713 2.014.8139s.772 1.2461.772 2.1106c0 .9565-.317 1.7244-.952 2.3038-.625.5794-1.425.8691-2.4.8691-.883 0-1.628-.2254-2.235-.676s-.975-1.0392-1.103-1.7658l1.503-.538c.092.5059.299.9059.621 1.2002.322.2851.727.4276 1.214.4276.515 0 .924-.1609 1.228-.4828.303-.3219.455-.7587.455-1.3105 0-.515-.143-.9243-.428-1.2278-.276-.3035-.653-.4552-1.131-.4552-.257 0-.496.0506-.717.1517-.221.092-.405.2208-.552.3863z"/></g><rect fill="#5b5959" height="22.0721" rx="11.036" width="22.0721" x="16.7832" y="69.9976"/><path d="m31.7508 80.6197h-3.1041c-.2285 0-.4137-.1852-.4137-.4137v-3.1041c0-.1143-.0926-.2069-.2069-.2069h-.4137c-.1142 0-.2068.0926-.2068.2069v3.1041c0 .2285-.1852.4137-.4137.4137h-3.1044c-.1142 0-.2068.0926-.2068.2069v.4137c0 .1142.0926.2068.2068.2068h3.1044c.2285 0 .4137.1853.4137.4137v3.1044c0 .1142.0926.2068.2068.2068h.4137c.1143 0 .2069-.0926.2069-.2068v-3.1044c0-.2284.1852-.4137.4137-.4137h3.1041c.1143 0 .2069-.0926.2069-.2068v-.4137c0-.1143-.0926-.2069-.2069-.2069z" fill="#fff"/><path d="m16.9425 98.5646h-.011l-.6346 1.7604h1.2857zm1.6223 3.1844h-.469l-.3752-1.032h-1.5671l-.3697 1.032h-.458l1.3629-3.6865h.5132zm1.4152-.298c.217 0 .3936-.078.5297-.232.1361-.158.2042-.374.2042-.646v-.513c0-.2354-.0699-.423-.2097-.5628-.1398-.1435-.3127-.2152-.5187-.2152-.2465 0-.4396.0975-.5794.2924-.1361.195-.2041.4726-.2041.8336 0 .331.068.588.2041.772.1361.18.3274.271.5739.271zm1.1864.298h-.3587l-.0497-.525c-.0625.192-.171.339-.3255.442-.1545.099-.3421.149-.5629.149-.3347 0-.6069-.125-.8166-.375-.206-.254-.309-.596-.309-1.027 0-.4633.103-.8275.309-1.0924.2097-.2649.4966-.3973.8608-.3973.1913 0 .3587.0405.5021.1214.1435.0809.2428.1876.298.3201v-1.6003h.4525zm1.7332-.298c.217 0 .3936-.078.5297-.232.1361-.158.2042-.374.2042-.646v-.513c0-.2354-.0699-.423-.2097-.5628-.1398-.1435-.3127-.2152-.5187-.2152-.2465 0-.4396.0975-.5794.2924-.1361.195-.2041.4726-.2041.8336 0 .331.068.588.2041.772.1361.18.3274.271.5739.271zm1.1864.298h-.3587l-.0497-.525c-.0625.192-.171.339-.3255.442-.1545.099-.3421.149-.5629.149-.3347 0-.607-.125-.8166-.375-.206-.254-.309-.596-.309-1.027 0-.4633.103-.8275.309-1.0924.2096-.2649.4966-.3973.8608-.3973.1913 0 .3586.0405.5021.1214s.2428.1876.298.3201v-1.6003h.4525zm4.7571-3.0078h-.0111l-1.0539 2.1578h-.3532l-1.0539-2.1578h-.0111l.0056.6401v2.3677h-.4525v-3.6865h.5628l1.1367 2.3345h.0111l1.1367-2.3345h.5297v3.6865h-.4525v-2.3677zm2.2063.1821c.3789 0 .6788.1288.8995.3863.2244.2575.3366.6106.3366 1.0594 0 .449-.1122.802-.3366 1.059-.2207.258-.5206.387-.8995.387s-.6805-.129-.9049-.387c-.2207-.257-.3311-.61-.3311-1.059 0-.4488.1104-.8019.3311-1.0594.2244-.2575.526-.3863.9049-.3863zm0 2.5387c.2539 0 .447-.092.5794-.276.1325-.188.1987-.46.1987-.817s-.0662-.6272-.1987-.8111c-.1324-.1876-.3255-.2814-.5794-.2814-.2538 0-.4469.0938-.5793.2814-.1325.1839-.1987.4541-.1987.8111s.0662.629.1987.817c.1324.184.3255.276.5793.276zm1.7314-2.4725h.3366l.0551.5353c.0773-.1913.1969-.3385.3587-.4415.1619-.1066.3513-.16.5684-.16.2575 0 .4635.0809.618.2428.1545.1582.2317.3734.2317.6456v1.9373h-.4524v-1.8435c0-.1876-.0479-.3311-.1435-.4304-.092-.103-.2244-.1545-.3973-.1545-.2281 0-.4065.0717-.5352.2152-.1251.1435-.1877.3476-.1877.6122v1.601h-.4524zm3.8706 2.4665c.1729 0 .3145-.042.4249-.127.1103-.084.1858-.21.2262-.375l.3918.11c-.0589.243-.1784.429-.3587.558-.1802.128-.4083.193-.6842.193-.3863 0-.6879-.125-.905-.375-.217-.251-.3255-.604-.3255-1.06 0-.4451.1103-.7982.3311-1.0594.2244-.2649.5242-.3973.8994-.3973.3274 0 .5867.1067.778.3201.195.2096.2925.4892.2925.8386 0 .07-.0055.138-.0166.204-.011.066-.0239.122-.0386.166h-1.8099c.011.32.0846.568.2207.745.1398.173.3311.259.5739.259zm-.011-2.1851c-.2171 0-.3937.0736-.5298.2208-.1324.1471-.2133.3568-.2428.6293h1.4016c.0037-.019.0055-.037.0055-.055 0-.023 0-.052 0-.0887 0-.2097-.0588-.379-.1765-.5077-.1141-.1324-.2667-.1987-.458-.1987zm2.448 2.0471h.0111l.778-2.3285h.4525l-1.0484 2.9085c-.1325.364-.2723.623-.4194.778-.1472.154-.3329.231-.5573.231-.0663 0-.1325-.009-.1987-.027-.0662-.019-.1287-.044-.1876-.078l.0662-.375c.0736.044.1306.072.1711.083.0441.015.0901.022.1379.022.1361 0 .2428-.044.3201-.132.0772-.089.1637-.267.2593-.536l-1.0263-2.8745h.48z" fill="#fff"/><rect fill="#5b5959" height="22.0721" rx="11.036" width="22.0721" x="55.8691" y="69.9976"/><path d="m70.6347 81.6714c-.1261.0611-.2403.1083-.3467.1989-.069.0572-.1359.1202-.1851.1911-.071.0985-.1261.2029-.2286.2758-.0984.0669-.2205.0787-.3407.0787h-1.2468c-.1088 0-.1969-.0881-.1969-.1969v-.394c0-.1087.0881-.1969.1969-.1969h1.5757c.1088 0 .197-.0882.197-.197v-3.5513c0-.1087-.0882-.1969-.197-.1969h-5.9148c-.1088 0-.197.0882-.197.1969v3.5513c0 .1088.0882.197.197.197h2.3681c.1087 0 .1969-.0882.1969-.197v-1.9015c0-.1088.0882-.197.197-.197h.3939c.1088 0 .197.0882.197.197v4.0725c0 .168.1967.2589.3246.15l.8484-.7223c.0828-.0705.2071-.0605.2776.0223l.2555.2999c.0705.0828.0606.2071-.0223.2777l-1.7551 1.4941c-.0354.0302-.0804.0468-.127.047l-.3645.0012c-.0466.0002-.0917-.0161-.1274-.0461l-1.7807-1.4956c-.0833-.0699-.0941-.1942-.0241-.2775l.2533-.3015c.0699-.0833.1941-.0941.2774-.0242l.8528.7162c.1281.1076.3236.0165.3236-.1508v-.9796c0-.1088-.0882-.197-.1969-.197h-3.1559c-.1088 0-.197-.0881-.197-.1969v-5.127c0-.1088.0882-.197.197-.197h7.4905c.1088 0 .197.0882.197.197v4.1382c0 .1694-.0493.3585-.2127.4412z" fill="#fff"/><path d="m57.5495 101.158.7505-3.0955h.4911l.7504 3.0955h.0221l.7505-3.0955h.458l-.9602 3.6865h-.4911l-.7725-3.0519h-.0166l-.7725 3.0519h-.4911l-.9601-3.6865h.469l.756 3.0955zm3.8248-3.3383c.092 0 .1692.0313.2318.0938.0625.0625.0938.1416.0938.2373 0 .0956-.0313.1747-.0938.2373-.0626.0625-.1398.0938-.2318.0938s-.1692-.0313-.2318-.0938c-.0625-.0626-.0938-.1417-.0938-.2373 0-.0957.0313-.1748.0938-.2373.0626-.0625.1398-.0938.2318-.0938zm-.2262 3.9293v-2.7595h.4524v2.7595zm2.0571-.315c.0847 0 .1601-.009.2263-.028.0662-.022.1416-.06.2262-.115l.0828.358c-.0809.052-.1729.092-.2759.122-.0993.029-.1968.044-.2925.044-.2648 0-.469-.065-.6125-.193-.1397-.133-.2096-.322-.2096-.569v-1.7158h-.3973v-.3477h.3973v-.5849l.4524-.0717v.6566h.8277v.3477h-.8277v1.6718c0 .14.0331.247.0994.32.0699.07.171.105.3034.105zm.926-3.6695h.4525v1.6609c.0846-.1618.2005-.285.3477-.3697.1508-.0882.3237-.1324.5186-.1324.2576 0 .4636.0809.6181.2428.1545.1582.2317.3734.2317.6456v1.9373h-.4525v-1.8435c0-.1876-.0478-.3311-.1434-.4304-.092-.103-.2244-.1545-.3973-.1545-.2281 0-.4065.0717-.5353.2152-.125.1435-.1876.3476-.1876.6122v1.601h-.4525zm3.8762 3.6865c.217 0 .3936-.078.5297-.232.1361-.158.2042-.374.2042-.646v-.513c0-.2354-.0699-.423-.2097-.5628-.1398-.1435-.3127-.2152-.5187-.2152-.2465 0-.4396.0975-.5794.2924-.1361.195-.2042.4726-.2042.8336 0 .331.0681.588.2042.772.1361.18.3274.271.5739.271zm1.1864.298h-.3587l-.0497-.525c-.0625.192-.171.339-.3255.442-.1545.099-.3421.149-.5629.149-.3347 0-.607-.125-.8166-.375-.206-.254-.309-.596-.309-1.027 0-.4633.103-.8275.309-1.0924.2096-.2649.4966-.3973.8608-.3973.1913 0 .3586.0405.5021.1214s.2428.1876.298.3201v-1.6003h.4525zm.6958 0v-2.7595h.3587l.0607.7063c.0515-.2317.1581-.4175.32-.5573.1619-.1435.3476-.2152.5573-.2152.0258 0 .0515.0018.0773.0055.0294.0037.057.0074.0828.0111l-.0276.4745c-.0221-.0037-.0534-.0073-.0938-.011-.0405-.0037-.0828-.0055-.127-.0055-.228 0-.412.0864-.5518.2593-.1361.1729-.2041.4048-.2041.6948v1.397zm2.5272-.287c.2061 0 .3716-.067.4967-.199.125-.132.1876-.315.1876-.546v-.232c-.0478-.004-.0938-.006-.138-.006-.0441-.003-.0846-.005-.1214-.005-.3163 0-.5518.046-.7063.138-.1545.088-.2317.222-.2317.403 0 .139.046.25.1379.331.092.077.2171.116.3752.116zm.1656-2.5387c.3053 0 .5389.0736.7008.2207.1618.1435.2428.3532.2428.6291v1.4349c0 .081.0165.141.0496.182.0331.04.0846.061.1545.061.0295 0 .0607-.006.0938-.017s.0589-.026.0773-.044l.0276.336c-.0331.023-.0791.041-.138.056-.0551.014-.1103.022-.1655.022-.103 0-.1931-.021-.2704-.061-.0736-.044-.1306-.107-.171-.188-.0148-.029-.0295-.06-.0442-.093-.011-.037-.0202-.078-.0276-.122-.0515.144-.1508.258-.298.342-.1471.085-.3145.127-.5021.127-.2575 0-.4653-.07-.6235-.209-.1545-.144-.2318-.333-.2318-.569 0-.287.1177-.507.3532-.662.2391-.154.583-.232 1.0318-.232.0221 0 .0497.002.0828.006.0368 0 .0957.002.1766.005v-.3253c0-.1692-.0478-.2998-.1435-.3917-.092-.092-.2262-.138-.4028-.138-.1692 0-.2998.0423-.3918.1269-.0919.0846-.1416.2079-.149.3697l-.4414-.0772c.0294-.2428.1343-.4341.3145-.5739.184-.1435.4157-.2152.6953-.2152zm2.3598 2.2847.5738-2.2185h.4084l.5738 2.2185h.0111l.5739-2.2185h.4359l-.7836 2.7595h-.4414l-.5739-2.1746h-.011l-.5739 2.1746h-.4415l-.7835-2.7595h.4469l.5739 2.2185z" fill="#fff"/><rect fill="#fff" height="22.0721" rx="11.036" width="22.0725" x="94.9551" y="69.9976"/><path d="m110.962 81.0336.446.446c.135.1347.135.3531 0 .4878s-.353.1347-.488 0l-.588-.5887h-.892v.1725c0 .1905-.154.3448-.345.3448-.19 0-.345-.1543-.345-.3448v-.1725h-1.069c-.045.2201-.131.4249-.251.6059l.824.8243.122-.122c.135-.1348.353-.1348.488 0 .134.1347.134.353 0 .4877l-.122.122.508.5087h.833c.19 0 .345.1544.345.3449s-.155.3449-.345.3449h-.631v.6307c0 .1905-.154.3448-.344.3448-.191 0-.345-.1543-.345-.3448v-.8327l-.509-.5087-.122.122c-.135.1347-.353.1347-.488 0-.134-.1347-.134-.353 0-.4878l.122-.122-.824-.8242c-.181.1198-.386.2067-.606.2513v1.0691h.173c.19 0 .344.1544.344.3449s-.154.3449-.344.3449h-.173v.8917l.589.5886c.134.1348.134.3531 0 .4878-.135.1347-.353.1347-.488 0l-.446-.4459-.446.4459c-.135.1347-.353.1347-.488 0-.134-.1347-.134-.353 0-.4878l.589-.5886v-.8917h-.173c-.19 0-.344-.1544-.344-.3449s.154-.3449.344-.3449h.173v-1.0691c-.22-.0446-.425-.1315-.606-.2513l-.824.8242.122.122c.134.1348.134.3531 0 .4878-.135.1347-.353.1347-.488 0l-.122-.122-.509.5087v.8327c0 .1905-.154.3448-.345.3448-.19 0-.344-.1543-.344-.3448v-.6305h-.631c-.191 0-.345-.1543-.345-.3449 0-.1905.154-.3449.345-.3449h.833l.508-.5086-.122-.122c-.135-.1348-.135-.3531 0-.4878s.353-.1347.488 0l.122.122.824-.8243c-.12-.181-.207-.3858-.251-.6059h-1.069v.1725c0 .1905-.155.3448-.345.3448-.191 0-.345-.1543-.345-.3448v-.1725h-.892l-.589.5887c-.134.1347-.353.1347-.487 0-.135-.1347-.135-.3531 0-.4878l.446-.446-.446-.4459c-.135-.1347-.135-.3531 0-.4878.134-.1347.353-.1347.487 0l.589.5887h.892v-.1725c0-.1905.154-.3448.345-.3448.19 0 .345.1543.345.3448v.1725h1.069c.044-.2201.131-.4249.251-.6059l-.756-.7564-.122.122c-.135.1347-.353.1347-.488 0s-.135-.3531 0-.4878l.122-.122-.564-.5643h-.833c-.191 0-.345-.1543-.345-.3448 0-.1906.154-.3449.345-.3449h.63v-.6307c0-.1905.155-.3449.345-.3449.191 0 .345.1544.345.3449v.8327l.564.5643.122-.122c.135-.1348.354-.1348.488 0 .135.1347.135.353 0 .4877l-.122.122.757.7564c.181-.1199.385-.2067.605-.2513v-1.0691h-.172c-.191 0-.345-.1544-.345-.3449 0-.1906.154-.3449.345-.3449h.172v-.8917l-.588-.5887c-.135-.1347-.135-.353 0-.4877.135-.1348.353-.1348.488 0l.446.4459.446-.4459c.134-.1348.353-.1348.487 0 .135.1347.135.353 0 .4877l-.588.5887v.8917h.172c.191 0 .345.1543.345.3449 0 .1905-.154.3449-.345.3449h-.172v1.0691c.22.0446.424.1314.606.2513l.824-.8243-.122-.122c-.135-.1347-.135-.353 0-.4877.135-.1348.353-.1348.488 0l.122.122.508-.5087v-.8327c0-.1905.155-.3449.345-.3449.191 0 .345.1544.345.3449v.6305h.631c.19 0 .345.1543.345.3449 0 .1905-.155.3448-.345.3448h-.833l-.509.5087.122.122c.135.1347.135.3531 0 .4878-.134.1347-.353.1347-.487 0l-.122-.122-.824.8242c.119.1811.206.3857.251.6059h1.069v-.1724c0-.1905.154-.3449.345-.3449.19 0 .345.1544.345.3449v.1724h.891l.589-.5886c.135-.1347.353-.1347.488 0s.135.3531 0 .4878zm-4.971-1.0346c-.571 0-1.035.4632-1.035 1.0346s.464 1.0347 1.035 1.0347 1.035-.4633 1.035-1.0347-.464-1.0346-1.035-1.0346z" fill="#181340"/><path d="m94.1644 100.11v1.639h-.4635v-3.6865h2.2237v.4083h-1.7602v1.2306h1.5671v.4086zm2.1375 1.639v-2.7595h.3586l.0607.7063c.0515-.2317.1582-.4175.3201-.5573.1618-.1435.3476-.2152.5573-.2152.0258 0 .0515.0018.0773.0055.0294.0037.057.0074.0827.0111l-.0276.4745c-.022-.0037-.0533-.0073-.0938-.011-.0404-.0037-.0827-.0055-.1269-.0055-.2281 0-.412.0864-.5518.2593-.1361.1729-.2041.4048-.2041.6948v1.397zm2.7713-.293c.1729 0 .3145-.042.4249-.127.1104-.084.1858-.21.2262-.375l.3917.11c-.059.243-.1783.429-.3586.558-.1802.128-.4083.193-.6842.193-.3863 0-.6879-.125-.9049-.375-.2171-.251-.3256-.604-.3256-1.06 0-.4451.1104-.7982.3311-1.0594.2244-.2649.5242-.3973.8994-.3973.3274 0 .5868.1067.7781.3201.1947.2096.2927.4892.2927.8386 0 .07-.006.138-.017.204s-.024.122-.038.166h-1.8104c.0111.32.0846.568.2207.745.1398.173.3311.259.5739.259zm-.011-2.1851c-.2171 0-.3936.0736-.5298.2208-.1324.1471-.2133.3568-.2427.6293h1.4015c.0037-.019.0055-.037.0055-.055 0-.023 0-.052 0-.0887 0-.2097-.0588-.379-.1765-.5077-.1141-.1324-.2667-.1987-.458-.1987zm2.6288 2.1851c.173 0 .315-.042.425-.127.11-.084.186-.21.226-.375l.392.11c-.059.243-.178.429-.359.558-.18.128-.408.193-.684.193-.386 0-.688-.125-.905-.375-.217-.251-.325-.604-.325-1.06 0-.4451.11-.7982.331-1.0594.224-.2649.524-.3973.899-.3973.327 0 .587.1067.778.3201.195.2096.293.4892.293.8386 0 .07-.006.138-.017.204s-.024.122-.039.166h-1.81c.011.32.085.568.221.745.14.173.331.259.574.259zm-.011-2.1851c-.217 0-.394.0736-.53.2208-.132.1471-.213.3568-.243.6293h1.402c.004-.019.006-.037.006-.055 0-.023 0-.052 0-.0887 0-.2097-.059-.379-.177-.5077-.114-.1324-.267-.1987-.458-.1987zm3.342-.2814v.2704l-1.468 2.1241h1.507v.365h-2.042v-.271l1.457-2.1243h-1.441v-.3642zm1.501 2.4665c.172 0 .314-.042.424-.127.111-.084.186-.21.227-.375l.391.11c-.058.243-.178.429-.358.558-.18.128-.409.193-.684.193-.387 0-.688-.125-.905-.375-.217-.251-.326-.604-.326-1.06 0-.4451.11-.7982.331-1.0594.224-.2649.524-.3973.9-.3973.327 0 .586.1067.778.3201.195.2096.292.4892.292.8386 0 .07-.005.138-.017.204-.011.066-.023.122-.038.166h-1.81c.011.32.085.568.221.745.139.173.331.259.574.259zm-.012-2.1851c-.217 0-.393.0736-.529.2208-.133.1471-.214.3568-.243.6293h1.402c.003-.019.005-.037.005-.055 0-.023 0-.052 0-.0887 0-.2097-.059-.379-.177-.5077-.114-.1324-.266-.1987-.458-.1987zm3.706 2.5441c-.379 0-.679-.129-.899-.387-.221-.257-.331-.61-.331-1.059 0-.4451.11-.7964.331-1.0539.22-.2612.52-.3918.899-.3918.276 0 .506.0773.69.2318s.29.3586.32.6125l-.414.0772c-.015-.1655-.077-.2998-.188-.4028-.106-.1067-.242-.16-.408-.16-.243 0-.432.0956-.568.2869s-.205.4581-.205.8001.069.609.205.8.325.287.568.287c.169 0 .307-.051.414-.154.107-.107.167-.247.182-.42l.414.077c-.041.269-.149.479-.326.63-.176.15-.404.226-.684.226zm2.217-.353c.206 0 .372-.067.497-.199s.188-.315.188-.546v-.232c-.048-.004-.094-.006-.138-.006-.044-.003-.085-.005-.122-.005-.316 0-.551.046-.706.138-.154.088-.232.222-.232.403 0 .139.046.25.138.331.092.077.217.116.375.116zm.166-2.5387c.305 0 .539.0736.701.2207.162.1435.243.3532.243.6291v1.4349c0 .081.016.141.049.182.033.04.085.061.155.061.029 0 .06-.006.094-.017.033-.011.058-.026.077-.044l.027.336c-.033.023-.079.041-.138.056-.055.014-.11.022-.165.022-.103 0-.193-.021-.27-.061-.074-.044-.131-.107-.172-.188-.014-.029-.029-.06-.044-.093-.011-.037-.02-.078-.027-.122-.052.144-.151.258-.298.342-.147.085-.315.127-.502.127-.258 0-.466-.07-.624-.209-.154-.144-.232-.333-.232-.569 0-.287.118-.507.354-.662.239-.154.583-.232 1.031-.232.022 0 .05.002.083.006.037 0 .096.002.177.005v-.3253c0-.1692-.048-.2998-.144-.3917-.092-.092-.226-.138-.403-.138-.169 0-.299.0423-.391.1269s-.142.2079-.149.3697l-.442-.0772c.03-.2428.135-.4341.315-.5739.184-.1435.415-.2152.695-.2152zm1.691 2.8257v-2.7595h.359l.061.7063c.051-.2317.158-.4175.32-.5573.162-.1435.348-.2152.557-.2152.026 0 .052.0018.077.0055.03.0037.057.0074.083.0111l-.027.4745c-.022-.0037-.054-.0073-.094-.011-.041-.0037-.083-.0055-.127-.0055-.228 0-.412.0864-.552.2593-.136.1729-.204.4048-.204.6948v1.397zm2.831-.298c.217 0 .394-.078.53-.232.136-.158.204-.374.204-.646v-.513c0-.2354-.07-.423-.21-.5628-.139-.1435-.312-.2152-.518-.2152-.247 0-.44.0975-.58.2924-.136.195-.204.4726-.204.8336 0 .331.068.588.204.772.136.18.328.271.574.271zm1.187.298h-.359l-.05-.525c-.062.192-.171.339-.325.442-.155.099-.342.149-.563.149-.335 0-.607-.125-.817-.375-.206-.254-.309-.596-.309-1.027 0-.4633.103-.8275.309-1.0924.21-.2649.497-.3973.861-.3973.191 0 .359.0405.502.1214.144.0809.243.1876.298.3201v-1.6003h.453z" fill="#fff"/><rect fill="#5b5959" height="22.0721" rx="11.036" width="22.0721" x="134.041" y="69.9976"/><path clip-rule="evenodd" d="m143.106 81.0352c0 .1035-.021.206-.06.3016-.04.0957-.098.1826-.171.2557-.073.0732-.16.1313-.256.1709s-.198.06-.302.06c-.103 0-.206-.0204-.301-.06-.096-.0396-.183-.0977-.256-.1709-.073-.0731-.131-.16-.171-.2557-.039-.0956-.06-.1981-.06-.3016 0-.209.083-.4095.231-.5573s.348-.2308.557-.2308.41.083.558.2308.231.3483.231.5573zm1.97.7886c.21 0 .41-.083.558-.2309.148-.1478.231-.3483.231-.5574s-.083-.4097-.231-.5575c-.148-.1479-.348-.2309-.558-.2309-.209 0-.409.083-.557.2309-.148.1478-.231.3484-.231.5575s.083.4096.231.5574c.148.1479.348.2309.557.2309zm2.759 0c.21 0 .41-.083.558-.2309.148-.1478.231-.3483.231-.5574s-.083-.4097-.231-.5575c-.148-.1479-.348-.2309-.558-.2309-.209 0-.409.083-.557.2309-.148.1478-.231.3484-.231.5575s.083.4096.231.5574c.148.1479.348.2309.557.2309z" fill="#fff" fill-rule="evenodd"/><path d="m142.77 98.7412h-.011l-1.054 2.1578h-.354l-1.053-2.1578h-.012l.006.6401v2.3677h-.452v-3.6865h.562l1.137 2.3345h.011l1.137-2.3345h.53v3.6865h-.453v-2.3677zm2.206.1821c.379 0 .679.1288.899.3863.225.2575.337.6106.337 1.0594 0 .449-.112.802-.337 1.059-.22.258-.52.387-.899.387s-.681-.129-.905-.387c-.221-.257-.331-.61-.331-1.059 0-.4488.11-.8019.331-1.0594.224-.2575.526-.3863.905-.3863zm0 2.5387c.254 0 .447-.092.579-.276.133-.188.199-.46.199-.817s-.066-.6272-.199-.8111c-.132-.1876-.325-.2814-.579-.2814s-.447.0938-.579.2814c-.133.1839-.199.4541-.199.8111s.066.629.199.817c.132.184.325.276.579.276zm1.731.287v-2.7595h.359l.061.7063c.051-.2317.158-.4175.32-.5573.162-.1435.347-.2152.557-.2152.026 0 .052.0018.077.0055.03.0037.057.0074.083.0111l-.028.4745c-.022-.0037-.053-.0073-.093-.011-.041-.0037-.083-.0055-.127-.0055-.228 0-.412.0864-.552.2593-.136.1729-.204.4048-.204.6948v1.397zm2.772-.293c.173 0 .314-.042.425-.127.11-.084.185-.21.226-.375l.392.11c-.059.243-.179.429-.359.558-.18.128-.408.193-.684.193-.387 0-.688-.125-.905-.375-.217-.251-.326-.604-.326-1.06 0-.4451.11-.7982.331-1.0594.225-.2649.524-.3973.9-.3973.327 0 .586.1067.778.3201.195.2096.292.4892.292.8386 0 .07-.005.138-.016.204s-.024.122-.039.166h-1.81c.011.32.085.568.221.745.14.173.331.259.574.259zm-.011-2.1851c-.217 0-.394.0736-.53.2208-.133.1471-.213.3568-.243.6293h1.402c.003-.019.005-.037.005-.055 0-.023 0-.052 0-.0887 0-.2097-.059-.379-.176-.5077-.114-.1324-.267-.1987-.458-.1987z" fill="#fff"/><path d="m14.2527 127.384c0-.215-.0622-.376-.1867-.483-.1202-.111-.3004-.167-.5407-.167h-.9464v1.32h.9528c.2403 0 .4206-.056.5408-.168.1201-.111.1802-.279.1802-.502zm1.0494 2.987h-.8756c-.0472-.056-.0858-.116-.1158-.18-.0258-.065-.0494-.146-.0709-.245l-.1545-.682c-.0429-.202-.1201-.346-.2317-.432-.1116-.085-.2811-.128-.5086-.128h-.7661v1.667h-.8047v-4.3h1.8154c.4936 0 .867.105 1.1202.315.2575.21.3862.517.3862.921 0 .296-.0922.545-.2768.747-.1802.197-.4098.309-.6888.334v.013c.206.026.3669.095.4828.206.1159.112.1996.275.2511.489l.1996.805c.0171.086.045.168.0837.245.0429.077.0944.152.1545.225zm1.785-.528c.1759 0 .3175-.041.4248-.122.1073-.086.1824-.213.2254-.38l.6566.213c-.0772.287-.2318.508-.4635.663-.2318.154-.515.231-.8498.231-.4764 0-.8498-.148-1.1201-.444-.2704-.296-.4056-.706-.4056-1.229 0-.528.1373-.947.412-1.256s.6481-.463 1.1202-.463c.412 0 .7381.128.9785.386.2403.253.3605.592.3605 1.017 0 .077-.0064.157-.0193.238-.0129.078-.0279.142-.0451.193h-2.0472c.0086.301.0794.535.2125.702.1373.168.324.251.5601.251zm-.0129-2.214c-.2103 0-.382.073-.515.219-.1288.141-.206.343-.2318.605h1.339c.0043-.018.0065-.037.0065-.058 0-.026 0-.06 0-.103 0-.198-.0558-.356-.1674-.477-.1073-.124-.2511-.186-.4313-.186zm3.246 2.819c-.4721 0-.8455-.15-1.1201-.45-.2747-.305-.412-.719-.412-1.243 0-.523.1352-.938.4055-1.242.2747-.305.646-.457 1.1138-.457.3605 0 .6545.094.8819.283.2318.189.3648.442.3992.76l-.6953.148c-.0129-.181-.0708-.324-.1738-.432-.103-.107-.2382-.161-.4056-.161-.2318 0-.412.097-.5408.29-.1287.193-.1931.464-.1931.811 0 .348.0644.618.1931.811.1288.189.3112.284.5472.284.1631 0 .2962-.054.3992-.161.103-.108.1631-.254.1802-.438l.7017.187c-.0558.313-.1974.56-.4249.74-.2274.18-.5128.27-.8562.27zm3.0949-.605c.176 0 .3176-.041.4249-.122.1073-.086.1824-.213.2253-.38l.6567.213c-.0773.287-.2318.508-.4636.663-.2317.154-.515.231-.8497.231-.4764 0-.8498-.148-1.1202-.444s-.4056-.706-.4056-1.229c0-.528.1374-.947.412-1.256.2747-.309.6481-.463 1.1202-.463.412 0 .7382.128.9785.386.2404.253.3605.592.3605 1.017 0 .077-.0064.157-.0193.238-.0128.078-.0279.142-.045.193h-2.0472c.0086.301.0794.535.2124.702.1374.168.3241.251.5601.251zm-.0129-2.214c-.2103 0-.3819.073-.515.219-.1287.141-.206.343-.2317.605h1.339c.0043-.018.0064-.037.0064-.058 0-.026 0-.06 0-.103 0-.198-.0558-.356-.1673-.477-.1073-.124-.2511-.186-.4314-.186zm1.8949-.496h.6502l.0966.624c.0815-.223.2146-.394.3991-.515.1846-.124.4035-.186.6567-.186.309 0 .5536.094.7339.283.1845.184.2768.44.2768.766v2.266h-.7983v-2.047c0-.193-.045-.341-.1352-.444-.0901-.103-.221-.155-.3927-.155-.2189 0-.3905.073-.515.219-.1202.142-.1802.346-.1802.612v1.815h-.7919zm4.8418 2.665c.0901 0 .1738-.013.2511-.038.0815-.026.1695-.069.2639-.129l.1095.586c-.103.073-.2232.128-.3605.167-.1331.043-.2704.064-.4121.064-.3433 0-.6072-.083-.7918-.251-.1802-.171-.2704-.418-.2704-.74v-1.732h-.4377v-.592h.4377v-.689l.7983-.103v.792h.9077v.592h-.9077v1.635c0 .146.0343.256.103.329s.1717.109.309.109zm3.7253 0c.0901 0 .1738-.013.2511-.038.0815-.026.1695-.069.2639-.129l.1095.586c-.103.073-.2232.128-.3605.167-.1331.043-.2704.064-.412.064-.3434 0-.6073-.083-.7919-.251-.1802-.171-.2704-.418-.2704-.74v-1.732h-.4377v-.592h.4377v-.689l.7983-.103v.792h.9077v.592h-.9077v1.635c0 .146.0343.256.103.329s.1717.109.309.109zm1.0839.573v-3.238h.6695l.0902.785c.0643-.261.1845-.47.3605-.624.1802-.155.3905-.232.6309-.232.0343 0 .0686.002.103.007.0386 0 .0751.004.1094.012l-.0451.812c-.0386-.013-.0901-.024-.1545-.033-.06-.008-.118-.012-.1738-.012-.2403 0-.4334.085-.5794.257-.1459.172-.2188.406-.2188.702v1.564zm3.3641-.476c.1931 0 .3476-.063.4635-.187.1201-.124.1802-.298.1802-.521v-.226c-.0686-.008-.1266-.013-.1738-.013-.0429-.004-.0729-.006-.0901-.006-.2876 0-.5043.045-.6502.135-.1459.086-.2189.215-.2189.386 0 .133.0429.239.1288.316.0901.077.2103.116.3605.116zm.1802-2.839c.4034 0 .7082.088.9142.264s.309.435.309.779v1.487c0 .086.0171.15.0515.193.0386.038.0965.058.1738.058.0343 0 .0687-.005.103-.013.0343-.013.0622-.03.0837-.052l.0322.541c-.0558.039-.1266.069-.2125.09-.0815.022-.1652.032-.251.032-.1331 0-.2511-.023-.3541-.07-.103-.052-.1846-.125-.2446-.219-.0215-.039-.0408-.077-.058-.116-.0129-.039-.0257-.08-.0386-.122-.0601.163-.176.291-.3476.386-.1674.094-.3627.141-.5859.141-.309 0-.5558-.081-.7403-.244-.1846-.168-.2768-.393-.2768-.676 0-.326.133-.58.3991-.76.2704-.18.6545-.27 1.1524-.27.0515 0 .1094.002.1738.006.0686.005.1287.009.1802.013v-.36c0-.159-.0429-.281-.1287-.367-.0859-.086-.2103-.129-.3734-.129s-.2876.045-.3734.135c-.0858.086-.1309.21-.1352.374l-.7468-.116c.0301-.305.161-.545.3927-.721.2318-.176.5322-.264.9013-.264zm2.0734.077h.6502l.0965.624c.0816-.223.2146-.394.3992-.515.1845-.124.4034-.186.6566-.186.309 0 .5536.094.7339.283.1846.184.2768.44.2768.766v2.266h-.7982v-2.047c0-.193-.0451-.341-.1352-.444-.0902-.103-.2211-.155-.3927-.155-.2189 0-.3906.073-.5151.219-.1201.142-.1802.346-.1802.612v1.815h-.7918zm4.5842 3.315c-.3605 0-.6609-.077-.9012-.231-.2404-.159-.3884-.378-.4442-.657l.6888-.167c.0215.15.0923.272.2124.367.1245.094.2747.141.4507.141.1802 0 .3197-.034.4184-.103.0987-.073.1481-.174.1481-.302 0-.108-.0451-.194-.1352-.258-.0858-.069-.2768-.135-.5729-.2-.2189-.047-.382-.09-.4893-.128-.103-.039-.191-.082-.264-.129-.1115-.077-.1952-.174-.251-.29s-.0837-.251-.0837-.405c0-.309.1159-.558.3476-.747.2318-.189.5343-.283.9077-.283.3691 0 .661.079.8756.238.2145.159.3412.386.3798.682l-.6889.084c-.0128-.146-.0686-.26-.1673-.341-.0987-.082-.2296-.123-.3927-.123s-.2897.037-.3799.11c-.0901.073-.1351.176-.1351.309 0 .107.0429.193.1287.257.0858.065.2768.125.573.181.2231.047.3862.09.4892.128.1073.039.1996.084.2768.136.1116.077.1953.173.2511.289s.0837.256.0837.419c0 .317-.1202.568-.3605.753-.2403.18-.5622.27-.9657.27zm2.8806-.553c.1931 0 .3476-.063.4635-.187.1201-.124.1802-.298.1802-.521v-.226c-.0686-.008-.1266-.013-.1738-.013-.0429-.004-.073-.006-.0901-.006-.2876 0-.5043.045-.6502.135-.1459.086-.2189.215-.2189.386 0 .133.0429.239.1287.316.0902.077.2103.116.3606.116zm.1802-2.839c.4034 0 .7082.088.9142.264s.309.435.309.779v1.487c0 .086.0171.15.0515.193.0386.038.0965.058.1738.058.0343 0 .0687-.005.103-.013.0343-.013.0622-.03.0837-.052l.0322.541c-.0558.039-.1266.069-.2125.09-.0815.022-.1652.032-.251.032-.1331 0-.2511-.023-.3541-.07-.103-.052-.1846-.125-.2446-.219-.0215-.039-.0408-.077-.058-.116-.0129-.039-.0257-.08-.0386-.122-.0601.163-.176.291-.3476.386-.1674.094-.3627.141-.5859.141-.309 0-.5558-.081-.7403-.244-.1846-.168-.2768-.393-.2768-.676 0-.326.133-.58.3991-.76.2704-.18.6545-.27 1.1524-.27.0515 0 .1094.002.1738.006.0686.005.1287.009.1802.013v-.36c0-.159-.0429-.281-.1287-.367-.0859-.086-.2103-.129-.3734-.129s-.2876.045-.3734.135c-.0858.086-.1309.21-.1352.374l-.7468-.116c.0301-.305.161-.545.3927-.721.2318-.176.5322-.264.9013-.264zm3.3868 3.392c-.4721 0-.8455-.15-1.1202-.45-.2746-.305-.412-.719-.412-1.243 0-.523.1352-.938.4056-1.242.2747-.305.6459-.457 1.1137-.457.3605 0 .6545.094.882.283.2317.189.3648.442.3991.76l-.6953.148c-.0128-.181-.0708-.324-.1738-.432-.103-.107-.2382-.161-.4056-.161-.2317 0-.412.097-.5407.29-.1288.193-.1931.464-.1931.811 0 .348.0643.618.1931.811.1287.189.3111.284.5472.284.1631 0 .2961-.054.3991-.161.103-.108.1631-.254.1803-.438l.7017.187c-.0558.313-.1974.56-.4249.74s-.5129.27-.8562.27zm3.082-.65c.0901 0 .1738-.013.251-.038.0816-.026.1696-.069.264-.129l.1094.586c-.103.073-.2231.128-.3605.167-.133.043-.2704.064-.412.064-.3433 0-.6073-.083-.7918-.251-.1803-.171-.2704-.418-.2704-.74v-1.732h-.4378v-.592h.4378v-.689l.7983-.103v.792h.9077v.592h-.9077v1.635c0 .146.0343.256.103.329.0686.073.1716.109.309.109zm1.4766-4.088c.1416 0 .2596.045.354.135.0988.091.1481.204.1481.342 0 .137-.0493.251-.1481.341-.0944.09-.2124.135-.354.135-.1417 0-.2597-.045-.3541-.135s-.1416-.204-.1416-.341c0-.138.0472-.251.1416-.342.0944-.09.2124-.135.3541-.135zm-.3927 4.661v-3.238h.7918v3.238zm2.8807-3.315c.4721 0 .8455.15 1.1202.45.279.301.4185.715.4185 1.243s-.1374.944-.4121 1.249c-.2746.3-.6502.45-1.1266.45-.4721 0-.8476-.15-1.1266-.45-.2746-.305-.412-.721-.412-1.249 0-.524.1374-.936.412-1.236.279-.305.6545-.457 1.1266-.457zm0 2.8c.2447 0 .4292-.092.5537-.277.1287-.189.1931-.465.1931-.83 0-.361-.0644-.633-.1931-.818-.1245-.189-.309-.283-.5537-.283-.2446 0-.4291.092-.5536.277-.1245.184-.1867.459-.1867.824s.0622.641.1867.83c.1245.185.309.277.5536.277zm2.0894-2.723h.6502l.0965.624c.0816-.223.2146-.394.3992-.515.1845-.124.4034-.186.6566-.186.309 0 .5537.094.7339.283.1846.184.2768.44.2768.766v2.266h-.7982v-2.047c0-.193-.0451-.341-.1352-.444-.0902-.103-.2211-.155-.3927-.155-.2189 0-.3906.073-.515.219-.1202.142-.1803.346-.1803.612v1.815h-.7918zm4.5843 3.315c-.3605 0-.661-.077-.9013-.231-.2404-.159-.3884-.378-.4442-.657l.6888-.167c.0215.15.0923.272.2125.367.1244.094.2746.141.4506.141.1803 0 .3197-.034.4184-.103.0988-.073.1481-.174.1481-.302 0-.108-.045-.194-.1352-.258-.0858-.069-.2768-.135-.5729-.2-.2189-.047-.382-.09-.4893-.128-.103-.039-.191-.082-.2639-.129-.1116-.077-.1953-.174-.2511-.29s-.0837-.251-.0837-.405c0-.309.1159-.558.3476-.747.2318-.189.5344-.283.9078-.283.369 0 .6609.079.8755.238s.3412.386.3798.682l-.6888.084c-.0129-.146-.0687-.26-.1674-.341-.0987-.082-.2296-.123-.3927-.123s-.2897.037-.3798.11c-.0902.073-.1352.176-.1352.309 0 .107.0429.193.1287.257.0859.065.2768.125.573.181.2232.047.3862.09.4892.128.1073.039.1996.084.2769.136.1116.077.1952.173.251.289s.0837.256.0837.419c0 .317-.1201.568-.3605.753-.2403.18-.5622.27-.9656.27z" fill="#fff"/><path d="m145.076 129.161c0 .39-.15.704-.451.94-.3.231-.686.347-1.158.347-.451 0-.829-.103-1.133-.309-.301-.21-.492-.498-.573-.862l.714-.271c.039.245.148.44.328.586.185.146.408.219.67.219.24 0 .431-.054.573-.161.146-.107.219-.255.219-.444 0-.146-.058-.264-.174-.354-.112-.095-.365-.191-.76-.29-.279-.073-.485-.135-.618-.187-.133-.055-.246-.118-.341-.186-.146-.103-.255-.23-.328-.38-.069-.15-.103-.324-.103-.522 0-.382.146-.693.438-.933.291-.24.661-.361 1.107-.361s.802.097 1.069.29c.266.189.429.466.489.831l-.734.186c-.03-.206-.118-.369-.264-.489-.146-.124-.33-.187-.554-.187-.223 0-.403.056-.54.168-.138.107-.206.251-.206.431 0 .146.055.266.167.361.116.09.369.184.76.283.283.069.491.131.624.187.137.055.253.118.348.186.146.108.253.238.322.393.073.15.109.326.109.528zm2.042.682c.176 0 .317-.041.424-.122.108-.086.183-.213.226-.38l.656.213c-.077.287-.231.508-.463.663-.232.154-.515.231-.85.231-.476 0-.85-.148-1.12-.444s-.406-.706-.406-1.229c0-.528.138-.947.412-1.256.275-.309.648-.463 1.121-.463.412 0 .738.128.978.386.24.253.361.592.361 1.017 0 .077-.007.157-.02.238-.013.078-.028.142-.045.193h-2.047c.009.301.079.535.212.702.138.168.325.251.561.251zm-.013-2.214c-.211 0-.382.073-.515.219-.129.141-.206.343-.232.605h1.339c.004-.018.006-.037.006-.058 0-.026 0-.06 0-.103 0-.198-.055-.356-.167-.477-.107-.124-.251-.186-.431-.186zm3.407 2.214c.176 0 .317-.041.425-.122.107-.086.182-.213.225-.38l.657.213c-.078.287-.232.508-.464.663-.232.154-.515.231-.85.231-.476 0-.85-.148-1.12-.444s-.405-.706-.405-1.229c0-.528.137-.947.412-1.256.274-.309.648-.463 1.12-.463.412 0 .738.128.978.386.241.253.361.592.361 1.017 0 .077-.007.157-.02.238-.012.078-.027.142-.045.193h-2.047c.009.301.08.535.213.702.137.168.324.251.56.251zm-.013-2.214c-.211 0-.382.073-.515.219-.129.141-.206.343-.232.605h1.339c.004-.018.007-.037.007-.058 0-.026 0-.06 0-.103 0-.198-.056-.356-.168-.477-.107-.124-.251-.186-.431-.186zm4.575 2.266c.193 0 .347-.063.463-.187.12-.124.18-.298.18-.521v-.226c-.068-.008-.126-.013-.173-.013-.043-.004-.073-.006-.09-.006-.288 0-.505.045-.651.135-.146.086-.219.215-.219.386 0 .133.043.239.129.316.09.077.211.116.361.116zm.18-2.839c.403 0 .708.088.914.264s.309.435.309.779v1.487c0 .086.017.15.052.193.038.038.096.058.173.058.035 0 .069-.005.103-.013.035-.013.063-.03.084-.052l.032.541c-.055.039-.126.069-.212.09-.082.022-.165.032-.251.032-.133 0-.251-.023-.354-.07-.103-.052-.185-.125-.245-.219-.021-.039-.041-.077-.058-.116-.013-.039-.026-.08-.038-.122-.061.163-.176.291-.348.386-.167.094-.363.141-.586.141-.309 0-.556-.081-.74-.244-.185-.168-.277-.393-.277-.676 0-.326.133-.58.399-.76.27-.18.655-.27 1.152-.27.052 0 .11.002.174.006.069.005.129.009.18.013v-.36c0-.159-.042-.281-.128-.367s-.211-.129-.374-.129-.287.045-.373.135c-.086.086-.131.21-.135.374l-.747-.116c.03-.305.161-.545.393-.721.231-.176.532-.264.901-.264zm3.232 2.749c.047 0 .092-.007.135-.02s.086-.034.129-.064l.058.573c-.073.043-.163.077-.27.103-.103.026-.211.038-.322.038-.253 0-.449-.066-.586-.199-.133-.133-.2-.324-.2-.573v-3.94h.792v3.792c0 .099.022.172.065.219.042.047.109.071.199.071zm1.911 0c.047 0 .092-.007.135-.02s.086-.034.128-.064l.058.573c-.073.043-.163.077-.27.103-.103.026-.21.038-.322.038-.253 0-.448-.066-.586-.199-.133-.133-.199-.324-.199-.573v-3.94h.792v3.792c0 .099.021.172.064.219s.109.071.2.071z" fill="#fff"/><path d="m141.632 131.124h19.241v.47h-19.241z" fill="#fff"/><rect fill="#fff" height="11.036" rx="5.51802" width="11.036" x="11.2656" y="142.568"/><path d="m18.0098 146.86-2.4525 2.452" stroke="#24201e" stroke-linecap="round" stroke-linejoin="round" stroke-width=".306557"/><path d="m15.5572 147.166v2.146h2.1459" stroke="#24201e" stroke-linecap="round" stroke-linejoin="round" stroke-width=".306557"/><g clip-path="url(#b)"><path d="m21.4004 152.71h3.3721v3.373h-3.3721z" fill="#012169"/><path d="m21.7956 152.71 1.2856 1.272 1.2803-1.272h.411v.436l-1.2645 1.258 1.2645 1.25v.429h-.4215l-1.2645-1.258-1.2593 1.258h-.4268v-.422l1.2593-1.25-1.2593-1.251v-.45z" fill="#fff"/><path d="m23.6344 154.685 1.1381 1.117v.281l-1.4279-1.398zm-.9695.14.0317.246-1.0117 1.012h-.2845zm2.1076-2.115v.022l-1.312 1.32.0106-.309 1.038-1.033zm-3.3721 0 1.2593 1.237h-.3162l-.9431-.941z" fill="#c8102e"/><path d="m22.6702 152.71v3.373h.843v-3.373zm-1.2698 1.124v1.125h3.3721v-1.125z" fill="#fff"/><path d="m21.4004 154.066v.675h3.3721v-.675zm1.4384-1.356v3.373h.5058v-3.373z" fill="#c8102e"/></g><rect height="3.52199" rx="1.761" stroke="#fff" stroke-width=".149872" width="3.52199" x="21.3255" y="152.636"/><path d="m29.9976 146.577h-.0129l-1.2296 2.518h-.412l-1.2296-2.518h-.0129l.0065.747v2.762h-.5279v-4.3h.6566l1.3262 2.723h.0129l1.3261-2.723h.618v4.3h-.5279v-2.762zm2.5033 3.586c-.4421 0-.7918-.15-1.0494-.45-.2575-.301-.3862-.713-.3862-1.236 0-.52.1287-.93.3862-1.23.2576-.305.6073-.457 1.0494-.457.3219 0 .5901.09.8047.27s.3391.419.3734.715l-.4828.09c-.0172-.193-.0902-.35-.2189-.47-.1245-.124-.2833-.187-.4764-.187-.2833 0-.5043.112-.6631.335s-.2382.534-.2382.934c0 .399.0794.71.2382.933s.3798.335.6631.335c.1974 0 .3584-.06.4828-.181.1245-.124.1953-.287.2125-.489l.4828.09c-.0472.314-.1738.558-.3798.734s-.4721.264-.7983.264zm3.2895-3.901v3.824h-.5408v-3.824h-1.4742v-.476h3.4892v.476zm2.5267.528c.442 0 .7918.15 1.0493.45.2618.301.3927.713.3927 1.237 0 .523-.1309.935-.3927 1.236-.2575.3-.6073.45-1.0493.45-.4421 0-.794-.15-1.0558-.45-.2575-.301-.3863-.713-.3863-1.236 0-.524.1288-.936.3863-1.237.2618-.3.6137-.45 1.0558-.45zm0 2.961c.2961 0 .5214-.107.6759-.322.1546-.219.2318-.536.2318-.952 0-.417-.0772-.732-.2318-.947-.1545-.219-.3798-.328-.6759-.328s-.5215.109-.676.328c-.1545.215-.2317.53-.2317.947 0 .416.0772.733.2317.952.1545.215.3799.322.676.322zm3.4104-2.961c.2275 0 .4227.06.5858.18.1631.116.2747.281.3348.496.0944-.215.2275-.38.3991-.496.1717-.12.3713-.18.5987-.18.3048 0 .5451.09.7211.27.1802.176.2703.421.2703.734v2.292h-.5278v-2.157c0-.227-.0516-.397-.1546-.508-.103-.112-.2596-.168-.4699-.168-.2361 0-.4227.084-.5601.251-.1373.168-.206.404-.206.709v1.873h-.5279v-2.157c0-.223-.0536-.39-.1609-.502-.103-.116-.2575-.174-.4635-.174-.2361 0-.4228.086-.5601.258-.1374.167-.206.403-.206.708v1.867h-.5279v-3.219h.3927l.0644.625c.0772-.219.2038-.391.3798-.515.176-.125.382-.187.618-.187zm3.886-1.288c.1073 0 .1974.037.2704.11.0729.073.1094.165.1094.277 0 .111-.0365.203-.1094.276-.073.073-.1631.11-.2704.11s-.1974-.037-.2704-.11c-.0729-.073-.1094-.165-.1094-.276 0-.112.0365-.204.1094-.277.073-.073.1631-.11.2704-.11zm-.2639 4.584v-3.219h.5278v3.219zm1.2734-3.219h.3927l.0644.625c.0901-.224.2296-.395.4184-.515.1889-.125.4099-.187.6631-.187.3004 0 .5408.094.721.283.1803.185.2704.436.2704.753v2.26h-.5279v-2.15c0-.219-.0558-.387-.1673-.502-.1073-.121-.2618-.181-.4636-.181-.266 0-.4742.084-.6244.251-.1459.168-.2189.406-.2189.715v1.867h-.5279zm4.1037 2.884c.2404 0 .4335-.077.5794-.232.146-.154.2189-.367.2189-.637v-.27c-.0558-.005-.1094-.007-.1609-.007-.0515-.004-.0987-.006-.1417-.006-.3691 0-.6437.053-.824.161-.1802.103-.2704.259-.2704.47 0 .163.0537.292.161.386.1073.09.2532.135.4377.135zm.1932-2.961c.3562 0 .6287.086.8176.257.1888.168.2832.412.2832.734v1.674c0 .094.0193.165.058.212.0386.048.0987.071.1802.071.0343 0 .0708-.006.1094-.019.0387-.013.0687-.03.0902-.052l.0322.393c-.0387.026-.0923.047-.161.065-.0644.017-.1287.025-.1931.025-.1202 0-.2253-.023-.3155-.071-.0858-.051-.1523-.124-.1995-.218-.0172-.035-.0344-.071-.0515-.11-.0129-.043-.0236-.09-.0322-.141-.0601.167-.176.3-.3476.399-.1717.098-.367.148-.5859.148-.3004 0-.5429-.082-.7274-.245-.1803-.167-.2704-.388-.2704-.663 0-.335.1373-.592.412-.772.279-.181.6802-.271 1.2038-.271.0258 0 .058.002.0966.007.0429 0 .1116.002.206.006v-.38c0-.197-.0558-.35-.1674-.457-.1073-.107-.2639-.161-.4699-.161-.1974 0-.3498.05-.4571.148-.1073.099-.1652.243-.1738.432l-.515-.091c.0343-.283.1566-.506.3669-.669.2146-.167.485-.251.8112-.251zm2.9333 2.794h.0129l.9077-2.717h.5279l-1.2232 3.393c-.1545.425-.3176.727-.4893.907-.1716.181-.3884.271-.6502.271-.0772 0-.1545-.011-.2317-.032-.0773-.022-.1502-.052-.2189-.09l.0773-.438c.0858.051.1523.083.1995.096.0515.018.1052.026.161.026.1588 0 .2832-.051.3734-.154.0901-.103.1909-.312.3025-.625l-1.1974-3.354h.5601zm5.7611-.638c0 .365-.1373.659-.412.882-.2747.224-.6287.335-1.0622.335-.4421 0-.809-.111-1.1009-.335-.2918-.227-.4656-.536-.5214-.927l.4957-.154c.0386.296.1609.532.3669.708.2103.176.4636.264.7597.264.2875 0 .5172-.067.6888-.2.176-.137.264-.321.264-.553 0-.125-.0301-.232-.0902-.322-.06-.095-.1523-.176-.2768-.245-.0644-.034-.1416-.068-.2317-.103-.0902-.034-.2361-.079-.4378-.135-.2747-.077-.4764-.142-.6051-.193-.1245-.052-.2318-.11-.3219-.174-.1417-.103-.2468-.225-.3155-.367-.0686-.146-.103-.313-.103-.502 0-.356.1331-.648.3992-.875.2703-.228.6115-.342 1.0236-.342.4248 0 .7617.099 1.0107.296.2532.198.4013.483.4442.857l-.5022.109c-.03-.249-.1309-.446-.3025-.592-.1674-.15-.382-.225-.6438-.225-.2704 0-.4893.068-.6567.206-.1673.137-.251.317-.251.54 0 .125.0279.232.0837.322.0601.09.1523.17.2768.238.0644.035.1416.069.2317.103.0902.03.2339.071.4314.123.2789.077.4828.143.6115.199.1288.052.2382.11.3284.174.1416.103.2467.228.3154.373.0687.146.103.318.103.515zm1.7217 1.217c-.4421 0-.7919-.15-1.0494-.45-.2575-.301-.3863-.713-.3863-1.236 0-.52.1288-.93.3863-1.23.2575-.305.6073-.457 1.0494-.457.3218 0 .5901.09.8047.27s.339.419.3733.715l-.4828.09c-.0171-.193-.0901-.35-.2189-.47-.1244-.124-.2832-.187-.4763-.187-.2833 0-.5043.112-.6631.335s-.2382.534-.2382.934c0 .399.0794.71.2382.933s.3798.335.6631.335c.1974 0 .3583-.06.4828-.181.1244-.124.1953-.287.2124-.489l.4828.09c-.0472.314-.1738.558-.3798.734s-.4721.264-.7982.264zm2.8453-3.373c.442 0 .7918.15 1.0493.45.2618.301.3927.713.3927 1.237 0 .523-.1309.935-.3927 1.236-.2575.3-.6073.45-1.0493.45-.4421 0-.794-.15-1.0558-.45-.2575-.301-.3863-.713-.3863-1.236 0-.524.1288-.936.3863-1.237.2618-.3.6137-.45 1.0558-.45zm0 2.961c.2961 0 .5214-.107.6759-.322.1545-.219.2318-.536.2318-.952 0-.417-.0773-.732-.2318-.947-.1545-.219-.3798-.328-.6759-.328-.2962 0-.5215.109-.676.328-.1545.215-.2318.53-.2318.947 0 .416.0773.733.2318.952.1545.215.3798.322.676.322zm3.0177-.032c.0987 0 .1867-.011.2639-.032.0773-.026.1653-.071.264-.135l.0965.418c-.0944.06-.2017.107-.3219.142-.1158.034-.2296.051-.3412.051-.309 0-.5472-.075-.7145-.225-.1631-.155-.2447-.376-.2447-.663v-2.002h-.4635v-.406h.4635v-.682l.5279-.084v.766h.9657v.406h-.9657v1.95c0 .163.0386.288.1159.374.0815.081.1996.122.3541.122z" fill="#fff"/><path d="m132.206 147.775v.541h-1.3v1.3h-.535v-1.3h-1.307v-.541h1.307v-1.301h.535v1.301zm4.729.92.56.374c-.047.347-.174.605-.38.772-.206.163-.502.245-.888.245h-2.118v-.676c.193 0 .345-.054.457-.161.116-.112.174-.26.174-.444 0-.069-.007-.137-.02-.206-.008-.073-.023-.146-.045-.219h-.521v-.496h.322c-.065-.159-.11-.296-.136-.412-.025-.116-.038-.232-.038-.347 0-.408.141-.745.425-1.011.287-.27.652-.406 1.094-.406.421 0 .755.118 1.004.354.254.236.38.541.38.915 0 .115-.017.231-.051.347-.035.112-.086.219-.155.322l-.637-.257c.039-.069.066-.136.084-.2.021-.064.032-.133.032-.206 0-.197-.06-.354-.18-.47-.116-.12-.273-.18-.47-.18-.219 0-.395.073-.528.219s-.2.337-.2.573c0 .124.011.244.032.36.026.112.071.245.135.399h.889v.496h-.728c.013.056.022.114.026.174s.007.12.007.18c0 .129-.048.26-.142.393-.09.128-.202.223-.335.283h1.191c.253 0 .438-.054.554-.161.12-.112.189-.296.206-.554zm1.825.702h1.932v.689h-3.019v-.592c.54-.417.866-.67.978-.76.116-.094.219-.18.309-.257.292-.258.5-.494.625-.709.128-.214.193-.433.193-.656 0-.236-.063-.421-.187-.554-.12-.133-.29-.199-.509-.199-.197 0-.358.064-.482.193-.121.124-.181.287-.181.489 0 .073.009.144.026.212.022.065.056.133.103.206l-.669.271c-.073-.099-.129-.208-.168-.329-.034-.12-.051-.255-.051-.405 0-.361.135-.665.405-.914.271-.249.618-.374 1.043-.374.451 0 .807.125 1.069.374.266.249.399.586.399 1.01 0 .374-.148.749-.444 1.127s-.753.77-1.372 1.178zm2.883-.296c.176 0 .32.066.431.2.116.133.174.304.174.515 0 .356-.107.65-.322.882-.214.231-.493.347-.837.347v-.367c.194-.013.352-.079.477-.199.129-.121.193-.262.193-.425 0-.022-.002-.041-.007-.058-.004-.017-.008-.03-.012-.039-.022.013-.048.024-.078.032-.025.005-.049.007-.07.007-.121 0-.222-.039-.303-.116-.077-.082-.116-.187-.116-.316 0-.137.045-.248.135-.334s.202-.129.335-.129zm3.902-2.227c0 .266-.073.489-.219.669-.146.176-.345.285-.598.328v.013c.279.03.504.138.676.322.171.185.257.412.257.683 0 .381-.144.691-.431.927-.283.231-.653.347-1.107.347-.417 0-.769-.103-1.056-.309-.284-.206-.451-.474-.502-.805l.688-.263c.048.24.144.427.29.56.15.128.341.193.573.193.236 0 .425-.062.567-.187.141-.124.212-.294.212-.509 0-.206-.073-.366-.219-.482-.141-.116-.337-.174-.586-.174h-.437v-.573h.405c.236 0 .414-.058.534-.174.125-.116.187-.283.187-.502 0-.172-.06-.311-.18-.419-.12-.111-.277-.167-.47-.167-.202 0-.369.062-.502.187-.133.12-.219.292-.258.515l-.676-.271c.082-.33.251-.592.509-.785.262-.193.579-.29.953-.29.429 0 .768.105 1.017.316.249.21.373.493.373.85zm1.513 2.523h1.931v.689h-3.019v-.592c.541-.417.867-.67.979-.76.116-.094.219-.18.309-.257.291-.258.5-.494.624-.709.129-.214.193-.433.193-.656 0-.236-.062-.421-.186-.554-.121-.133-.29-.199-.509-.199-.197 0-.358.064-.483.193-.12.124-.18.287-.18.489 0 .073.008.144.026.212.021.065.055.133.103.206l-.67.271c-.073-.099-.129-.208-.167-.329-.035-.12-.052-.255-.052-.405 0-.361.135-.665.406-.914.27-.249.618-.374 1.043-.374.45 0 .807.125 1.068.374.266.249.399.586.399 1.01 0 .374-.148.749-.444 1.127s-.753.77-1.371 1.178zm2.177-1.461c0-.67.153-1.208.457-1.616.305-.408.717-.612 1.236-.612.52 0 .932.204 1.236.612.305.408.458.946.458 1.616 0 .669-.155 1.208-.464 1.616-.305.407-.715.611-1.23.611s-.927-.204-1.236-.611c-.304-.408-.457-.947-.457-1.616zm.805 0c0 .498.075.882.225 1.152.155.266.376.399.663.399.292 0 .513-.133.664-.399.154-.27.231-.654.231-1.152s-.077-.88-.231-1.146c-.151-.271-.372-.406-.664-.406-.287 0-.508.135-.663.406-.15.266-.225.648-.225 1.146zm3.393 1.165c.146 0 .268.049.367.148.098.099.148.221.148.367s-.05.27-.148.373c-.099.099-.221.148-.367.148s-.269-.049-.367-.148c-.099-.103-.148-.227-.148-.373s.049-.268.148-.367c.098-.099.221-.148.367-.148zm.804-1.165c0-.67.152-1.208.457-1.616s.717-.612 1.236-.612.931.204 1.236.612.457.946.457 1.616c0 .669-.154 1.208-.463 1.616-.305.407-.715.611-1.23.611s-.927-.204-1.236-.611c-.305-.408-.457-.947-.457-1.616zm.805 0c0 .498.075.882.225 1.152.154.266.375.399.663.399.292 0 .513-.133.663-.399.155-.27.232-.654.232-1.152s-.077-.88-.232-1.146c-.15-.271-.371-.406-.663-.406-.288 0-.509.135-.663.406-.15.266-.225.648-.225 1.146zm2.931 0c0-.67.152-1.208.457-1.616s.717-.612 1.236-.612.931.204 1.236.612.457.946.457 1.616c0 .669-.154 1.208-.463 1.616-.305.407-.715.611-1.23.611s-.927-.204-1.236-.611c-.305-.408-.457-.947-.457-1.616zm.805 0c0 .498.075.882.225 1.152.154.266.376.399.663.399.292 0 .513-.133.663-.399.155-.27.232-.654.232-1.152s-.077-.88-.232-1.146c-.15-.271-.371-.406-.663-.406-.287 0-.509.135-.663.406-.15.266-.225.648-.225 1.146z" fill="#fff"/><rect fill="#fff" height="11.036" rx="5.51802" width="11.036" x="11.2656" y="162.597"/><path d="m18.0098 166.889-2.4525 2.452" stroke="#24201e" stroke-linecap="round" stroke-linejoin="round" stroke-width=".306557"/><path d="m15.5572 167.195v2.146h2.1459" stroke="#24201e" stroke-linecap="round" stroke-linejoin="round" stroke-width=".306557"/><g clip-path="url(#c)" clip-rule="evenodd" fill-rule="evenodd"><path d="m21.4004 172.739h4.8053v.26h-4.8053zm0 .519h4.8053v.26h-4.8053zm0 .518h4.8053v.26h-4.8053zm0 .519h4.8053v.26h-4.8053zm0 .52h4.8053v.258h-4.8053zm0 .517h4.8053v.26h-4.8053zm0 .519h4.8053v.26h-4.8053z" fill="#bd3d44"/><path d="m21.4004 172.999h4.8053v.259h-4.8053zm0 .518h4.8053v.259h-4.8053zm0 .518h4.8053v.26h-4.8053zm0 .52h4.8053v.26h-4.8053zm0 .518h4.8053v.26h-4.8053zm0 .519h4.8053v.259h-4.8053z" fill="#fff"/><path d="m21.4004 172.739h1.9221v1.816h-1.9221z" fill="#192f5d"/><path d="m21.5606 172.816.0179.072h.0559l-.0453.045.0174.072-.0459-.045-.0453.044.0169-.071-.0459-.045h.0575zm.3204 0 .0174.072h.0569l-.0459.045.0169.072-.0453-.045-.0459.044.0174-.071-.0453-.045h.0559zm.3203 0 .0174.072h.0564l-.0453.045.0174.072-.0459-.045-.0458.044.0174-.071-.0459-.045h.0569zm.3204 0 .0174.072h.0569l-.0459.045.0174.072-.0458-.045-.0459.044.0179-.071-.0463-.045h.0564zm.3203 0 .0174.072h.0564l-.0453.045.0174.072-.0459-.045-.0458.044.0174-.071-.0453-.045h.0563zm.3204 0 .0174.072h.0569l-.0464.045.0179.072-.0458-.045-.0459.044.018-.071-.0464-.045h.0569zm-1.4416.183.0174.071h.0574l-.0458.044.0168.072-.0448-.044-.0458.044.0163-.072-.0442-.044h.0564zm.3203 0 .018.071h.0563l-.0463.044.0179.072-.0459-.044-.0458.044.0174-.072-.0458-.044h.0569zm.3204 0 .0174.071h.0569l-.0458.044.0173.072-.0458-.044-.0458.044.0173-.072-.0453-.044h.0559zm.3204 0 .0179.071h.0563l-.0463.044.0179.072-.0458-.044-.0454.044.0169-.072-.0458-.044h.0574zm.3203 0 .0174.071h.0569l-.0458.044.0173.072-.0458-.044-.0458.044.0174-.072-.0454-.044h.0564zm-1.4416.179.0179.073h.0559l-.0453.045.0174.071-.0459-.044-.0453.044.0169-.071-.0459-.045h.0575zm.3204 0 .0174.073h.0569l-.0459.045.0169.071-.0453-.044-.0459.044.0174-.072-.0453-.044h.0559zm.3203 0 .0174.073h.0564l-.0453.044.0174.072-.0459-.045-.0458.045.0174-.073-.0459-.044h.0569zm.3204 0 .0174.073h.0569l-.0459.044.0174.072-.0458-.045-.0459.045.0179-.073-.0463-.044h.0564zm.3203 0 .0174.073h.0564l-.0453.044.0174.072-.0459-.045-.0458.045.0174-.073-.0453-.044h.0563zm.3204 0 .0174.073h.0569l-.0464.044.0179.072-.0458-.045-.0459.045.018-.073-.0464-.044h.0569zm-1.4416.183.0174.072h.0574l-.0458.044.0174.072-.0459-.045-.0458.045.0174-.072-.0453-.044h.0563zm.3203 0 .018.072h.0563l-.0463.044.0179.072-.0459-.045-.0458.045.0174-.072-.0458-.044h.0569zm.3204 0 .0174.072h.0569l-.0458.044.0173.072-.0458-.045-.0458.045.0173-.072-.0453-.044h.0559zm.3204 0 .0179.072h.0563l-.0458.044.0174.072-.0458-.045-.0454.045.0169-.072-.0458-.044h.0574zm.3203 0 .0174.072h.0569l-.0458.044.0173.072-.0458-.045-.0458.045.0174-.072-.0454-.044h.0564zm-1.4416.182.0179.072h.0559l-.0453.044.0174.072-.0459-.045-.0453.045.0169-.072-.0459-.044h.0575zm.3204 0 .0174.072h.0569l-.0459.044.0169.072-.0453-.045-.0459.045.0174-.072-.0453-.044h.0559zm.3203 0 .0174.072h.0564l-.0453.044.0174.072-.0459-.045-.0458.045.0174-.072-.0459-.044h.0569zm.3204 0 .0174.072h.0569l-.0459.044.0174.072-.0458-.045-.0459.045.0179-.072-.0463-.044h.0564zm.3203 0 .0174.072h.0564l-.0453.044.0174.072-.0459-.045-.0458.045.0174-.072-.0453-.044h.0563zm.3204 0 .0174.072h.0569l-.0464.044.0179.072-.0458-.045-.0459.045.0174-.072-.0463-.044h.0569zm-1.4416.181.0174.073h.0574l-.0458.043.0174.073-.0459-.045-.0458.045.0174-.073-.0453-.044h.0563zm.3203 0 .018.073h.0563l-.0463.043.0179.073-.0459-.045-.0458.045.0174-.073-.0458-.044h.0569zm.3204 0 .0174.073h.0569l-.0458.043.0173.073-.0458-.045-.0458.045.0173-.073-.0453-.044h.0559zm.3204 0 .0179.073h.0563l-.0458.043.0174.073-.0458-.045-.0454.045.0169-.073-.0458-.044h.0574zm.3203 0 .0174.073h.0569l-.0458.043.0173.073-.0458-.045-.0458.045.0174-.073-.0454-.044h.0564zm-1.4416.182.0179.072h.0559l-.0453.044.0174.071-.0459-.043-.0453.043.0169-.072-.0459-.044h.0575zm.3204 0 .0174.072h.0569l-.0459.044.0174.071-.0458-.043-.0459.043.0179-.072-.0458-.044h.0559zm.3203 0 .0174.072h.0564l-.0453.044.0174.071-.0459-.043-.0458.043.0174-.072-.0459-.044h.0569zm.3204 0 .0174.072h.0569l-.0459.044.0174.071-.0458-.043-.0459.043.0179-.072-.0463-.044h.0564zm.3203 0 .0174.072h.0564l-.0453.044.0174.071-.0459-.043-.0458.043.0174-.072-.0453-.044h.0563zm.3204 0 .0174.072h.0569l-.0464.044.0179.071-.0458-.043-.0459.043.018-.072-.0464-.044h.0569zm-1.4416.181.0174.072h.0574l-.0458.044.0174.073-.0459-.045-.0458.044.0174-.072-.0453-.044h.0563zm.3203 0 .018.072h.0563l-.0463.044.0179.073-.0459-.045-.0458.044.0174-.072-.0458-.044h.0569zm.3204 0 .0174.072h.0569l-.0458.044.0173.073-.0458-.045-.0458.044.0173-.072-.0453-.044h.0559zm.3204 0 .0179.072h.0563l-.0458.044.0174.073-.0458-.045-.0454.044.0169-.072-.0458-.044h.0574zm.3203 0 .0174.072h.0569l-.0458.044.0173.073-.0458-.045-.0458.044.0174-.072-.0454-.044h.0564zm-1.4416.182.0179.072h.0559l-.0453.044.0174.072-.0459-.044-.0453.044.0169-.072-.0459-.045h.0575zm.3204 0 .0174.072h.0569l-.0459.044.0174.072-.0458-.044-.0459.044.0179-.072-.0458-.045h.0559zm.3203 0 .0174.072h.0564l-.0443.044.0174.072-.0458-.044-.0459.044.0174-.072-.0458-.045h.0569zm.3204 0 .0174.072h.0569l-.0459.044.0174.072-.0458-.044-.0459.044.0179-.072-.0463-.045h.0564zm.3203 0 .0174.072h.0564l-.0453.044.0174.072-.0459-.044-.0458.044.0174-.072-.0453-.045h.0563zm.3204 0 .0174.072h.0569l-.0464.044.0179.072-.0458-.044-.0459.044.018-.072-.0464-.045h.0569z" fill="#fff"/></g><rect height="3.52199" rx="1.761" stroke="#fff" stroke-width=".149872" width="3.52199" x="21.3255" y="172.664"/><path d="m29.0912 167.037c0-.254-.073-.445-.219-.573-.1417-.129-.3542-.194-.6376-.194h-1.1142v1.565h1.1206c.2834 0 .4959-.066.6376-.199s.2126-.333.2126-.599zm.7599 3.078h-.586c-.043-.051-.0795-.107-.1095-.167-.0258-.06-.0473-.133-.0644-.219l-.1868-.786c-.0558-.236-.1503-.404-.2834-.502-.1288-.099-.3306-.148-.6054-.148h-.8952v1.822h-.541v-4.302h1.6681c.468 0 .8222.103 1.0626.309.2405.202.3607.498.3607.889 0 .309-.0966.565-.2898.766-.1889.202-.4294.307-.7213.316v.013c.2146.026.3821.094.5023.206s.2061.277.2576.496l.2126.869c.0171.073.045.148.0837.226.0386.073.0837.144.1352.212zm1.7359-3.297c.4422 0 .7922.15 1.0498.451.2619.3.3928.712.3928 1.236s-.1309.936-.3928 1.237c-.2576.3-.6076.451-1.0498.451s-.7943-.151-1.0562-.451c-.2576-.301-.3864-.713-.3864-1.237s.1288-.936.3864-1.236c.2619-.301.614-.451 1.0562-.451zm0 2.962c.2963 0 .5217-.107.6762-.322.1546-.219.2319-.536.2319-.953 0-.416-.0773-.732-.2319-.947-.1545-.219-.3799-.328-.6762-.328s-.5217.109-.6762.328c-.1546.215-.2319.531-.2319.947 0 .417.0773.734.2319.953.1545.215.3799.322.6762.322zm2.0207-4.315h.5281v1.958c.0601-.18.1782-.326.3542-.438.1761-.111.3736-.167.5926-.167.425 0 .7556.15.9918.451.2404.3.3606.712.3606 1.236 0 .498-.1266.904-.3799 1.217-.2534.314-.5883.471-1.0047.471-.2491 0-.4616-.063-.6376-.187-.1718-.125-.2834-.292-.3349-.503l-.0516.612h-.4186zm1.3654 1.778c-.2448 0-.4466.094-.6054.283-.1546.185-.2319.438-.2319.76v.477c0 .317.0752.567.2254.747.1546.176.3586.264.6119.264.2876 0 .5131-.112.6762-.335.1675-.223.2512-.535.2512-.934 0-.412-.0794-.725-.2383-.94s-.3886-.322-.6891-.322zm3.278 2.531c.2018 0 .3671-.049.4959-.148s.2168-.245.2641-.438l.4572.129c-.0687.283-.2082.5-.4186.65s-.4766.226-.7986.226c-.4508 0-.8029-.146-1.0562-.438s-.38-.705-.38-1.237c0-.519.1288-.932.3864-1.237.2619-.309.6119-.463 1.0498-.463.3821 0 .6848.124.9081.373.2276.245.3413.571.3413.979 0 .082-.0064.161-.0193.239-.0129.077-.0279.141-.0451.193h-2.1124c.0129.373.0988.663.2576.869.1632.202.3864.303.6698.303zm-.0129-2.55c-.2533 0-.4594.085-.6182.257-.1546.172-.2491.417-.2834.734h1.6358c.0043-.021.0065-.043.0065-.064 0-.026 0-.06 0-.103 0-.245-.0687-.442-.2061-.593-.1331-.154-.3113-.231-.5346-.231zm1.8325 2.891v-3.22h.4186l.0709.824c.0601-.27.1846-.487.3735-.65.1889-.168.4058-.251.6505-.251.0301 0 .0601.002.0902.006.0343.005.0665.009.0966.013l-.0322.554c-.0258-.004-.0623-.009-.1095-.013s-.0966-.006-.1481-.006c-.2662 0-.4809.101-.6441.302-.1588.202-.2383.473-.2383.812v1.629zm3.1558-.367c.0987 0 .1868-.011.264-.032.0773-.026.1654-.071.2641-.135l.0966.418c-.0945.06-.2018.108-.322.142-.1159.034-.2297.052-.3413.052-.3092 0-.5475-.076-.7149-.226-.1632-.154-.2448-.376-.2448-.663v-2.003h-.4637v-.406h.4637v-.683l.5281-.083v.766h.9661v.406h-.9661v1.951c0 .163.0387.288.116.374.0816.081.1996.122.3542.122zm3.9725.445c-.5539 0-1.0004-.202-1.3396-.606-.3392-.403-.5088-.944-.5088-1.623 0-.678.1696-1.219.5088-1.623.3392-.403.7857-.605 1.3396-.605.3778 0 .6913.084.9403.251.249.163.4401.412.5732.747l-.4637.264c-.073-.258-.2018-.455-.3865-.592-.1803-.138-.4014-.207-.6633-.207-.395 0-.7063.157-.9339.471-.2232.313-.3349.745-.3349 1.294 0 .55.1117.981.3349 1.295.2276.313.5389.47.9339.47.2619 0 .483-.069.6633-.206.1847-.142.3135-.339.3865-.593l.4637.258c-.1331.339-.3242.592-.5732.76-.249.163-.5625.245-.9403.245zm2.0366-4.728h.5282v1.939c.0987-.189.234-.333.4057-.432.176-.103.3778-.154.6054-.154.3005 0 .541.094.7213.283.1803.185.2705.436.2705.754v2.26h-.5281v-2.151c0-.219-.0558-.386-.1674-.502-.1074-.12-.262-.181-.4638-.181-.2662 0-.4744.084-.6247.252-.146.167-.2189.405-.2189.715v1.867h-.5282zm4.1699 4.315c.2404 0 .4336-.077.5796-.232.146-.154.219-.367.219-.637v-.271c-.0558-.004-.1095-.006-.161-.006-.0515-.004-.0988-.006-.1417-.006-.3693 0-.644.053-.8244.161-.1803.103-.2705.259-.2705.47 0 .163.0537.292.161.386.1074.09.2534.135.438.135zm.1932-2.962c.3564 0 .629.086.8179.257.1889.168.2834.413.2834.735v1.674c0 .095.0193.165.058.213.0386.047.0987.07.1803.07.0343 0 .0708-.006.1095-.019.0386-.013.0687-.03.0901-.051l.0322.392c-.0386.026-.0923.048-.161.065-.0644.017-.1288.026-.1932.026-.1202 0-.2254-.024-.3156-.071-.0858-.052-.1524-.125-.1996-.219-.0172-.035-.0344-.071-.0515-.11-.0129-.043-.0236-.09-.0322-.141-.0601.167-.1761.3-.3478.399-.1718.099-.3671.148-.5861.148-.3005 0-.5431-.081-.7277-.245-.1804-.167-.2705-.388-.2705-.663 0-.335.1374-.593.4121-.773.2791-.18.6806-.27 1.2044-.27.0257 0 .058.002.0966.006.0429 0 .1116.002.2061.007v-.38c0-.198-.0558-.35-.1675-.458-.1073-.107-.264-.161-.4701-.161-.1975 0-.3499.05-.4573.148-.1073.099-.1653.243-.1739.432l-.5152-.09c.0344-.284.1567-.507.3671-.67.2147-.168.4852-.251.8115-.251zm1.9742 3.297v-3.22h.4186l.0708.824c.0601-.27.1847-.487.3736-.65.1889-.168.4057-.251.6504-.251.0301 0 .0602.002.0902.006.0344.005.0666.009.0966.013l-.0322.554c-.0257-.004-.0622-.009-.1095-.013-.0472-.004-.0966-.006-.1481-.006-.2662 0-.4809.101-.644.302-.1589.202-.2383.473-.2383.812v1.629zm2.8595-.367c.0515 0 .1009-.006.1481-.019.0515-.017.0988-.041.1417-.071l.058.406c-.0601.034-.1353.062-.2255.083-.0901.022-.1781.033-.264.033-.2233 0-.3929-.056-.5088-.168-.1116-.116-.1674-.283-.1674-.502v-4.045h.5281v3.987c0 .103.0236.178.0708.225.0472.048.1202.071.219.071zm1.9964.026c.2018 0 .3671-.049.496-.148.1288-.099.2168-.245.264-.438l.4573.129c-.0687.283-.2083.5-.4187.65-.2103.15-.4765.226-.7986.226-.4508 0-.8029-.146-1.0562-.438s-.38-.705-.38-1.237c0-.519.1289-.932.3865-1.237.2619-.309.6118-.463 1.0497-.463.3822 0 .6849.124.9081.373.2276.245.3414.571.3414.979 0 .082-.0065.161-.0193.239-.0129.077-.028.141-.0451.193h-2.1125c.0129.373.0988.663.2576.869.1632.202.3865.303.6698.303zm-.0128-2.55c-.2534 0-.4594.085-.6183.257-.1546.172-.249.417-.2834.734h1.6359c.0043-.021.0064-.043.0064-.064 0-.026 0-.06 0-.103 0-.245-.0687-.442-.2061-.593-.1331-.154-.3113-.231-.5345-.231zm2.7856 2.969c-.3435 0-.6311-.08-.863-.239-.2275-.159-.3649-.375-.4122-.65l.4831-.135c.0257.18.1116.328.2576.444.1502.116.3284.174.5345.174.2233 0 .395-.043.5152-.129.1246-.09.1868-.217.1868-.38 0-.137-.0494-.247-.1481-.328-.0945-.082-.3049-.159-.6312-.232-.2146-.048-.3735-.09-.4766-.129-.0987-.039-.1846-.082-.2576-.129-.1073-.077-.1889-.172-.2447-.283-.0515-.112-.0773-.243-.0773-.393 0-.292.1031-.526.3092-.702.2103-.176.483-.264.8179-.264.3521 0 .6247.077.8179.232.1975.15.3134.371.3478.663l-.4959.071c-.0172-.181-.0837-.318-.1997-.412-.1116-.099-.2683-.148-.4701-.148-.1975 0-.3521.047-.4637.141-.1117.09-.1675.217-.1675.38 0 .133.0473.241.1417.322.0945.077.3027.15.6247.219.219.047.38.09.4831.129.103.034.191.077.264.129.1073.077.1868.174.2383.29.0558.111.0837.246.0837.405 0 .292-.1095.524-.3284.696-.219.172-.5088.258-.8695.258z" fill="#fff"/><path d="m131.116 167.803v.541h-1.301v1.301h-.535v-1.301h-1.307v-.541h1.307v-1.301h.535v1.301zm2.702-.786c0 .138.047.249.142.335.094.086.257.157.489.213v-1.147c-.193.026-.348.093-.464.2-.111.107-.167.241-.167.399zm1.687 1.875c0-.134-.047-.243-.141-.329-.095-.086-.256-.157-.483-.212v1.146c.201-.03.356-.097.463-.2.108-.107.161-.242.161-.405zm-.624 1.217v.682h-.432v-.676c-.408-.026-.745-.137-1.011-.335-.266-.201-.434-.468-.502-.798l.676-.271c.034.224.124.404.27.541.146.138.335.221.567.251v-1.249c-.249-.052-.442-.101-.58-.148-.137-.047-.253-.105-.347-.174-.142-.095-.247-.213-.316-.354-.069-.142-.103-.309-.103-.503 0-.343.125-.629.374-.856.249-.232.573-.367.972-.406v-.599h.432v.606c.373.03.671.139.895.328.227.189.369.447.425.773l-.696.18c-.021-.172-.088-.315-.199-.431-.108-.116-.249-.196-.425-.239v1.224c.253.052.448.103.586.155.137.047.253.103.347.167.138.099.241.221.31.367.068.142.103.309.103.502 0 .348-.123.636-.368.863-.244.224-.571.357-.978.4zm4.335.006h-.773v-1.204h-1.919v-.618l1.913-2.48h.779v2.512h.825v.586h-.825zm-.773-3.4h-.025l-1.198 1.584v.026h1.223zm2.378 2.415c.176 0 .319.066.431.2.116.133.174.304.174.515 0 .356-.107.65-.322.882s-.494.348-.837.348v-.367c.193-.013.352-.08.476-.2.129-.12.194-.262.194-.425 0-.021-.003-.041-.007-.058s-.008-.03-.013-.039c-.021.013-.047.024-.077.033-.026.004-.049.006-.071.006-.12 0-.221-.039-.303-.116-.077-.081-.116-.187-.116-.315 0-.138.046-.249.136-.335s.202-.129.335-.129zm4.24-.168c0 .374-.146.672-.438.896-.288.223-.674.335-1.159.335s-.872-.112-1.16-.335c-.287-.224-.431-.522-.431-.896 0-.249.079-.47.238-.663s.367-.322.625-.386v-.013c-.228-.073-.406-.196-.535-.367-.124-.176-.186-.387-.186-.632 0-.347.133-.629.399-.843.266-.215.616-.322 1.05-.322.438 0 .79.107 1.056.322.266.214.399.496.399.843 0 .245-.064.456-.193.632-.125.171-.301.294-.528.367v.013c.257.064.466.193.625.386.158.193.238.414.238.663zm-2.293-2.003c0 .207.062.368.187.483.124.112.294.168.509.168.214 0 .384-.058.508-.174.129-.116.194-.275.194-.477 0-.206-.063-.364-.187-.476-.125-.112-.296-.168-.515-.168s-.391.056-.516.168c-.12.112-.18.27-.18.476zm1.501 1.945c0-.214-.073-.384-.219-.508-.142-.125-.337-.187-.586-.187-.245 0-.44.062-.586.187-.142.124-.213.294-.213.508 0 .215.071.385.213.509.141.12.337.181.586.181s.444-.061.586-.181c.146-.124.219-.294.219-.509zm3.021-3.168c.322 0 .597.071.825.212.227.138.397.337.509.599l-.567.374c-.065-.172-.166-.305-.303-.399-.133-.099-.29-.149-.47-.149-.331 0-.595.146-.792.438-.193.288-.29.672-.29 1.153v.11h.019c.078-.215.213-.387.406-.516.198-.128.419-.193.663-.193.404 0 .728.129.973.387.249.253.373.581.373.985 0 .429-.137.779-.412 1.05-.275.27-.633.406-1.075.406-.284 0-.535-.058-.754-.174s-.403-.286-.554-.509c-.124-.185-.219-.397-.283-.638-.064-.244-.097-.511-.097-.798 0-.705.166-1.269.496-1.694.335-.43.779-.644 1.333-.644zm-.174 3.825c.232 0 .421-.073.567-.219s.219-.337.219-.573-.073-.427-.219-.573-.335-.219-.567-.219c-.223 0-.407.073-.553.219-.142.146-.213.337-.213.573s.071.427.213.573c.146.146.33.219.553.219zm1.921-1.597c0-.67.152-1.208.457-1.616s.717-.612 1.237-.612c.519 0 .931.204 1.236.612s.458.946.458 1.616-.155 1.209-.464 1.617c-.305.408-.715.612-1.23.612s-.928-.204-1.237-.612c-.305-.408-.457-.947-.457-1.617zm.805 0c0 .498.075.882.225 1.153.155.266.376.399.664.399.292 0 .513-.133.663-.399.155-.271.232-.655.232-1.153s-.077-.88-.232-1.146c-.15-.271-.371-.406-.663-.406-.288 0-.509.135-.664.406-.15.266-.225.648-.225 1.146zm3.459 1.166c.146 0 .268.049.367.148.098.099.148.221.148.367s-.05.271-.148.374c-.099.098-.221.148-.367.148s-.269-.05-.368-.148c-.098-.103-.148-.228-.148-.374s.05-.268.148-.367c.099-.099.222-.148.368-.148zm.868-1.166c0-.67.153-1.208.458-1.616.304-.408.717-.612 1.236-.612.52 0 .932.204 1.237.612s.457.946.457 1.616-.155 1.209-.464 1.617c-.305.408-.715.612-1.23.612s-.927-.204-1.236-.612c-.305-.408-.458-.947-.458-1.617zm.805 0c0 .498.076.882.226 1.153.154.266.376.399.663.399.292 0 .513-.133.664-.399.154-.271.231-.655.231-1.153s-.077-.88-.231-1.146c-.151-.271-.372-.406-.664-.406-.287 0-.509.135-.663.406-.15.266-.226.648-.226 1.146zm2.997 0c0-.67.153-1.208.458-1.616s.717-.612 1.236-.612c.52 0 .932.204 1.237.612s.457.946.457 1.616-.154 1.209-.464 1.617c-.304.408-.715.612-1.23.612s-.927-.204-1.236-.612c-.305-.408-.458-.947-.458-1.617zm.805 0c0 .498.076.882.226 1.153.154.266.376.399.663.399.292 0 .513-.133.664-.399.154-.271.231-.655.231-1.153s-.077-.88-.231-1.146c-.151-.271-.372-.406-.664-.406-.287 0-.509.135-.663.406-.15.266-.226.648-.226 1.146z" fill="#fff"/><path d="m11.2656 193.866c0-4.063 3.294-7.357 7.3574-7.357h135.191c4.064 0 7.358 3.294 7.358 7.357v12.972c0 4.063-3.294 7.357-7.358 7.357h-135.191c-4.0634 0-7.3574-3.294-7.3574-7.357z" fill="#6b6b6b" fill-opacity=".33"/><path d="m37.0628 195.175-.1744.473c-.0246.066-.088.11-.159.11h-.15c-.0937 0-.1696.076-.1696.17v3.756c0 .094-.0759.17-.1696.17h-2.7111c-.0936 0-.1695-.076-.1695-.17v-2.421c0-.094-.076-.17-.1696-.17h-.6803c-.0936 0-.1695.076-.1695.17v2.421c0 .094-.0759.17-.1696.17h-2.7013c-.0936 0-.1695-.076-.1695-.17v-.449c0-.094.0759-.17.1695-.17h1.9126c.0937 0 .1696-.076.1696-.17v-2.421c0-.093.0759-.169.1695-.169h1.2403c.1695 0 .3588.049.4416.213.0611.126.1085.24.1992.347.0572.069.1202.136.1912.185.0986.071.2031.126.276.229.0671.098.0789.22.0789.341v1.275c0 .094.076.17.1696.17h1.1337c.0937 0 .1696-.076.1696-.17v-3.225c0-.094.0759-.17.1696-.17.0936 0 .1695-.076.1695-.169v-.125c0-.05-.0218-.097-.0596-.129l-3.0411-2.589c-.0631-.054-.1556-.054-.219-.001l-3.0357 2.55c-.0384.032-.0605.08-.0605.13v.164c0 .093.0759.169.1695.169h.1952c.0937 0 .1696.076.1696.17v2.435c0 .093-.0759.169-.1696.169h-.4495c-.0937 0-.1696-.076-.1696-.169v-2.177c0-.094-.0759-.17-.1695-.17h-.4c-.0712 0-.1349-.044-.1593-.111l-.1729-.473c-.0245-.067-.0044-.142.0503-.188l4.0138-3.37c.0307-.025.0696-.039.1097-.039l.3846.001c.04 0 .0787.015.1092.041l3.9579 3.369c.0541.046.0738.121.0491.187z" fill="#f7f7ff"/><path d="m26.9936 207.413v1.665h-.4647v-3.696h.4647v1.627h1.9365v-1.627h.4647v3.696h-.4647v-1.665zm4.1667-1.168c.38 0 .6806.129.9019.388.225.258.3375.612.3375 1.062s-.1125.804-.3375 1.062c-.2213.258-.5219.388-.9019.388-.3799 0-.6823-.13-.9073-.388-.2213-.258-.332-.612-.332-1.062s.1107-.804.332-1.062c.225-.259.5274-.388.9073-.388zm0 2.545c.2546 0 .4482-.092.581-.276.1328-.188.1992-.461.1992-.819s-.0664-.629-.1992-.813c-.1328-.188-.3264-.283-.581-.283-.2545 0-.4481.095-.5809.283-.1328.184-.1992.455-.1992.813s.0664.631.1992.819c.1328.184.3264.276.5809.276zm2.9864-2.545c.1955 0 .3633.052.5035.155.1401.1.236.242.2877.426.0811-.184.1955-.326.343-.426.1475-.103.319-.155.5145-.155.2619 0 .4685.078.6197.233.1549.151.2324.361.2324.63v1.97h-.4537v-1.853c0-.196-.0443-.342-.1328-.437-.0885-.096-.2231-.144-.4039-.144-.2028 0-.3633.072-.4813.215-.1181.144-.1771.347-.1771.609v1.61h-.4537v-1.853c0-.192-.0461-.336-.1383-.432-.0885-.099-.2213-.149-.3983-.149-.2029 0-.3634.073-.4814.221-.118.144-.177.347-.177.609v1.604h-.4537v-2.766h.3375l.0553.536c.0664-.188.1752-.335.3264-.442.1513-.107.3283-.161.5312-.161zm4.2028 2.54c.1734 0 .3154-.043.426-.127.1107-.085.1863-.211.2269-.377l.3928.111c-.059.244-.1789.43-.3596.559s-.4094.194-.6861.194c-.3873 0-.6897-.126-.9073-.377-.2177-.251-.3265-.605-.3265-1.062 0-.446.1107-.8.332-1.062.225-.266.5256-.399.9018-.399.3283 0 .5883.107.7801.321.1955.211.2933.491.2933.841 0 .07-.0056.139-.0166.205-.0111.066-.024.122-.0387.166h-1.8148c.0111.321.0848.57.2213.747.1402.173.332.26.5754.26zm-.011-2.191c-.2177 0-.3947.074-.5312.221-.1328.148-.2139.358-.2434.631h1.4053c.0037-.018.0055-.037.0055-.055 0-.022 0-.052 0-.089 0-.21-.059-.38-.177-.509-.1144-.133-.2674-.199-.4592-.199z" fill="#f7f7ff"/><path d="m69.9783 193.422c-.0766-.108-.1865-.166-.2901-.24-.0746-.052-.1409-.122-.201-.195-.0954-.112-.1451-.232-.2093-.365-.0871-.172-.286-.224-.4642-.224h-6.8223c-.1144 0-.2072.093-.2072.208v6.219c0 .114.0928.207.2072.207h.4145c.1144 0 .2072-.093.2072-.207v-3.33c0-.115.0928-.208.2073-.208h6.2046c.1145 0 .2073.093.2073.208v2.484c0 .115-.0928.208-.2073.208h-5.3715c-.1145 0-.2073.092-.2073.207v.414c0 .115.0928.208.2073.208h6.2005c.1144 0 .2072-.093.2072-.208v-5.027c0-.127-.0124-.255-.0829-.359zm-.9533 1.036h-6.2046c-.1145 0-.2073-.092-.2073-.207v-.816c0-.115.0928-.208.2073-.208h6.2046c.1145 0 .2073.093.2073.208v.816c0 .115-.0928.207-.2073.207z" fill="#f7f7ff"/><path d="m65.3008 196.149h-1.6453c-.1145 0-.2073.093-.2073.208v.414c0 .115.0928.207.2073.207h1.6453c.1145 0 .2073-.092.2073-.207v-.414c0-.115-.0928-.208-.2073-.208z" fill="#f7f7ff"/><path d="m62.5527 209.14c-.4758 0-.8594-.174-1.1508-.52-.2914-.347-.4371-.812-.4371-1.395 0-.582.1457-1.047.4371-1.394s.675-.52 1.1508-.52c.3246 0 .5938.072.8078.216.2139.14.378.354.4924.642l-.3984.226c-.0627-.221-.1734-.391-.332-.509-.1549-.118-.3448-.177-.5698-.177-.3394 0-.6068.135-.8023.404-.1918.269-.2877.64-.2877 1.112s.0959.843.2877 1.112c.1955.27.4629.404.8023.404.225 0 .4149-.059.5698-.177.1586-.121.2693-.291.332-.509l.3984.222c-.1144.291-.2785.509-.4924.652-.214.141-.4832.211-.8078.211zm2.4855-.354c.2065 0 .3725-.067.4979-.2.1254-.132.1881-.315.1881-.547v-.233c-.0479-.003-.094-.005-.1383-.005-.0443-.004-.0848-.006-.1217-.006-.3172 0-.5533.046-.7082.138-.1549.089-.2324.224-.2324.404 0 .141.0461.251.1383.332.0923.078.2177.117.3763.117zm.1659-2.546c.3062 0 .5404.074.7027.222.1623.144.2434.354.2434.631v1.438c0 .081.0166.142.0498.183.0332.04.0849.06.155.06.0295 0 .0608-.005.094-.016s.059-.026.0775-.044l.0276.337c-.0332.022-.0793.041-.1383.055-.0553.015-.1106.023-.166.023-.1032 0-.1936-.021-.2711-.061-.0737-.045-.1309-.107-.1715-.188-.0147-.03-.0295-.061-.0442-.094-.0111-.037-.0203-.078-.0277-.122-.0516.144-.1512.258-.2988.343-.1475.085-.3153.127-.5035.127-.2582 0-.4665-.07-.6252-.21-.1549-.144-.2323-.334-.2323-.57 0-.288.118-.509.3541-.664.2397-.155.5846-.232 1.0346-.232.0221 0 .0498.002.083.005.0369 0 .0959.002.177.006v-.327c0-.169-.0479-.3-.1438-.393-.0922-.092-.2269-.138-.4039-.138-.1697 0-.3006.043-.3928.127-.0923.085-.142.209-.1494.371l-.4426-.077c.0295-.244.1346-.436.3153-.576.1844-.144.4168-.216.6971-.216zm1.696 2.833v-2.766h.3596l.0609.708c.0516-.232.1586-.419.3209-.559.1623-.144.3486-.216.5588-.216.0258 0 .0516.002.0775.006.0295.004.0571.007.0829.011l-.0276.476c-.0221-.004-.0535-.007-.0941-.011-.0405-.004-.083-.006-.1272-.006-.2287 0-.4131.087-.5533.26-.1365.174-.2047.406-.2047.697v1.4zm2.8383-.299c.2176 0 .3947-.077.5311-.232.1365-.159.2047-.374.2047-.647v-.515c0-.236-.07-.424-.2102-.564-.1402-.144-.3135-.216-.5201-.216-.2471 0-.4407.098-.5809.293-.1365.196-.2047.474-.2047.836 0 .332.0682.59.2047.774.1365.181.3283.271.5754.271zm1.1895.299h-.3596l-.0498-.525c-.0627.191-.1715.339-.3264.442-.1549.1-.3431.15-.5644.15-.3356 0-.6086-.126-.8188-.377-.2066-.254-.3098-.597-.3098-1.029 0-.464.1032-.83.3098-1.095.2102-.266.4979-.399.8631-.399.1918 0 .3596.041.5035.122.1438.081.2434.188.2987.321v-1.604h.4537z" fill="#f7f7ff"/><g clip-path="url(#d)"><path d="m95.7177 191.588c.3312-.041.644.032.8993.191.3978.241.6623.678.6623 1.177v1.84h-2.5298c-.1265 0-.23-.103-.23-.23v-1.561c0-.702.5037-1.327 1.1982-1.417zm-.2783 2.288h.92v-.892c0-.23-.1564-.442-.3818-.481-.2875-.048-.5382.173-.5382.453z" fill="#f7f7ff"/><path d="m96.8477 192.037h-1.1017" stroke="#f7f7ff" stroke-miterlimit="10" stroke-width="1.16854"/><g fill="#f7f7ff"><path d="m98.4279 193.417h1.3822c.127 0 .2299.102.2299.229v.46c0 .127-.1029.23-.2299.23h-1.3822c-.127 0-.23-.103-.23-.23v-.46c0-.127.103-.229.23-.229z"/><path d="m98.4279 194.794h1.3822c.127 0 .2299.103.2299.23v.46c0 .127-.1029.23-.2299.23h-1.3822c-.127 0-.23-.103-.23-.23v-.46c0-.127.103-.23.23-.23z"/><path d="m100.957 196.636h.92v.918h-.92z"/><path d="m96.3597 192.037v5.517h.9199v-5.057h3.6774v2.987c0 .127.104.23.23.23h.46c.126 0 .23-.103.23-.23v-2.226c0-.069-.007-.12-.007-.12-.014-.195-.11-.372-.262-.485-.009-.009-.016-.014-.025-.021-.056-.037-.115-.069-.182-.089-.025-.01-.051-.017-.076-.026-.057-.016-.113-.041-.163-.073h-.003c-.135-.083-.236-.219-.282-.375 0-.005 0-.007-.003-.009-.083-.288-.347-.483-.646-.483h-3.4083z"/><path d="m97.2796 196.634v1.828c0 .226.1587.428.3818.465.0276.004.0529.007.0782.007s.0506-.003.0759-.007c.2185-.037.384-.223.384-.453v-1.61c0-.127.1035-.23.23-.23h5.0575c.126 0 .23.103.23.23v1.561c0 .603-.373 1.15-.92 1.348-.088.032-.182.055-.278.069-.063.007-.122.012-.182.012h-4.5974c-.2622 0-.5083-.074-.7176-.203-.0414-.025-.0828-.053-.1219-.083-.3288-.253-.5404-.648-.5404-1.094v-1.84zm3.6774 2.3v-.007h1.302c.027.004.053.007.078.007s.051-.003.076-.007c.218-.037.384-.223.384-.453v-.69c0-.127-.104-.23-.23-.23h-3.2175c-.1265 0-.23.103-.23.23v.915c0 .127.1012.23.23.23l1.6095.005z"/></g></g><path d="m91.59 206.523c0 .365-.1125.649-.3375.852-.225.199-.5441.298-.9572.298h-.769v1.4h-.4648v-3.696h1.2338c.4131 0 .7322.102.9572.305.225.199.3375.479.3375.841zm-.4924 0c0-.259-.0701-.448-.2103-.57-.1364-.126-.3485-.188-.6362-.188h-.7248v1.521h.7248c.2877 0 .4998-.063.6362-.188.1402-.125.2103-.317.2103-.575zm1.6481 2.263c.2066 0 .3726-.067.498-.2.1254-.132.1881-.315.1881-.547v-.233c-.048-.003-.0941-.005-.1383-.005-.0443-.004-.0849-.006-.1218-.006-.3172 0-.5532.046-.7081.138-.155.089-.2324.224-.2324.404 0 .141.0461.251.1383.332.0922.078.2176.117.3762.117zm.166-2.546c.3062 0 .5404.074.7027.222.1623.144.2434.354.2434.631v1.438c0 .081.0166.142.0498.183.0332.04.0848.06.1549.06.0295 0 .0609-.005.0941-.016s.059-.026.0774-.044l.0277.337c-.0332.022-.0793.041-.1383.055-.0553.015-.1107.023-.166.023-.1033 0-.1936-.021-.2711-.061-.0738-.045-.1309-.107-.1715-.188-.0148-.03-.0295-.061-.0443-.094-.011-.037-.0203-.078-.0276-.122-.0517.144-.1513.258-.2988.343-.1476.085-.3154.127-.5035.127-.2582 0-.4666-.07-.6252-.21-.1549-.144-.2324-.334-.2324-.57 0-.288.1181-.509.3541-.664.2398-.155.5847-.232 1.0346-.232.0222 0 .0498.002.083.005.0369 0 .0959.002.1771.006v-.327c0-.169-.048-.3-.1439-.393-.0922-.092-.2268-.138-.4039-.138-.1696 0-.3006.043-.3928.127-.0922.085-.142.209-.1494.371l-.4426-.077c.0295-.244.1346-.436.3154-.576.1844-.144.4168-.216.6971-.216zm2.5763 2.402h.0111l.7801-2.335h.4537l-1.0512 2.916c-.1328.365-.273.625-.4205.78-.1476.155-.3338.232-.5588.232-.0664 0-.1328-.009-.1992-.028-.0664-.018-.1291-.044-.1881-.077l.0664-.376c.0737.044.1309.072.1715.083.0442.015.0904.022.1383.022.1365 0 .2434-.044.3209-.133.0775-.088.1641-.267.26-.537l-1.029-2.882h.4813zm2.8544-2.402c.1955 0 .3633.052.5035.155.1401.1.236.242.2877.426.0811-.184.1955-.326.343-.426.1475-.103.3191-.155.5145-.155.2619 0 .4689.078.6199.233.155.151.232.361.232.631v1.969h-.453v-1.853c0-.196-.045-.341-.133-.437-.089-.096-.223-.144-.4042-.144-.2028 0-.3633.072-.4813.216-.1181.143-.1771.346-.1771.608v1.61h-.4537v-1.853c0-.192-.0461-.336-.1383-.432-.0885-.099-.2213-.149-.3983-.149-.2029 0-.3633.074-.4814.221-.118.144-.177.347-.177.609v1.604h-.4537v-2.766h.3375l.0553.537c.0664-.189.1752-.336.3264-.443.1513-.107.3283-.161.5312-.161zm4.2026 2.54c.174 0 .316-.042.426-.127.111-.085.187-.21.227-.376l.393.11c-.059.244-.179.43-.36.559-.18.129-.409.194-.686.194-.387 0-.69-.126-.907-.377-.218-.25-.327-.605-.327-1.062 0-.446.111-.8.332-1.062.225-.266.526-.399.902-.399.329 0 .589.107.78.321.196.211.294.491.294.841 0 .07-.006.139-.017.205s-.024.122-.039.166h-1.814c.011.321.084.57.221.747.14.173.332.26.575.26zm-.011-2.191c-.217 0-.394.074-.531.221-.133.148-.214.358-.243.631h1.405c.004-.018.005-.037.005-.055 0-.022 0-.052 0-.089 0-.21-.059-.38-.177-.509-.114-.133-.267-.199-.459-.199zm1.574-.282h.338l.055.537c.078-.192.198-.34.36-.443.162-.107.352-.161.57-.161.258 0 .464.082.619.244.155.159.233.374.233.647v1.942h-.454v-1.848c0-.188-.048-.332-.144-.431-.092-.104-.225-.155-.398-.155-.229 0-.408.072-.537.216-.125.143-.188.348-.188.614v1.604h-.454zm3.76 2.451c.084 0 .16-.009.226-.028.067-.022.142-.061.227-.116l.083.36c-.081.051-.173.092-.276.121-.1.03-.198.045-.294.045-.265 0-.47-.065-.614-.194-.14-.133-.21-.323-.21-.57v-1.721h-.398v-.348h.398v-.587l.454-.072v.659h.83v.348h-.83v1.677c0 .14.033.247.099.321.07.07.172.105.305.105zm1.747.382c-.295 0-.542-.069-.741-.205-.196-.137-.314-.323-.355-.559l.415-.116c.023.155.096.282.222.382.129.099.282.149.459.149.192 0 .339-.037.443-.111.107-.077.16-.186.16-.326 0-.118-.042-.212-.127-.282-.081-.07-.262-.137-.542-.199-.185-.041-.321-.078-.41-.111-.085-.033-.158-.07-.221-.111-.092-.066-.162-.147-.21-.243-.045-.096-.067-.209-.067-.338 0-.25.089-.451.266-.603.18-.151.415-.227.702-.227.303 0 .537.067.703.2.17.129.269.319.299.57l-.426.06c-.015-.155-.072-.273-.172-.354-.096-.085-.23-.127-.404-.127-.169 0-.302.041-.398.122-.096.077-.144.186-.144.326 0 .115.041.207.122.277.081.066.26.129.537.188.188.041.326.077.415.111.088.029.164.066.226.11.093.067.161.15.205.249.048.096.072.212.072.349 0 .251-.094.45-.282.597-.188.148-.437.222-.747.222z" fill="#f7f7ff"/><path d="m135.477 194.558c-.06-.102-.145-.157-.226-.227-.058-.049-.11-.116-.157-.184-.074-.106-.113-.219-.163-.344-.068-.163-.223-.212-.362-.212h-.135c-.09 0-.162-.087-.162-.195v-1.372c0-.064-.025-.123-.068-.16l-.295-.252c-.043-.036-.098-.045-.147-.024l-4.565 1.957c-.065.028-.108.102-.108.185v5.928c0 .108.072.196.161.196h.324c.089 0 .161-.088.161-.196v-5.088c0-.108.072-.196.162-.196h4.837c.089 0 .161.088.161.196v1.566c0 .108-.072.195-.161.195h-.963c-.09 0-.162.088-.162.196v.391c0 .108.072.196.162.196h.963c.089 0 .161.087.161.195v1.551c0 .108-.072.195-.161.195h-4.188c-.089 0-.161.088-.161.196v.391c0 .108.072.196.161.196h4.834c.089 0 .162-.088.162-.196v-4.746c0-.119-.01-.24-.065-.338zm-1.851-1.803v.633c0 .108-.072.195-.162.195h-1.921c-.093 0-.115-.157-.028-.195l1.895-.817c.105-.046.216.049.216.184z" fill="#f7f7ff"/><path d="m124.092 205.881h-.011l-.636 1.765h1.289zm1.627 3.192h-.47l-.377-1.034h-1.571l-.371 1.034h-.459l1.367-3.696h.514zm1.413.067c-.38 0-.68-.129-.902-.388-.221-.258-.332-.612-.332-1.062 0-.446.111-.798.332-1.057.222-.262.522-.393.902-.393.277 0 .507.078.692.233.184.155.291.359.321.614l-.415.077c-.015-.166-.078-.3-.188-.403-.107-.107-.244-.161-.41-.161-.243 0-.433.096-.57.288-.136.192-.204.459-.204.802s.068.611.204.802c.137.192.327.288.57.288.17 0 .308-.052.415-.155.107-.107.168-.247.183-.42l.415.077c-.041.269-.15.48-.327.631s-.405.227-.686.227zm2.495 0c-.38 0-.68-.129-.901-.388-.222-.258-.332-.612-.332-1.062 0-.446.11-.798.332-1.057.221-.262.521-.393.901-.393.277 0 .508.078.692.233s.291.359.321.614l-.415.077c-.015-.166-.078-.3-.188-.403-.107-.107-.244-.161-.41-.161-.243 0-.433.096-.569.288-.137.192-.205.459-.205.802s.068.611.205.802c.136.192.326.288.569.288.17 0 .308-.052.415-.155.107-.107.168-.247.183-.42l.415.077c-.041.269-.15.48-.327.631s-.405.227-.686.227zm2.501-2.9c.38 0 .681.13.902.388.225.258.337.612.337 1.062s-.112.804-.337 1.062c-.221.259-.522.388-.902.388s-.682-.129-.907-.388c-.222-.258-.332-.612-.332-1.062s.11-.804.332-1.062c.225-.258.527-.388.907-.388zm0 2.546c.255 0 .448-.093.581-.277.133-.188.199-.461.199-.819s-.066-.629-.199-.813c-.133-.188-.326-.282-.581-.282-.254 0-.448.094-.581.282-.133.184-.199.455-.199.813s.066.631.199.819c.133.184.327.277.581.277zm3.849.287h-.359l-.055-.525c-.063.191-.17.339-.321.442-.152.1-.336.15-.554.15-.254 0-.461-.08-.619-.238-.155-.159-.233-.375-.233-.648v-1.947h.454v1.898c0 .177.046.317.138.42.093.1.222.149.388.149.217 0 .389-.075.514-.226.126-.152.188-.364.188-.637v-1.604h.459zm.695-2.766h.338l.055.537c.078-.192.198-.34.36-.443.162-.107.352-.161.57-.161.258 0 .465.082.619.244.155.159.233.374.233.647v1.942h-.454v-1.848c0-.188-.048-.332-.144-.431-.092-.104-.225-.155-.398-.155-.229 0-.408.072-.537.216-.125.143-.188.348-.188.614v1.604h-.454zm3.76 2.451c.085 0 .16-.009.227-.028.066-.022.142-.061.226-.116l.083.36c-.081.051-.173.092-.276.121-.1.03-.198.045-.293.045-.266 0-.471-.065-.615-.194-.14-.133-.21-.323-.21-.57v-1.721h-.398v-.348h.398v-.587l.454-.072v.659h.83v.348h-.83v1.677c0 .14.033.247.099.321.071.07.172.105.305.105zm1.747.382c-.295 0-.542-.069-.741-.205-.196-.137-.314-.323-.354-.559l.415-.116c.022.155.095.282.221.382.129.099.282.149.459.149.192 0 .339-.037.443-.111.107-.077.16-.186.16-.326 0-.118-.042-.212-.127-.282-.081-.07-.262-.137-.542-.199-.185-.041-.321-.078-.41-.111-.085-.033-.158-.07-.221-.111-.092-.066-.162-.147-.21-.243-.045-.096-.067-.209-.067-.338 0-.25.089-.451.266-.603.181-.151.415-.227.703-.227.302 0 .536.067.702.2.17.129.269.319.299.57l-.426.06c-.015-.155-.072-.273-.172-.354-.096-.085-.23-.127-.403-.127-.17 0-.303.041-.399.122-.096.077-.144.186-.144.326 0 .115.041.207.122.277.081.066.26.129.537.188.188.041.326.077.415.111.088.029.164.066.226.11.093.067.161.15.205.249.048.096.072.212.072.349 0 .251-.094.45-.282.597-.188.148-.437.222-.747.222z" fill="#f7f7ff"/></svg>