<svg fill="none" height="168" viewBox="0 0 228 168" width="228" xmlns="http://www.w3.org/2000/svg" xmlns:xlink="http://www.w3.org/1999/xlink"><linearGradient id="a"><stop offset="0" stop-color="#fbfbfb" stop-opacity=".46"/><stop offset="1" stop-color="#fff" stop-opacity=".12"/></linearGradient><radialGradient id="b" cx="0" cy="0" gradientTransform="matrix(-.36981122 165.27758627 -225.66243511 -.50492327 114.201 1.69532)" gradientUnits="userSpaceOnUse" r="1" xlink:href="#a"/><radialGradient id="c" cx="0" cy="0" gradientTransform="matrix(99.1436 0 0 16.9681 111.508 98.7845)" gradientUnits="userSpaceOnUse" r="1" xlink:href="#a"/><radialGradient id="d" cx="0" cy="0" gradientTransform="matrix(99.1436 0 0 16.9681 111.508 138.639)" gradientUnits="userSpaceOnUse" r="1" xlink:href="#a"/><rect fill="#020202" fill-opacity=".56" height="166.017" rx="14.7272" width="226.402" x=".630061" y="1.32537"/><rect height="166.017" rx="14.7272" stroke="url(#b)" stroke-width=".739877" width="226.402" x=".630061" y="1.32537"/><path d="m106.758 22.3904c0 .5386-.207.9707-.622 1.2963-.414.3196-.947.4794-1.598.4794-.621 0-1.142-.142-1.562-.4262-.415-.29-.678-.6866-.791-1.1897l.986-.3729c.053.3374.204.6067.453.808.254.2012.562.3018.923.3018.332 0 .595-.0739.79-.2219.202-.148.302-.3522.302-.6126 0-.2013-.08-.3641-.24-.4884-.153-.1302-.503-.2634-1.047-.3995-.385-.1006-.669-.1864-.853-.2575-.183-.0769-.34-.1627-.47-.2575-.201-.142-.352-.3166-.453-.5238-.095-.2071-.142-.4469-.142-.7191 0-.5268.201-.956.604-1.2874.402-.3315.911-.4972 1.527-.4972.615 0 1.107.1331 1.474.3995.367.2604.592.6422.674 1.1453l-1.012.2575c-.041-.2841-.162-.509-.364-.6748-.201-.1716-.456-.2574-.763-.2574-.308 0-.557.0769-.746.2308-.189.148-.284.3463-.284.5949 0 .2012.077.3669.231.4972.159.1243.509.2545 1.047.3906.391.0947.678.1806.862.2575.189.0769.349.1628.479.2575.201.148.349.3285.444.5416.101.2071.151.4498.151.728zm2.327.9411c.243 0 .438-.0562.586-.1687.148-.1183.252-.293.311-.5238l.905.293c-.106.3966-.319.7014-.639.9145-.319.2131-.71.3196-1.172.3196-.657 0-1.172-.2042-1.545-.6126s-.559-.9737-.559-1.6958c0-.728.189-1.3051.568-1.7313s.894-.6393 1.545-.6393c.568 0 1.018.1776 1.35.5327.331.3493.497.8169.497 1.4028 0 .1066-.009.2161-.027.3286-.018.1065-.038.1953-.062.2663h-2.823c.012.4143.109.7369.293.9678.189.2308.447.3462.772.3462zm-.018-3.0542c-.29 0-.526.1006-.71.3019-.178.1953-.284.4735-.32.8346h1.847c.006-.0237.009-.0503.009-.0799 0-.0356 0-.0829 0-.1421 0-.2723-.077-.4913-.231-.657-.148-.1717-.346-.2575-.595-.2575zm2.347-.6836h.897l.133.8612c.113-.3078.296-.5446.551-.7103.254-.1716.556-.2575.905-.2575.426 0 .764.1302 1.012.3907.255.2545.382.6067.382 1.0565v3.1253h-1.101v-2.8234c0-.2664-.062-.4706-.186-.6126-.124-.1421-.305-.2131-.542-.2131-.302 0-.538.1006-.71.3019-.166.1953-.249.4764-.249.8434v2.5038h-1.092zm6.474 3.7112c.296 0 .535-.1095.719-.3285.183-.219.275-.5179.275-.8967v-.6748c0-.3315-.095-.5949-.284-.7902-.184-.2012-.414-.3019-.693-.3019-.337 0-.597.1362-.781.4084-.183.2664-.275.6511-.275 1.1543 0 .4557.089.8079.266 1.0565.184.2486.441.3729.773.3729zm2.086.7547h-.923l-.116-.8346c-.094.3019-.266.5357-.515.7014-.242.1598-.535.2397-.879.2397-.538 0-.976-.2042-1.314-.6126-.331-.4084-.497-.9559-.497-1.6425 0-.7517.169-1.3437.506-1.7757.338-.4321.796-.6482 1.376-.6482.302 0 .566.0622.791.1865.23.1243.39.293.479.5061v-2.5304h1.092z" fill="#fff"/><path d="m82.8606 42.8609c0 .3157.1085.5722.3256.7695.217.1973.5919.36 1.1246.4883v-2.634c-.4439.0592-.7991.2121-1.0654.4587-.2565.2467-.3848.5525-.3848.9175zm3.877 4.3061c0-.3058-.1085-.5574-.3256-.7547-.217-.1973-.5869-.3601-1.1098-.4883v2.634c.4637-.0691.8188-.222 1.0654-.4588.2467-.2466.37-.5573.37-.9322zm-1.4354 2.7967v1.5686h-.9914v-1.5538c-.9372-.0592-1.7116-.3157-2.3232-.7695-.6117-.4636-.9964-1.0752-1.1542-1.8349l1.5537-.6214c.0789.5129.2861.9273.6215 1.2429.3354.3157.7695.5081 1.3022.5771v-2.8707c-.5722-.1184-1.0161-.2318-1.3318-.3403s-.582-.2417-.7991-.3996c-.3255-.217-.5672-.4883-.725-.8138-.1579-.3256-.2368-.7103-.2368-1.1542 0-.7892.2861-1.4453.8583-1.9681.5721-.5327 1.3169-.8435 2.2344-.9322v-1.3762h.9914v1.391c.8583.069 1.5439.3206 2.0569.7546.5228.4341.8484 1.026.9766 1.7757l-1.5981.4144c-.0493-.3946-.2023-.7251-.4587-.9915-.2467-.2663-.5722-.4488-.9767-.5475v2.8116c.5821.1183 1.0309.2367 1.3466.3551.3157.1085.582.2368.7991.3847.3156.2269.5524.5081.7102.8435.1579.3255.2368.7103.2368 1.1542 0 .7991-.2811 1.46-.8435 1.9829-.5623.513-1.312.8188-2.2492.9174zm10.1248-7.3692c0 .6117-.1677 1.1247-.5031 1.539-.3355.4045-.7942.656-1.3762.7547v.0296c.6412.069 1.1591.3156 1.5537.7398s.5919.9471.5919 1.5686c0 .878-.3304 1.5882-.9914 2.1308-.6511.5327-1.4995.7991-2.5452.7991-.9569 0-1.7658-.2368-2.4268-.7103-.6511-.4735-1.0358-1.0901-1.1542-1.8497l1.5833-.6067c.1086.5525.3305.9816.6659 1.2874.3453.2959.7843.4439 1.317.4439.5426 0 .9767-.143 1.3022-.4291s.4883-.6758.4883-1.169c0-.4735-.1677-.8435-.5031-1.1098-.3255-.2664-.7744-.3996-1.3466-.3996h-1.0062v-1.3169h.9322c.5426 0 .952-.1332 1.2282-.3996.2861-.2663.4292-.6511.4292-1.1542 0-.3946-.1381-.7152-.4144-.9618-.2762-.2565-.6363-.3848-1.0802-.3848-.4636 0-.8484.1431-1.1542.4292-.3058.2762-.5031.6708-.5919 1.1838l-1.5537-.6215c.1874-.7596.5771-1.3614 1.169-1.8053.6017-.444 1.3317-.6659 2.19-.6659.9865 0 1.7658.2417 2.338.7251s.8583 1.1344.8583 1.9532zm1.8262 5.12c.4045 0 .7349.1529.9914.4587.2664.3058.3996.7004.3996 1.1838 0 .8188-.2467 1.4946-.7399 2.0273-.4933.5327-1.1345.799-1.9237.799v-.8434c.4439-.0296.8089-.1825 1.095-.4587.296-.2763.444-.6018.444-.9767 0-.0493-.005-.0937-.0148-.1332-.0099-.0394-.0198-.069-.0296-.0887-.0494.0296-.1086.0542-.1776.074-.0592.0098-.1135.0147-.1628.0147-.2762 0-.508-.0887-.6955-.2663-.1775-.1874-.2663-.4291-.2663-.7251 0-.3157.1036-.5722.3107-.7695.2072-.1973.4637-.2959.7695-.2959zm5.8728-7.7983c.74 0 1.372.1628 1.895.4883.522.3157.912.7744 1.169 1.3762l-1.303.8582c-.148-.3946-.379-.7004-.695-.9174-.306-.2269-.666-.3404-1.08-.3404-.76 0-1.367.3355-1.82 1.0063-.444.6609-.666 1.5439-.666 2.6487v.2516h.044c.178-.4933.488-.8879.932-1.1838.454-.296.962-.4439 1.524-.4439.928 0 1.673.2959 2.235.8878.572.5821.858 1.3367.858 2.264 0 .9865-.316 1.7905-.947 2.412s-1.455.9323-2.471.9323c-.651 0-1.228-.1332-1.731-.3995-.504-.2664-.928-.6561-1.273-1.1691-.2861-.4241-.5031-.9125-.6511-1.4649-.148-.5623-.222-1.1739-.222-1.8349 0-1.6179.3798-2.9151 1.1391-3.8918.77-.9865 1.791-1.4797 3.063-1.4797zm-.399 8.7897c.533 0 .967-.1677 1.302-.5031s.503-.7744.503-1.317c0-.5425-.168-.9815-.503-1.317-.335-.3354-.769-.5031-1.302-.5031-.513 0-.937.1677-1.273.5031-.325.3355-.488.7745-.488 1.317 0 .5426.163.9816.488 1.317.336.3354.76.5031 1.273.5031zm6.04-3.1519h-1.494l.266-5.4602h5.519v1.5537h-4.084l-.133 2.6044c.237-.1973.508-.3502.814-.4588.306-.1183.622-.1775.947-.1775.888 0 1.608.291 2.161.873.552.5821.828 1.3367.828 2.2641 0 1.0259-.34 1.8496-1.021 2.4711-.671.6215-1.529.9323-2.575.9323-.947 0-1.746-.2417-2.397-.7251s-1.046-1.1147-1.184-1.8941l1.613-.5771c.099.5426.321.9717.666 1.2874.345.3058.78.4587 1.302.4587.553 0 .992-.1726 1.317-.5179.326-.3453.489-.8139.489-1.4058 0-.5524-.153-.9914-.459-1.3169-.296-.3256-.7-.4884-1.213-.4884-.277 0-.533.0543-.77.1628-.237.0987-.434.2368-.592.4143zm5.339-.5179c0-1.5389.35-2.777 1.05-3.7141.701-.9372 1.648-1.4058 2.842-1.4058 1.193 0 2.14.4686 2.841 1.4058.7.9371 1.05 2.1752 1.05 3.7141 0 1.539-.355 2.777-1.065 3.7142-.7.9372-1.643 1.4058-2.826 1.4058-1.184 0-2.131-.4686-2.842-1.4058-.7-.9372-1.05-2.1752-1.05-3.7142zm1.85 0c0 1.1444.172 2.0273.517 2.6488.356.6116.864.9174 1.525.9174.67 0 1.178-.3058 1.524-.9174.355-.6215.532-1.5044.532-2.6488 0-1.1443-.177-2.0223-.532-2.6339-.346-.6215-.854-.9323-1.524-.9323-.661 0-1.169.3108-1.525.9323-.345.6116-.517 1.4896-.517 2.6339zm7.502 2.6784c.335 0 .617.1134.843.3403.227.2269.341.5081.341.8435s-.114.6215-.341.8583c-.226.2268-.508.3403-.843.3403s-.617-.1135-.843-.3403c-.227-.2368-.341-.5229-.341-.8583s.114-.6166.341-.8435c.226-.2269.508-.3403.843-.3403zm1.552-2.6784c0-1.5389.351-2.777 1.051-3.7141.7-.9372 1.647-1.4058 2.841-1.4058s2.141.4686 2.841 1.4058c.701.9371 1.051 2.1752 1.051 3.7141 0 1.539-.355 2.777-1.066 3.7142-.7.9372-1.642 1.4058-2.826 1.4058s-2.131-.4686-2.841-1.4058c-.7-.9372-1.051-2.1752-1.051-3.7142zm1.85 0c0 1.1444.173 2.0273.518 2.6488.355.6116.863.9174 1.524.9174.671 0 1.179-.3058 1.524-.9174.355-.6215.533-1.5044.533-2.6488 0-1.1443-.178-2.0223-.533-2.6339-.345-.6215-.853-.9323-1.524-.9323-.661 0-1.169.3108-1.524.9323-.345.6116-.518 1.4896-.518 2.6339zm6.442 0c0-1.5389.35-2.777 1.051-3.7141.7-.9372 1.647-1.4058 2.841-1.4058s2.141.4686 2.841 1.4058c.701.9371 1.051 2.1752 1.051 3.7141 0 1.539-.355 2.777-1.066 3.7142-.7.9372-1.642 1.4058-2.826 1.4058s-2.131-.4686-2.841-1.4058c-.701-.9372-1.051-2.1752-1.051-3.7142zm1.85 0c0 1.1444.173 2.0273.518 2.6488.355.6116.863.9174 1.524.9174.671 0 1.179-.3058 1.524-.9174.355-.6215.533-1.5044.533-2.6488 0-1.1443-.178-2.0223-.533-2.6339-.345-.6215-.853-.9323-1.524-.9323-.661 0-1.169.3108-1.524.9323-.345.6116-.518 1.4896-.518 2.6339z" fill="#fff"/><path d="m17.1143 70.2283c0 .5386-.2072.9707-.6215 1.2963-.4144.3196-.9471.4794-1.5982.4794-.6215 0-1.1423-.1421-1.5626-.4262-.4143-.29-.6777-.6866-.7902-1.1897l.9855-.3729c.0533.3374.2043.6067.4528.808.2546.2012.5624.3018.9234.3018.3315 0 .5949-.074.7902-.2219.2013-.148.3019-.3522.3019-.6127 0-.2012-.0799-.364-.2397-.4883-.1539-.1302-.5032-.2634-1.0477-.3995-.3847-.1006-.6689-.1865-.8523-.2575-.1835-.0769-.3404-.1628-.4706-.2575-.2013-.142-.3522-.3166-.4528-.5238-.0947-.2072-.1421-.4469-.1421-.7192 0-.5267.2013-.9559.6038-1.2873.4025-.3315.9115-.4972 1.5271-.4972s1.1068.1331 1.4738.3995c.367.2604.5919.6422.6748 1.1453l-1.0122.2575c-.0414-.2841-.1627-.509-.364-.6748-.2012-.1716-.4558-.2574-.7635-.2574-.3078 0-.5564.0769-.7458.2308-.1895.148-.2842.3463-.2842.5949 0 .2012.077.3669.2309.4972.1598.1243.509.2545 1.0477.3906.3906.0947.6777.1805.8612.2575.1894.0769.3492.1628.4794.2575.2013.1479.3492.3285.4439.5416.1007.2071.151.4498.151.728zm1.8928 1.0121c.2664 0 .4795-.0858.6393-.2574.1657-.1717.2486-.4114.2486-.7192v-.3107c-.0947-.0119-.1746-.0178-.2397-.0178-.0592-.0059-.1007-.0089-.1243-.0089-.3966 0-.6955.0622-.8968.1865-.2012.1184-.3018.2959-.3018.5327 0 .1835.0592.3285.1775.435.1243.1066.2901.1598.4972.1598zm.2486-3.9154c.5564 0 .9767.1214 1.2608.364.2841.2427.4261.6008.4261 1.0743v2.051c0 .1184.0237.2071.0711.2663.0532.0533.1332.0799.2397.0799.0473 0 .0947-.0059.1421-.0177.0473-.0178.0858-.0414.1154-.071l.0444.7458c-.077.0532-.1746.0947-.293.1243-.1125.0295-.2279.0443-.3463.0443-.1835 0-.3462-.0325-.4883-.0976-.1421-.071-.2545-.1717-.3374-.3019-.0296-.0533-.0562-.1065-.0799-.1598-.0178-.0533-.0355-.1095-.0533-.1687-.0828.2249-.2426.4025-.4794.5327-.2308.1302-.5002.1953-.808.1953-.4261 0-.7665-.1124-1.021-.3373-.2545-.2309-.3818-.5416-.3818-.9323 0-.4498.1835-.7991.5505-1.0476.3729-.2486.9027-.3729 1.5893-.3729.071 0 .1509.0029.2397.0088.0947.006.1776.0119.2486.0178v-.4972c0-.219-.0592-.3877-.1776-.5061s-.29-.1776-.5149-.1776c-.225 0-.3966.0622-.515.1865-.1184.1184-.1805.29-.1864.5149l-1.03-.1598c.0415-.4202.222-.7517.5416-.9944.3197-.2426.734-.364 1.243-.364zm3.1029.1066 1.0477 3.285h.0178l1.092-3.285h1.0566l-1.6337 4.4659h-1.092l-1.6426-4.4659zm5.2342 3.7378c.2427 0 .438-.0562.586-.1687.148-.1184.2515-.293.3107-.5238l.9056.293c-.1065.3966-.3196.7014-.6392.9145s-.7103.3196-1.172.3196c-.657 0-1.1719-.2042-1.5448-.6126s-.5594-.9737-.5594-1.6958c0-.7281.1894-1.3052.5682-1.7313.3789-.4262.8938-.6393 1.5449-.6393.5682 0 1.0181.1776 1.3495.5327.3315.3493.4972.8169.4972 1.4028 0 .1066-.0088.2161-.0266.3285-.0178.1066-.0385.1954-.0621.2664h-2.8234c.0118.4143.1095.7369.293.9678.1894.2308.4469.3462.7724.3462zm-.0178-3.0542c-.29 0-.5267.1006-.7102.3019-.1776.1953-.2841.4735-.3197.8346h1.8468c.0059-.0237.0088-.0504.0088-.0799 0-.0356 0-.0829 0-.1421 0-.2723-.0769-.4913-.2308-.657-.148-.1717-.3463-.2575-.5949-.2575zm4.2549 3.0276c.2959 0 .5356-.1095.7191-.3285s.2753-.5179.2753-.8968v-.6747c0-.3315-.0947-.5949-.2841-.7902-.1835-.2013-.4144-.3019-.6926-.3019-.3374 0-.5978.1362-.7813.4084-.1835.2664-.2752.6511-.2752 1.1542 0 .4558.0888.808.2663 1.0566.1835.2486.441.3729.7725.3729zm2.0864.7547h-.9233l-.1155-.8346c-.0947.3018-.2663.5357-.5149.7014-.2427.1598-.5357.2397-.879.2397-.5386 0-.9766-.2042-1.314-.6126-.3315-.4084-.4972-.9559-.4972-1.6425 0-.7518.1687-1.3437.5061-1.7757.3374-.4321.7961-.6482 1.3761-.6482.3019 0 .5653.0622.7902.1865.2309.1243.3907.293.4795.506v-2.5303h1.092zm2.3535-6.4103h1.0921v2.699c.0829-.2604.2456-.4676.4883-.6215.2427-.1598.5179-.2397.8257-.2397.5682 0 1.0151.2101 1.3407.6304.3314.4143.4972.9737.4972 1.678 0 .7103-.1746 1.2845-.5239 1.7225-.3492.4321-.8109.6481-1.385.6481-.3256 0-.6097-.0799-.8524-.2397-.2367-.1657-.3936-.3877-.4705-.6659l-.1243.7991h-.8879zm2.0687 2.6902c-.29 0-.5268.1124-.7103.3373-.1775.225-.2663.5268-.2663.9057v.5593c0 .3729.0888.6659.2663.879.1776.2131.4085.3196.6926.3196.3374 0 .6007-.1332.7902-.3995.1894-.2664.2841-.6422.2841-1.1276 0-.4794-.0918-.8435-.2753-1.0921-.1775-.2545-.438-.3817-.7813-.3817zm4.525 2.992c.2427 0 .438-.0562.586-.1687.148-.1184.2516-.293.3108-.5238l.9056.293c-.1066.3966-.3197.7014-.6393.9145s-.7103.3196-1.172.3196c-.657 0-1.1719-.2042-1.5448-.6126s-.5594-.9737-.5594-1.6958c0-.7281.1894-1.3052.5683-1.7313.3788-.4262.8937-.6393 1.5448-.6393.5682 0 1.0181.1776 1.3496.5327.3314.3493.4972.8169.4972 1.4028 0 .1066-.0089.2161-.0267.3285-.0177.1066-.0385.1954-.0621.2664h-2.8234c.0118.4143.1095.7369.293.9678.1894.2308.4469.3462.7724.3462zm-.0177-3.0542c-.2901 0-.5268.1006-.7103.3019-.1776.1953-.2841.4735-.3196.8346h1.8467c.0059-.0237.0089-.0504.0089-.0799 0-.0356 0-.0829 0-.1421 0-.2723-.077-.4913-.2309-.657-.1479-.1717-.3462-.2575-.5948-.2575zm2.3469-.6836h.8968l.1332.8612c.1124-.3078.2959-.5446.5504-.7103.2545-.1717.5564-.2575.9056-.2575.4262 0 .7636.1302 1.0122.3907.2545.2545.3818.6067.3818 1.0565v3.1253h-1.101v-2.8234c0-.2664-.0621-.4706-.1864-.6126-.1243-.1421-.3049-.2131-.5416-.2131-.3019 0-.5386.1006-.7103.3019-.1657.1953-.2486.4764-.2486.8434v2.5038h-1.0921zm6.429 3.7378c.2427 0 .438-.0562.586-.1687.148-.1184.2515-.293.3107-.5238l.9056.293c-.1065.3966-.3196.7014-.6392.9145s-.7103.3196-1.172.3196c-.657 0-1.1719-.2042-1.5448-.6126s-.5594-.9737-.5594-1.6958c0-.7281.1894-1.3052.5682-1.7313.3789-.4262.8938-.6393 1.5449-.6393.5682 0 1.0181.1776 1.3495.5327.3315.3493.4972.8169.4972 1.4028 0 .1066-.0088.2161-.0266.3285-.0178.1066-.0385.1954-.0622.2664h-2.8233c.0118.4143.1095.7369.293.9678.1894.2308.4469.3462.7724.3462zm-.0178-3.0542c-.29 0-.5267.1006-.7102.3019-.1776.1953-.2842.4735-.3197.8346h1.8468c.0059-.0237.0088-.0504.0088-.0799 0-.0356 0-.0829 0-.1421 0-.2723-.0769-.4913-.2308-.657-.148-.1717-.3463-.2575-.5949-.2575zm3.6078.1332v3.6491h-1.0921v-3.6491h-.6126v-.8168h.6126v-.1776c0-.5742.1717-1.0299.515-1.3673s.805-.5061 1.385-.5061c.2901 0 .5535.0444.7902.1332.2427.0829.4528.2072.6304.3729l-.4084.7724c-.1184-.1479-.2545-.2574-.4084-.3285-.1539-.0769-.3285-.1154-.5239-.1154-.3018 0-.5268.0858-.6747.2575-.1421.1716-.2131.435-.2131.7902v.1687h2.6902v4.4659h-1.101v-3.6491zm5.2809 3.7556c-.6511 0-1.166-.2072-1.5449-.6215-.3788-.4202-.5682-.9914-.5682-1.7135 0-.7222.1865-1.2934.5594-1.7136.3788-.4203.8908-.6304 1.5359-.6304.4972 0 .9027.1302 1.2164.3907.3196.2604.5031.6096.5505 1.0476l-.9589.2042c-.0178-.2486-.0977-.4468-.2397-.5948-.1421-.148-.3285-.222-.5594-.222-.3196 0-.5682.1332-.7458.3996-.1775.2663-.2663.6392-.2663 1.1187 0 .4794.0888.8523.2663 1.1186.1776.2605.4292.3907.7547.3907.2249 0 .4084-.074.5505-.222.142-.1479.2249-.3492.2486-.6037l.9677.2575c-.0769.4321-.2722.7724-.586 1.021-.3137.2486-.7073.3729-1.1808.3729zm2.7234-6.5346c.1953 0 .3581.0622.4883.1865.1362.1243.2042.2811.2042.4705s-.068.3463-.2042.4706c-.1302.1243-.293.1864-.4883.1864s-.3581-.0621-.4883-.1864-.1953-.2812-.1953-.4706.0651-.3462.1953-.4705.293-.1865.4883-.1865zm-.5416 6.4281v-4.4659h1.0921v4.4659zm3.2894-.6571c.2663 0 .4794-.0858.6392-.2574.1658-.1717.2486-.4114.2486-.7192v-.3107c-.0947-.0119-.1746-.0178-.2397-.0178-.0592-.0059-.1006-.0089-.1243-.0089-.3966 0-.6955.0622-.8967.1865-.2013.1184-.3019.2959-.3019.5327 0 .1835.0592.3285.1776.435.1243.1066.29.1598.4972.1598zm.2486-3.9154c.5564 0 .9766.1214 1.2607.364.2841.2427.4262.6008.4262 1.0743v2.051c0 .1184.0237.2071.071.2663.0533.0533.1332.0799.2398.0799.0473 0 .0947-.0059.142-.0177.0474-.0178.0858-.0414.1154-.071l.0444.7458c-.0769.0532-.1746.0947-.293.1243-.1124.0295-.2279.0443-.3462.0443-.1835 0-.3463-.0325-.4884-.0976-.142-.071-.2545-.1717-.3373-.3019-.0296-.0533-.0563-.1065-.0799-.1598-.0178-.0533-.0356-.1095-.0533-.1687-.0829.2249-.2427.4025-.4795.5327-.2308.1302-.5001.1953-.8079.1953-.4262 0-.7665-.1124-1.021-.3373-.2545-.2309-.3818-.5416-.3818-.9323 0-.4498.1835-.7991.5505-1.0476.3729-.2486.9026-.3729 1.5892-.3729.071 0 .151.0029.2397.0088.0947.006.1776.0119.2486.0178v-.4972c0-.219-.0592-.3877-.1775-.5061-.1184-.1184-.2901-.1776-.515-.1776s-.3966.0622-.5149.1865c-.1184.1184-.1806.29-.1865.5149l-1.0299-.1598c.0414-.4202.222-.7517.5416-.9944.3196-.2426.7339-.364 1.243-.364zm2.5931 4.5725v-4.4659h.9233l.1243 1.0831c.0888-.361.2546-.6481.4972-.8612.2486-.2131.5387-.3196.8701-.3196.0474 0 .0947.003.1421.0089.0533 0 .1036.0059.1509.0177l-.0621 1.1187c-.0533-.0177-.1243-.0325-.2131-.0444-.0829-.0118-.1628-.0177-.2397-.0177-.3315 0-.5979.1184-.7991.3551-.2013.2368-.3019.5594-.3019.9678v2.1575zm3.5464-6.4281c.1953 0 .3581.0622.4883.1865.1361.1243.2042.2811.2042.4705s-.0681.3463-.2042.4706c-.1302.1243-.293.1864-.4883.1864s-.3581-.0621-.4883-.1864c-.1303-.1243-.1954-.2812-.1954-.4706s.0651-.3462.1954-.4705c.1302-.1243.293-.1865.4883-.1865zm-.5416 6.4281v-4.4659h1.0921v4.4659zm3.6978-.7281c.2426 0 .438-.0562.5859-.1687.148-.1184.2516-.293.3108-.5238l.9056.293c-.1065.3966-.3196.7014-.6393.9145-.3196.2131-.7102.3196-1.1719.3196-.657 0-1.172-.2042-1.5449-.6126s-.5593-.9737-.5593-1.6958c0-.7281.1894-1.3052.5682-1.7313.3788-.4262.8938-.6393 1.5449-.6393.5682 0 1.018.1776 1.3495.5327.3315.3493.4972.8169.4972 1.4028 0 .1066-.0089.2161-.0266.3285-.0178.1066-.0385.1954-.0622.2664h-2.8234c.0119.4143.1095.7369.293.9678.1894.2308.4469.3462.7725.3462zm-.0178-3.0542c-.29 0-.5268.1006-.7103.3019-.1775.1953-.2841.4735-.3196.8346h1.8467c.0059-.0237.0089-.0504.0089-.0799 0-.0356 0-.0829 0-.1421 0-.2723-.0769-.4913-.2308-.657-.148-.1717-.3463-.2575-.5949-.2575zm3.8029 3.8888c-.4972 0-.9116-.1065-1.243-.3196-.3315-.219-.5357-.5209-.6127-.9056l.9501-.2309c.0295.2072.1272.3759.2929.5061.1717.1302.3789.1953.6215.1953.2486 0 .441-.0473.5771-.142.1362-.1007.2042-.2397.2042-.4173 0-.148-.0621-.2664-.1864-.3552-.1184-.0947-.3818-.1864-.7902-.2752-.3019-.0651-.5268-.1243-.6748-.1776-.142-.0532-.2634-.1124-.364-.1775-.1539-.1066-.2693-.2398-.3462-.3996-.077-.1598-.1155-.3462-.1155-.5593 0-.4262.1599-.7695.4795-1.0299.3196-.2605.7369-.3907 1.2519-.3907.509 0 .9115.1095 1.2074.3285.296.219.4706.5327.5239.9411l-.95.1155c-.0178-.2013-.0947-.3581-.2309-.4706-.1361-.1125-.3166-.1687-.5416-.1687-.2249 0-.3995.0503-.5238.151-.1243.1006-.1865.2426-.1865.4261 0 .148.0592.2664.1776.3552.1184.0887.3818.1716.7902.2486.3078.0651.5327.1243.6748.1775.148.0533.2752.1155.3818.1865.1538.1065.2693.2397.3462.3995.077.1598.1154.3522.1154.5771 0 .438-.1657.7843-.4972 1.0388-.3314.2486-.7754.3729-1.3317.3729z" fill="#fff"/><rect fill="#6b6b6b" fill-opacity=".33" height="33.5663" rx="6.47393" width="197.917" x="12.5492" y="82.0014"/><rect height="33.5663" rx="6.47393" stroke="url(#c)" stroke-width=".369939" width="197.917" x="12.5492" y="82.0014"/><rect fill="#fff" height="17.7571" rx="8.87853" width="17.7571" x="18.2832" y="87.7354"/><path d="m25.1648 95.7825h-.0124l-.6028 1.7092h1.2181zm1.9702 3.3313h-.7955l-.3543-1.0131h-1.6532l-.3542 1.0131h-.7707l1.5227-4.1516h.8825zm.052-2.0758c0-.6588.1719-1.1809.5158-1.5662.3481-.3895.8121-.5842 1.3922-.5842s1.042.1947 1.3859.5842c.3439.3853.5159.9074.5159 1.5662s-.172 1.1829-.5159 1.5724c-.3439.3853-.8058.5779-1.3859.5779s-1.0441-.1926-1.3922-.5779c-.3439-.3895-.5158-.9136-.5158-1.5724zm2.9894 0c0-.4641-.0974-.8287-.2921-1.0939-.1906-.2651-.4537-.3977-.7893-.3977-.3398 0-.6049.1326-.7955.3977-.1906.2652-.2859.6298-.2859 1.0939 0 .464.0953.8286.2859 1.0938s.4557.3978.7955.3978c.3356 0 .5987-.1326.7893-.3978.1947-.2652.2921-.6298.2921-1.0938z" fill="#181340"/><rect fill="#f7f7ff" height="8.87853" rx="4.43926" width="8.87853" x="26.4229" y="99.5742"/><path d="m32.996 103.299c-.0207.115-.0508.233-.09.352-.1004.304-.1808.613-.236.929-.0856.489-.3726.879-.7644 1.177-.3752.286-.8241.348-1.2675.26-.125-.024-.2463-.063-.3622-.114-.125-.055-.2241-.156-.275-.283-.0354-.088-.1274-.414-.1518-.498-.0071-.024.0159-.046.04-.039.0049.002.0099.003.0148.005.5793.158 1.4717.143 2.1715-.464.1732-.15.3262-.311.4572-.477.1049-.134.1433-.307.1035-.472-.06-.249-.162-.497-.3078-.733-.2072-.334-.4771-.601-.7768-.789-.1834-.116-.418-.111-.5979.01-.2752.185-.5408.434-.7711.739-.3975.526-.6084 1.108-.6208 1.606h-.0005c-.0013.024-.0194.436.1336.943.0076.025-.0224.044-.0421.027-.2398-.211-.4426-.432-.6001-.621-.4245-.509-.5324-1.215-.2701-1.824.1639-.381.4479-.724.8372-.965.3441-.213.7434-.28 1.1391-.218.2929.045.5919.04.8824-.018.0949-.019.1879-.031.2781-.036h.0009c.0691-.004.1367-.004.2022.001h.0003c.2987.02.5546.128.7296.33.2508.29.2874.717.1437 1.172z" fill="#4f3fd7"/><g fill="#fff"><path d="m52.0064 92.0952c0 .291-.0813.5376-.2441.7398-.1628.2023-.3798.328-.6511.3774v.0148c.3354.0444.5968.1652.7843.3625.1874.1973.2811.4563.2811.7769 0 .434-.148.7719-.4439 1.0136-.291.2368-.7078.3552-1.2504.3552h-2.0199v-4.9424h1.9755c.4982 0 .8829.1134 1.1542.3403.2762.2269.4143.5475.4143.9619zm-1.7461-.5771h-.8878v1.4279h.8804c.2664 0 .4686-.0592.6067-.1776.1431-.1183.2146-.2934.2146-.5253 0-.2367-.0691-.4168-.2072-.5401s-.3403-.1849-.6067-.1849zm.0888 2.0716h-.9766v1.428h.9766c.2861 0 .5031-.0592.6511-.1776.1529-.1233.2294-.3009.2294-.5327s-.0765-.4094-.2294-.5327c-.148-.1233-.365-.185-.6511-.185zm4.1812 1.539c.2022 0 .365-.0469.4883-.1406.1233-.0987.2096-.2442.259-.4366l.7546.2442c-.0887.3305-.2663.5845-.5327.7621-.2663.1776-.5919.2663-.9766.2663-.5475 0-.9766-.1701-1.2874-.5105-.3107-.3403-.4661-.8114-.4661-1.4131 0-.6067.1578-1.0877.4735-1.4428s.7448-.5327 1.2874-.5327c.4735 0 .8484.148 1.1246.4439.2762.291.4143.6807.4143 1.169 0 .0888-.0074.1801-.0222.2738-.0148.0888-.032.1627-.0518.2219h-2.3528c.0099.3453.0913.6141.2442.8065.1578.1924.3724.2886.6437.2886zm-.0148-2.5452c-.2417 0-.439.0838-.5919.2515-.148.1628-.2368.3946-.2664.6955h1.539c.0049-.0197.0074-.0419.0074-.0666 0-.0296 0-.069 0-.1184 0-.2268-.0641-.4094-.1924-.5475-.1233-.143-.2885-.2145-.4957-.2145zm2.3997-.5697h.7473l.111.7176c.0937-.2564.2466-.4537.4587-.5919.2121-.143.4637-.2145.7547-.2145.3551 0 .6363.1085.8435.3255.2121.2121.3181.5056.3181.8805v2.6044h-.9174v-2.3529c0-.2219-.0518-.3921-.1554-.5105s-.254-.1775-.4513-.1775c-.2516 0-.4489.0838-.5919.2515-.1382.1628-.2072.3971-.2072.7029v2.0865h-.9101zm7.0171 1.6277v2.0939h-.9397v-4.9424h.9397v2.042h2.2344v-2.042h.9323v4.9424h-.9323v-2.0939zm5.4743 1.5463c.2219 0 .3995-.0715.5327-.2145.1381-.1431.2071-.3428.2071-.5993v-.259c-.0789-.0098-.1455-.0148-.1997-.0148-.0493-.0049-.0839-.0074-.1036-.0074-.3305 0-.5796.0518-.7473.1554-.1677.0986-.2515.2466-.2515.4439 0 .1529.0493.2738.1479.3626.1036.0887.2417.1331.4144.1331zm.2071-3.2628c.4637 0 .8139.1011 1.0507.3033.2367.2023.3551.5007.3551.8953v1.7091c0 .0987.0197.1726.0592.222.0444.0444.111.0666.1998.0666.0394 0 .0789-.005.1183-.0148.0395-.0148.0716-.0346.0962-.0592l.037.6215c-.0641.0444-.1455.0789-.2441.1035-.0938.0247-.1899.037-.2886.037-.1529 0-.2886-.0271-.4069-.0813-.1184-.0592-.2121-.1431-.2812-.2516-.0246-.0444-.0468-.0888-.0666-.1332-.0148-.0444-.0296-.0912-.0444-.1406-.069.1875-.2022.3355-.3995.444-.1924.1085-.4168.1627-.6733.1627-.3551 0-.6387-.0937-.8508-.2811-.2121-.1924-.3182-.4513-.3182-.7769 0-.3749.1529-.6659.4587-.873.3108-.2072.7522-.3108 1.3244-.3108.0592 0 .1258.0025.1998.0074.0789.0049.148.0099.2071.0148v-.4143c0-.1825-.0493-.3231-.1479-.4218-.0987-.0986-.2417-.1479-.4292-.1479-.1874 0-.3304.0518-.4291.1553-.0986.0987-.1504.2417-.1554.4292l-.8582-.1332c.0345-.3502.1849-.6264.4513-.8287.2664-.2022.6116-.3033 1.0358-.3033zm2.6049 3.8104v-3.7216h.7694l.1036.9026c.074-.3009.2121-.5401.4143-.7177.2072-.1775.4489-.2663.7251-.2663.0395 0 .0789.0024.1184.0074.0444 0 .0863.0049.1258.0148l-.0518.9322c-.0444-.0148-.1036-.0271-.1776-.037-.069-.0098-.1356-.0148-.1997-.0148-.2763 0-.4982.0987-.6659.296s-.2516.4661-.2516.8064v1.798zm2.9479 0v-3.7216h.7695l.1036.9026c.074-.3009.2121-.5401.4143-.7177.2072-.1775.4489-.2663.7251-.2663.0394 0 .0789.0024.1184.0074.0443 0 .0863.0049.1257.0148l-.0518.9322c-.0443-.0148-.1035-.0271-.1775-.037-.0691-.0098-.1357-.0148-.1998-.0148-.2762 0-.4982.0987-.6659.296s-.2515.4661-.2515.8064v1.798zm3.3993-5.3568c.1628 0 .2984.0518.4069.1554.1135.1036.1702.2343.1702.3921 0 .1579-.0567.2886-.1702.3922-.1085.1036-.2441.1554-.4069.1554s-.2984-.0518-.407-.1554c-.1085-.1036-.1627-.2343-.1627-.3922 0-.1578.0542-.2885.1627-.3921.1086-.1036.2442-.1554.407-.1554zm-.4513 5.3568v-3.7216h.91v3.7216zm3.2146.0887c-.4143 0-.7596-.0887-1.0358-.2663-.2762-.1825-.4464-.4341-.5105-.7547l.7916-.1924c.0247.1727.1061.3133.2442.4218.143.1085.3157.1627.5179.1627.2072 0 .3675-.0394.4809-.1183.1135-.0839.1702-.1998.1702-.3478 0-.1233-.0518-.2219-.1554-.2959-.0986-.079-.3181-.1554-.6585-.2294-.2515-.0543-.439-.1036-.5623-.148-.1184-.0444-.2195-.0937-.3033-.1479-.1283-.0888-.2245-.1998-.2886-.333s-.0962-.2885-.0962-.4661c0-.3552.1332-.6412.3996-.8583.2663-.217.6141-.3255 1.0432-.3255.4242 0 .7596.0912 1.0062.2737.2467.1825.3922.444.4366.7843l-.7917.0962c-.0148-.1677-.0789-.2984-.1924-.3921-.1134-.0938-.2639-.1406-.4513-.1406s-.3329.0419-.4365.1258c-.1036.0838-.1554.2022-.1554.3551 0 .1233.0493.222.148.296.0986.0739.3181.143.6585.2071.2565.0543.4439.1036.5623.148.1233.0444.2293.0962.3181.1554.1283.0888.2244.1997.2886.3329.0641.1332.0962.2935.0962.4809 0 .365-.1382.6536-.4144.8657-.2762.2072-.6461.3107-1.1098.3107zm3.8803-3.8991c.5425 0 .9717.1726 1.2873.5179.3207.3453.481.8213.481 1.428s-.1579 1.0851-.4736 1.4353c-.3156.3453-.7472.5179-1.2947.5179-.5426 0-.9742-.1726-1.2948-.5179-.3157-.3502-.4735-.8286-.4735-1.4353 0-.6018.1578-1.0753.4735-1.4206.3206-.3502.7522-.5253 1.2948-.5253zm0 3.2184c.2811 0 .4932-.106.6363-.3181.1479-.217.2219-.5352.2219-.9544 0-.4144-.074-.7276-.2219-.9397-.1431-.217-.3552-.3255-.6363-.3255-.2812 0-.4933.106-.6363.3181-.1431.2121-.2146.5278-.2146.9471 0 .4192.0715.7374.2146.9544.143.2121.3551.3181.6363.3181zm2.6232-3.1296h.7472l.111.7176c.0937-.2564.2467-.4537.4588-.5919.212-.143.4636-.2145.7546-.2145.3552 0 .6363.1085.8435.3255.2121.2121.3181.5056.3181.8805v2.6044h-.9174v-2.3529c0-.2219-.0518-.3921-.1554-.5105s-.254-.1775-.4513-.1775c-.2516 0-.4489.0838-.5919.2515-.1381.1628-.2072.3971-.2072.7029v2.0865h-.91z"/><path d="m53.8263 106.407c0 .124.0345.217.1036.281.074.064.18.097.3181.097.2614 0 .4859-.156.6733-.467.1924-.31.2886-.705.2886-1.183 0-.622-.2072-1.12-.6215-1.495-.4144-.38-.957-.57-1.6278-.57-.7448 0-1.3712.262-1.8793.785-.508.518-.762 1.166-.762 1.946 0 .739.2392 1.339.7176 1.797.4834.459 1.1025.688 1.8571.688.4144 0 .7744-.054 1.0803-.162.3058-.104.5968-.274.873-.511l.2368.363c-.2762.251-.6018.441-.9767.569-.3748.134-.7793.2-1.2134.2-.9026 0-1.645-.274-2.227-.821-.5771-.543-.8657-1.253-.8657-2.131 0-.429.079-.838.2368-1.228s.3823-.733.6733-1.029c.2959-.295.6363-.522 1.021-.68.3897-.163.7991-.244 1.2282-.244.804 0 1.465.234 1.9829.703.5179.463.7769 1.067.7769 1.812 0 .602-.1554 1.1-.4662 1.495-.3107.389-.6856.584-1.1246.584-.217 0-.3995-.059-.5475-.177-.143-.124-.2145-.281-.2145-.474-.0938.212-.2245.375-.3922.488-.1628.114-.3527.171-.5697.171-.3157 0-.5746-.111-.7769-.333-.1973-.227-.2959-.528-.2959-.903 0-.528.1455-.977.4365-1.347.296-.369.6536-.554 1.0728-.554.2023 0 .3749.054.518.162.1479.104.2441.242.2885.415l.1998-.496h.3773l-.3847 2.072c-.005.039-.0099.074-.0148.103zm-1.2948.348c.217 0 .3995-.074.5475-.222.148-.153.2491-.37.3034-.651.0345-.163.0616-.318.0813-.466.0247-.148.037-.244.037-.289 0-.172-.0567-.315-.1701-.429-.1135-.118-.2615-.177-.444-.177-.2811 0-.5179.14-.7102.421-.1875.276-.2812.617-.2812 1.021 0 .252.0543.447.1628.585.1134.138.2713.207.4735.207zm7.2354-2.878c0 .296-.0863.547-.2589.754-.1677.203-.3897.329-.6659.378v.015c.3452.039.6091.157.7916.355.1875.192.2812.451.2812.777 0 .439-.1431.777-.4291 1.013-.2861.237-.698.355-1.2356.355h-1.7683v-4.942h1.7091c.508 0 .8977.111 1.169.333s.4069.543.4069.962zm-1.6203-.77h-1.0506v1.695h1.0506c.3157 0 .5574-.072.7251-.215s.2515-.353.2515-.629-.0838-.486-.2515-.629c-.1628-.148-.4045-.222-.7251-.222zm.0814 2.205h-1.132v1.702h1.132c.3452 0 .6091-.072.7916-.215.1825-.148.2738-.36.2738-.636s-.0913-.486-.2738-.629c-.1825-.148-.4464-.222-.7916-.222zm3.7174 1.82c.2319 0 .4218-.056.5698-.17.1479-.113.249-.281.3033-.503l.5253.148c-.0789.326-.2392.575-.4809.747-.2417.173-.5475.259-.9175.259-.5179 0-.9223-.168-1.2133-.503-.2911-.335-.4366-.809-.4366-1.42 0-.597.148-1.071.444-1.421.3008-.355.7028-.533 1.2059-.533.439 0 .7868.143 1.0433.429.2614.282.3921.656.3921 1.125 0 .094-.0074.185-.0222.274s-.032.163-.0518.222h-2.4268c.0148.429.1135.762.296.999.1874.231.4439.347.7694.347zm-.0147-2.93c-.2911 0-.5278.099-.7103.296-.1776.198-.2861.479-.3256.844h1.8793c.0049-.025.0074-.05.0074-.074 0-.03 0-.069 0-.119 0-.281-.0789-.508-.2367-.68-.153-.178-.3577-.267-.6141-.267zm2.1051-.377h.4514l.0739.718c.1036-.257.2639-.454.481-.592.217-.143.471-.215.762-.215.3453 0 .6215.109.8287.326.2072.212.3108.5.3108.865v2.597h-.6067v-2.471c0-.251-.0642-.444-.1924-.577-.1233-.138-.3009-.207-.5327-.207-.3058 0-.5451.096-.7177.289-.1677.192-.2516.466-.2516.821v2.145h-.6067zm4.4648 1.472v2.227h-.6214v-4.942h.6214v2.175h2.5896v-2.175h.6215v4.942h-.6215v-2.227zm5.1651 1.843c.2763 0 .4982-.089.6659-.267.1677-.177.2516-.421.2516-.732v-.311c-.0641-.005-.1258-.007-.185-.007-.0592-.005-.1134-.008-.1628-.008-.4241 0-.7398.062-.947.185-.2072.119-.3107.299-.3107.54 0 .188.0616.336.1849.444.1233.104.291.156.5031.156zm.222-3.404c.4094 0 .7226.099.9396.296.2171.193.3256.474.3256.844v1.923c0 .109.0222.19.0666.244.0444.055.1134.082.2071.082.0395 0 .0814-.008.1258-.022.0444-.015.0789-.035.1036-.06l.037.452c-.0444.029-.106.054-.185.074-.074.02-.1479.029-.2219.029-.1381 0-.259-.027-.3626-.081-.0986-.059-.1751-.143-.2293-.252-.0198-.039-.0395-.081-.0592-.125-.0148-.05-.0271-.104-.037-.163-.0691.192-.2022.345-.3995.459-.1973.113-.4218.17-.6733.17-.3453 0-.624-.094-.8361-.281-.2072-.193-.3107-.447-.3107-.762 0-.385.1578-.681.4735-.888.3206-.207.7818-.311 1.3835-.311.0296 0 .0666.002.111.007.0494 0 .1283.003.2368.008v-.437c0-.227-.0641-.402-.1924-.525-.1233-.123-.3033-.185-.5401-.185-.2269 0-.402.057-.5253.17-.1233.114-.1899.279-.1998.496l-.5919-.104c.0395-.325.1801-.582.4218-.769.2466-.193.5573-.289.9322-.289zm2.268 3.788v-3.699h.4809l.0814.947c.069-.311.2121-.56.4291-.747.217-.193.4661-.289.7473-.289.0345 0 .069.003.1036.008.0394.005.0764.01.1109.014l-.037.637c-.0296-.005-.0715-.01-.1257-.015-.0543-.005-.111-.007-.1702-.007-.3058 0-.5525.115-.7399.347-.1825.232-.2737.543-.2737.933v1.871zm3.4996.089c-.3946 0-.7251-.091-.9915-.274-.2614-.182-.4192-.431-.4735-.747l.5549-.155c.0296.207.1283.377.296.51.1726.133.3773.2.6141.2.2565 0 .4538-.049.5919-.148.143-.103.2145-.249.2145-.436 0-.158-.0567-.284-.1701-.378-.1085-.093-.3502-.182-.7251-.266-.2466-.054-.4291-.104-.5475-.148-.1135-.044-.2121-.094-.296-.148-.1233-.089-.217-.197-.2811-.326-.0592-.128-.0888-.278-.0888-.451 0-.335.1184-.604.3551-.806.2417-.203.5549-.304.9397-.304.4044 0 .7177.089.9396.267.2269.172.3601.426.3996.762l-.5697.081c-.0198-.207-.0962-.365-.2294-.473-.1283-.114-.3083-.171-.5401-.171-.2269 0-.4045.055-.5327.163-.1283.104-.1924.249-.1924.437 0 .153.0543.276.1628.37.1085.088.3477.172.7177.251.2515.054.4365.104.5549.148.1183.04.2195.089.3033.148.1233.089.2146.2.2738.333.0641.128.0962.284.0962.466 0 .336-.1258.602-.3774.799-.2515.198-.5845.296-.9988.296z"/><path d="m157.052 99.4527c0 .4296-.165.7743-.496 1.0343-.33.255-.755.382-1.275.382-.496 0-.911-.113-1.246-.34-.331-.231-.541-.5475-.631-.9489l.787-.2974c.042.2691.162.4839.361.6445.203.1608.448.2408.736.2408.265 0 .475-.059.631-.1771.16-.118.24-.2809.24-.4887 0-.1605-.063-.2904-.191-.3895-.123-.1039-.401-.2101-.836-.3187-.306-.0803-.533-.1488-.679-.2054-.147-.0614-.272-.1299-.376-.2054-.16-.1133-.281-.2526-.361-.4179-.076-.1653-.113-.3565-.113-.5737 0-.4202.16-.7625.481-1.027.321-.2644.727-.3966 1.218-.3966.492 0 .883.1063 1.176.3187.293.2078.472.5123.538.9137l-.807.2054c-.033-.2267-.13-.4061-.29-.5383-.161-.1369-.364-.2054-.609-.2054-.246 0-.444.0614-.595.1842-.151.118-.227.2762-.227.4745 0 .1605.061.2927.184.3966.128.0992.406.2031.836.3117.312.0755.541.144.687.2053.151.0614.278.1299.382.2054.161.1181.279.2621.354.4321.081.1652.121.3588.121.5808zm2.069.7503c.193 0 .349-.044.467-.134.118-.0946.201-.2339.248-.418l.723.2337c-.085.3163-.255.5593-.51.7293s-.567.255-.935.255c-.524 0-.935-.163-1.233-.489-.297-.325-.446-.7763-.446-1.3523 0-.5808.151-1.0411.454-1.3811.302-.34.712-.51 1.232-.51.453 0 .812.1417 1.076.425.265.2786.397.6516.397 1.1191 0 .0849-.007.1723-.021.262-.014.085-.031.1558-.05.2125h-2.252c.009.3305.087.5878.234.772.151.1838.356.2758.616.2758zm-.014-2.436c-.232 0-.421.0803-.567.2408-.142.1558-.227.3777-.255.6658h1.473c.005-.0189.007-.0402.007-.0638 0-.0283 0-.0661 0-.1133 0-.2172-.061-.3919-.184-.5241-.118-.1369-.276-.2054-.474-.2054zm2.084-.5454h.716l.106.687c.09-.2455.236-.4343.439-.5666.203-.1369.444-.2054.723-.2054.34 0 .609.1039.807.3117.203.203.305.484.305.8428v2.4929h-.879v-2.2521c0-.2125-.049-.3754-.148-.4887-.1-.1133-.244-.17-.432-.17-.241 0-.43.0803-.567.2408-.132.1559-.198.3801-.198.6729v1.9971h-.872zm5.377 2.9604c.236 0 .427-.087.574-.2619.146-.1747.219-.4131.219-.7153v-.5383c0-.2644-.075-.4745-.227-.6304-.146-.1605-.33-.2408-.552-.2408-.269 0-.477.1086-.623.3258-.147.2125-.22.5194-.22.9208 0 .3635.071.6445.213.8428.146.1983.351.2973.616.2973zm1.664.602h-.736l-.092-.666c-.076.241-.213.428-.411.56-.194.127-.428.191-.701.191-.43 0-.779-.163-1.049-.489-.264-.325-.396-.7621-.396-1.3098 0-.5997.134-1.0718.403-1.4165.27-.3447.636-.5171 1.098-.5171.241 0 .451.0496.631.1488.184.0991.311.2337.382.4037v-2.0185h.871zm6.049-3.4065h-.014l-1.126 2.3301h-.574l-1.126-2.3301h-.014l.007.8994v2.5071h-.864v-4.731h1.006l1.289 2.6489h.014l1.289-2.6489h.97v4.731h-.864v-2.5071zm3.186-.2409c.519 0 .93.1653 1.232.4958.307.3305.46.7862.46 1.367 0 .5807-.151 1.0386-.453 1.3736-.302.331-.715.496-1.239.496-.52 0-.933-.165-1.24-.496-.302-.335-.453-.7929-.453-1.3736 0-.5761.151-1.0294.453-1.3599.307-.3352.72-.5029 1.24-.5029zm0 3.0814c.269 0 .472-.102.609-.305.141-.2077.212-.5123.212-.9136 0-.3967-.071-.6965-.212-.8995-.137-.2078-.34-.3117-.609-.3117-.27 0-.473.1016-.609.3046-.137.203-.206.5052-.206.9066 0 .4013.069.7059.206.9136.136.203.339.305.609.305zm2.298-2.9964h.716l.106.687c.09-.2455.236-.4343.439-.5666.203-.1369.444-.2054.722-.2054.34 0 .609.1039.808.3117.203.203.304.484.304.8428v2.4929h-.878v-2.2521c0-.2125-.049-.3754-.149-.4887-.099-.1133-.243-.17-.432-.17-.24 0-.429.0803-.566.2408-.133.1559-.199.3801-.199.6729v1.9971h-.871zm5.341 2.9814c.194 0 .35-.044.468-.134.118-.0946.2-.2339.248-.418l.722.2337c-.085.3163-.255.5593-.51.7293s-.567.255-.935.255c-.524 0-.935-.163-1.232-.489-.298-.325-.446-.7763-.446-1.3523 0-.5808.151-1.0411.453-1.3811s.713-.51 1.232-.51c.454 0 .812.1417 1.077.425.264.2786.396.6516.396 1.1191 0 .0849-.007.1723-.021.262-.014.085-.031.1558-.049.2125h-2.253c.01.3305.088.5878.234.772.151.1838.357.2758.616.2758zm-.014-2.436c-.231 0-.42.0803-.567.2408-.141.1558-.226.3777-.255.6658h1.474c.004-.0189.007-.0402.007-.0638 0-.0283 0-.0661 0-.1133 0-.2172-.062-.3919-.184-.5241-.118-.1369-.277-.2054-.475-.2054zm3.389 2.1602h.015l.864-2.7056h.85l-1.311 3.7044c-.174.481-.373.826-.595 1.034-.217.208-.495.312-.835.312-.114 0-.227-.017-.34-.05-.114-.028-.213-.069-.298-.12l.149-.666c.08.056.151.094.212.113.062.024.13.036.206.036.151 0 .269-.048.354-.142.09-.095.182-.272.276-.531l-1.303-3.6904h.921z"/><path d="m199.755 96.467-1.48 4.981c-.02.066-.081.111-.15.111l-.417-.003c-.055-.001-.106-.03-.134-.078l-.864-1.5124c-.095-.1654-.106-.3699-.016-.5378.002-.0038.004-.0076.006-.0114.076-.1386.102-.2988.061-.4513-.052-.1916.003-.3961.143-.5364l.421-.4205c.06-.0605.158-.0605.219 0l.219.2193c.061.0605.061.1586 0 .2191l-.685.6853c-.049.0494-.06.1258-.025.1864l.574 1.0037c.067.117.242.098.282-.031l1.017-3.2503c.038-.1193-.075-.2315-.194-.1942l-3.253 1.0158c-.129.0404-.148.2153-.03.2825l.578.3307c.075.0425.101.1373.058.2116l-.154.2687c-.043.0742-.137.0999-.211.0575l-1.428-.8163c-.048-.0274-.078-.0782-.078-.1334l-.003-.4172c-.001-.069.045-.13.111-.1497l4.984-1.4805c.054-.0162.113-.0012.153.0392l.258.2581c.04.0402.054.0991.038.1535z"/></g><rect fill="#6b6b6b" fill-opacity=".33" height="33.5663" rx="6.47393" width="197.917" x="12.5492" y="121.856"/><rect height="33.5663" rx="6.47393" stroke="url(#d)" stroke-width=".369939" width="197.917" x="12.5492" y="121.856"/><rect fill="#fff" height="17.7571" rx="8.87853" width="17.7571" x="18.2832" y="127.59"/><path d="m25.1648 135.638h-.0124l-.6028 1.709h1.2181zm1.9702 3.331h-.7955l-.3543-1.013h-1.6532l-.3542 1.013h-.7707l1.5227-4.152h.8825zm.052-2.076c0-.659.1719-1.181.5158-1.566.3481-.39.8121-.584 1.3922-.584s1.042.194 1.3859.584c.3439.385.5159.907.5159 1.566s-.172 1.183-.5159 1.572c-.3439.386-.8058.578-1.3859.578s-1.0441-.192-1.3922-.578c-.3439-.389-.5158-.913-.5158-1.572zm2.9894 0c0-.464-.0974-.829-.2921-1.094-.1906-.265-.4537-.398-.7893-.398-.3398 0-.6049.133-.7955.398s-.2859.63-.2859 1.094.0953.829.2859 1.094.4557.398.7955.398c.3356 0 .5987-.133.7893-.398.1947-.265.2921-.63.2921-1.094z" fill="#181340"/><rect fill="#f7f7ff" height="8.87853" rx="4.43926" width="8.87853" x="26.4229" y="139.428"/><path d="m32.996 143.155c-.0207.115-.0508.233-.09.352-.1004.303-.1808.613-.236.929-.0856.489-.3726.879-.7644 1.177-.3752.286-.8241.348-1.2675.26-.125-.024-.2463-.063-.3622-.114-.125-.055-.2241-.156-.275-.283-.0354-.088-.1274-.414-.1518-.498-.0071-.024.0159-.046.04-.039.0049.002.0099.003.0148.005.5793.158 1.4717.143 2.1715-.464.1732-.15.3262-.311.4572-.477.1049-.134.1433-.307.1035-.472-.06-.249-.162-.497-.3078-.733-.2072-.334-.4771-.601-.7768-.79-.1834-.115-.418-.11-.5979.011-.2752.185-.5408.434-.7711.739-.3975.526-.6084 1.108-.6208 1.606h-.0005c-.0013.024-.0194.436.1336.943.0076.025-.0224.044-.0421.027-.2398-.211-.4426-.432-.6001-.621-.4245-.509-.5324-1.215-.2701-1.824.1639-.381.4479-.724.8372-.965.3441-.213.7434-.28 1.1391-.218.2929.045.5919.04.8824-.018.0949-.019.1879-.031.2781-.036h.0009c.0691-.004.1367-.004.2022.001h.0003c.2987.02.5546.128.7296.33.2508.29.2874.716.1437 1.172z" fill="#4f3fd7"/><path d="m50.3639 131.625h-.0148l-.7177 2.034h1.4502zm2.3454 3.965h-.947l-.4217-1.206h-1.9681l-.4217 1.206h-.9175l1.8127-4.942h1.0506zm2.2265-.629c.2466 0 .4464-.091.5993-.273.1529-.183.2293-.432.2293-.748v-.562c0-.276-.0789-.496-.2367-.658-.1529-.168-.3453-.252-.5771-.252-.2812 0-.4982.113-.6511.34-.1529.222-.2294.543-.2294.962 0 .38.074.674.222.881.1529.207.3675.31.6437.31zm1.7387.629h-.7695l-.0962-.695c-.0789.251-.2219.446-.4291.584-.2022.134-.4464.2-.7325.2-.4488 0-.8138-.17-1.095-.51-.2762-.341-.4143-.797-.4143-1.369 0-.627.1406-1.12.4217-1.48.2812-.36.6634-.54 1.1468-.54.2516 0 .4711.052.6585.155.1924.104.3256.244.3995.422v-2.109h.9101zm2.6101-.606c.2022 0 .365-.047.4883-.141.1233-.099.2096-.244.259-.436l.7546.244c-.0888.33-.2663.584-.5327.762-.2663.177-.5919.266-.9766.266-.5475 0-.9767-.17-1.2874-.51-.3108-.341-.4661-.812-.4661-1.414 0-.606.1578-1.087.4735-1.442s.7448-.533 1.2874-.533c.4735 0 .8484.148 1.1246.444.2762.291.4143.681.4143 1.169 0 .089-.0074.18-.0222.274-.0148.088-.032.162-.0518.222h-2.3528c.0099.345.0913.614.2442.806.1578.192.3724.289.6437.289zm-.0148-2.546c-.2417 0-.439.084-.5919.252-.148.163-.2368.395-.2664.695h1.539c.0049-.019.0074-.041.0074-.066 0-.03 0-.069 0-.118 0-.227-.0642-.41-.1924-.548-.1233-.143-.2885-.215-.4957-.215zm3.96-.658c.5426 0 .9717.173 1.2874.518.3206.345.4809.821.4809 1.428s-.1578 1.085-.4735 1.435c-.3157.345-.7473.518-1.2948.518-.5426 0-.9742-.173-1.2948-.518-.3157-.35-.4735-.828-.4735-1.435 0-.602.1578-1.075.4735-1.421.3206-.35.7522-.525 1.2948-.525zm0 3.218c.2812 0 .4933-.106.6363-.318.148-.217.222-.535.222-.954 0-.414-.074-.728-.222-.94-.143-.217-.3551-.325-.6363-.325-.2811 0-.4932.106-.6363.318-.143.212-.2146.528-.2146.947s.0716.737.2146.954c.1431.212.3552.318.6363.318zm3.7772-.059c.0543 0 .1061-.007.1554-.022s.0987-.039.148-.074l.0666.659c-.0839.049-.1874.088-.3108.118-.1183.03-.2417.044-.3699.044-.291 0-.5154-.076-.6733-.229-.1529-.153-.2293-.372-.2293-.659v-4.528h.91v4.358c0 .114.0247.198.074.252s.1258.081.2293.081zm2.2695.104c.222 0 .3995-.072.5327-.215.1381-.143.2072-.343.2072-.599v-.259c-.0789-.01-.1455-.015-.1998-.015-.0493-.005-.0838-.007-.1036-.007-.3304 0-.5795.052-.7472.155-.1677.099-.2516.247-.2516.444 0 .153.0493.274.148.363.1036.088.2417.133.4143.133zm.2072-3.263c.4636 0 .8138.101 1.0506.303.2368.203.3551.501.3551.896v1.709c0 .098.0198.172.0592.222.0444.044.111.066.1998.066.0395 0 .0789-.005.1184-.015.0394-.014.0715-.034.0962-.059l.037.622c-.0642.044-.1456.079-.2442.103-.0937.025-.1899.037-.2886.037-.1529 0-.2885-.027-.4069-.081-.1184-.059-.2121-.143-.2811-.252-.0247-.044-.0469-.088-.0666-.133-.0148-.044-.0296-.091-.0444-.14-.0691.187-.2023.335-.3996.444-.1923.108-.4168.162-.6732.162-.3552 0-.6388-.093-.8509-.281-.2121-.192-.3182-.451-.3182-.777 0-.375.153-.666.4588-.873.3107-.207.7522-.311 1.3244-.311.0591 0 .1257.003.1997.008.0789.005.148.01.2072.015v-.415c0-.182-.0493-.323-.148-.421-.0986-.099-.2417-.148-.4291-.148-.1875 0-.3305.051-.4291.155-.0987.099-.1505.242-.1554.429l-.8583-.133c.0345-.35.185-.626.4513-.829.2664-.202.6117-.303 1.0359-.303zm4.109 1.339c0-.784.2047-1.406.6141-1.864.4143-.464.9668-.696 1.6573-.696.6906 0 1.2406.232 1.65.696.4094.458.6141 1.08.6141 1.864s-.2047 1.408-.6141 1.872c-.4094.459-.9594.688-1.65.688-.6905 0-1.243-.229-1.6573-.688-.4094-.464-.6141-1.088-.6141-1.872zm3.5588 0c0-.552-.1159-.986-.3477-1.302-.2269-.316-.5401-.474-.9397-.474-.4044 0-.7201.158-.947.474s-.3404.75-.3404 1.302c0 .553.1135.987.3404 1.302.2269.316.5426.474.947.474.3996 0 .7128-.158.9397-.474.2318-.315.3477-.749.3477-1.302zm2.9696 1.82c.0542 0 .106-.007.1554-.022.0493-.015.0986-.039.1479-.074l.0666.659c-.0838.049-.1874.088-.3107.118-.1184.03-.2417.044-.37.044-.291 0-.5154-.076-.6733-.229-.1529-.153-.2293-.372-.2293-.659v-4.528h.91v4.358c0 .114.0247.198.074.252s.1258.081.2294.081zm2.2694.104c.222 0 .3996-.072.5328-.215.1381-.143.2071-.343.2071-.599v-.259c-.0789-.01-.1455-.015-.1997-.015-.0494-.005-.0839-.007-.1036-.007-.3305 0-.5796.052-.7473.155-.1677.099-.2516.247-.2516.444 0 .153.0494.274.148.363.1036.088.2417.133.4143.133zm.2072-3.263c.4637 0 .8139.101 1.0506.303.2368.203.3552.501.3552.896v1.709c0 .098.0197.172.0592.222.0444.044.1109.066.1997.066.0395 0 .079-.005.1184-.015.0395-.014.0715-.034.0962-.059l.037.622c-.0641.044-.1455.079-.2442.103-.0937.025-.1899.037-.2885.037-.1529 0-.2886-.027-.407-.081-.1183-.059-.2121-.143-.2811-.252-.0247-.044-.0469-.088-.0666-.133-.0148-.044-.0296-.091-.0444-.14-.069.187-.2022.335-.3995.444-.1924.108-.4168.162-.6733.162-.3552 0-.6388-.093-.8509-.281-.2121-.192-.3181-.451-.3181-.777 0-.375.1529-.666.4587-.873.3108-.207.7522-.311 1.3244-.311.0592 0 .1258.003.1998.008.0789.005.1479.01.2071.015v-.415c0-.182-.0493-.323-.148-.421-.0986-.099-.2416-.148-.4291-.148-.1874 0-.3305.051-.4291.155-.0987.099-.1505.242-.1554.429l-.8582-.133c.0345-.35.1849-.626.4513-.829.2663-.202.6116-.303 1.0358-.303zm4.1218 0c.5425 0 .9717.173 1.2873.518.3207.345.481.821.481 1.428s-.1579 1.085-.4736 1.435c-.3156.345-.7472.518-1.2947.518-.5426 0-.9742-.173-1.2948-.518-.3157-.35-.4735-.828-.4735-1.435 0-.602.1578-1.075.4735-1.421.3206-.35.7522-.525 1.2948-.525zm0 3.218c.2811 0 .4932-.106.6363-.318.1479-.217.2219-.535.2219-.954 0-.414-.074-.728-.2219-.94-.1431-.217-.3552-.325-.6363-.325-.2812 0-.4933.106-.6363.318-.1431.212-.2146.528-.2146.947s.0715.737.2146.954c.143.212.3551.318.6363.318zm3.9789-.303h.0148l.9026-2.826h.8879l-1.3688 3.869c-.1825.503-.3897.863-.6215 1.081-.2269.217-.5179.325-.873.325-.1184 0-.2368-.017-.3552-.052-.1184-.029-.2219-.071-.3107-.125l.1553-.696c.0839.059.1579.099.222.118.0641.025.1356.037.2146.037.1578 0 .2811-.049.3699-.148.0937-.098.1899-.283.2886-.554l-1.3614-3.855h.9618zm3.911.289c.2022 0 .365-.047.4883-.141.1233-.099.2096-.244.259-.436l.7546.244c-.0887.33-.2663.584-.5327.762-.2663.177-.5919.266-.9766.266-.5475 0-.9767-.17-1.2874-.51-.3107-.341-.4661-.812-.4661-1.414 0-.606.1578-1.087.4735-1.442s.7448-.533 1.2874-.533c.4735 0 .8484.148 1.1246.444.2762.291.4143.681.4143 1.169 0 .089-.0074.18-.0222.274-.0148.088-.032.162-.0518.222h-2.3528c.0099.345.0913.614.2442.806.1578.192.3724.289.6437.289zm-.0148-2.546c-.2417 0-.439.084-.5919.252-.148.163-.2368.395-.2664.695h1.539c.0049-.019.0074-.041.0074-.066 0-.03 0-.069 0-.118 0-.227-.0641-.41-.1924-.548-.1233-.143-.2885-.215-.4957-.215z" fill="#fff"/><path d="m53.8263 146.262c0 .123.0345.217.1036.281.074.064.18.097.3181.097.2614 0 .4859-.156.6733-.467.1924-.31.2886-.705.2886-1.183 0-.622-.2072-1.12-.6215-1.495-.4144-.38-.957-.57-1.6278-.57-.7448 0-1.3712.262-1.8793.785-.508.518-.762 1.166-.762 1.945 0 .74.2392 1.34.7176 1.798.4834.459 1.1025.688 1.8571.688.4144 0 .7744-.054 1.0803-.162.3058-.104.5968-.274.873-.511l.2368.363c-.2762.251-.6018.441-.9767.569-.3748.134-.7793.2-1.2134.2-.9026 0-1.645-.274-2.227-.821-.5771-.543-.8657-1.253-.8657-2.131 0-.429.079-.838.2368-1.228s.3823-.733.6733-1.029c.2959-.295.6363-.522 1.021-.68.3897-.163.7991-.244 1.2282-.244.804 0 1.465.234 1.9829.702.5179.464.7769 1.068.7769 1.813 0 .602-.1554 1.1-.4662 1.495-.3107.389-.6856.584-1.1246.584-.217 0-.3995-.059-.5475-.177-.143-.124-.2145-.281-.2145-.474-.0938.212-.2245.375-.3922.488-.1628.114-.3527.171-.5697.171-.3157 0-.5746-.111-.7769-.333-.1973-.227-.2959-.528-.2959-.903 0-.528.1455-.977.4365-1.347.296-.369.6536-.554 1.0728-.554.2023 0 .3749.054.518.162.1479.104.2441.242.2885.415l.1998-.496h.3773l-.3847 2.072c-.005.039-.0099.074-.0148.103zm-1.2948.348c.217 0 .3995-.074.5475-.222.148-.153.2491-.37.3034-.651.0345-.163.0616-.318.0813-.466.0247-.148.037-.244.037-.289 0-.172-.0567-.315-.1701-.429-.1135-.118-.2615-.178-.444-.178-.2811 0-.5179.141-.7102.422-.1875.276-.2812.617-.2812 1.021 0 .252.0543.447.1628.585.1134.138.2713.207.4735.207zm5.5076-3.5h-.0148l-.8509 2.361h1.7239zm2.1752 4.269h-.6289l-.5031-1.383h-2.1013l-.4957 1.383h-.6141l1.8275-4.942h.6881zm1.8975-.399c.291 0 .5278-.104.7103-.311.1825-.212.2737-.501.2737-.866v-.688c0-.315-.0937-.567-.2811-.754-.1874-.193-.4193-.289-.6955-.289-.3305 0-.5894.131-.7769.392-.1825.262-.2737.634-.2737 1.117 0 .444.0912.79.2737 1.036.1825.242.439.363.7695.363zm1.5907.399h-.4809l-.0666-.702c-.0838.256-.2293.453-.4365.591-.2072.134-.4587.2-.7547.2-.4488 0-.8138-.168-1.095-.503-.2762-.34-.4143-.799-.4143-1.376 0-.622.1381-1.11.4143-1.465.2812-.355.6659-.533 1.1542-.533.2565 0 .4809.054.6733.163s.3256.252.3995.429v-2.146h.6067zm2.3166-.392c.2318 0 .4217-.056.5697-.17.148-.113.2491-.281.3034-.503l.5253.148c-.0789.325-.2392.575-.4809.747-.2417.173-.5476.259-.9175.259-.5179 0-.9224-.168-1.2134-.503s-.4365-.809-.4365-1.421c0-.596.148-1.07.4439-1.42.3009-.355.7029-.533 1.206-.533.439 0 .7867.143 1.0432.429.2615.282.3922.656.3922 1.125 0 .094-.0074.185-.0222.274s-.0321.162-.0518.222h-2.4268c.0148.429.1134.762.2959.999.1875.231.444.347.7695.347zm-.0148-2.93c-.291 0-.5278.099-.7103.296-.1775.198-.2861.479-.3255.844h1.8793c.0049-.025.0074-.05.0074-.074 0-.03 0-.069 0-.119 0-.281-.0789-.508-.2368-.68-.1529-.178-.3576-.267-.6141-.267zm3.5323-.466c.508 0 .91.173 1.206.518.3009.345.4513.819.4513 1.421 0 .601-.1504 1.075-.4513 1.42-.296.346-.698.518-1.206.518-.5081 0-.9125-.172-1.2134-.518-.296-.345-.4439-.819-.4439-1.42 0-.602.1479-1.076.4439-1.421.3009-.345.7053-.518 1.2134-.518zm0 3.404c.3403 0 .5993-.124.7769-.37.1775-.252.2663-.617.2663-1.095 0-.479-.0888-.841-.2663-1.088-.1776-.251-.4366-.377-.7769-.377-.3404 0-.5993.126-.7769.377-.1776.247-.2663.609-.2663 1.088 0 .478.0887.843.2663 1.095.1776.246.4365.37.7769.37zm3.2019-.037c.0592 0 .1159-.008.1701-.023.0592-.019.1135-.046.1628-.081l.0666.466c-.0691.04-.1554.072-.259.096-.1035.025-.2047.037-.3033.037-.2565 0-.4513-.064-.5845-.192-.1283-.133-.1924-.326-.1924-.577v-4.647h.6067v4.58c0 .119.0272.205.0814.259.0543.055.1381.082.2516.082zm1.894.037c.2762 0 .4982-.089.6659-.267.1677-.177.2515-.421.2515-.732v-.311c-.0641-.005-.1257-.007-.1849-.007-.0592-.005-.1135-.008-.1628-.008-.4242 0-.7399.062-.947.185-.2072.119-.3108.299-.3108.54 0 .188.0617.336.185.444.1233.104.291.156.5031.156zm.222-3.404c.4094 0 .7226.099.9396.296.217.193.3255.474.3255.844v1.923c0 .109.0222.19.0666.244.0444.055.1135.082.2072.082.0395 0 .0814-.008.1258-.022.0444-.015.0789-.035.1036-.06l.037.452c-.0444.029-.1061.054-.185.074-.074.02-.148.029-.222.029-.1381 0-.2589-.027-.3625-.081-.0987-.059-.1751-.143-.2294-.252-.0197-.039-.0394-.081-.0592-.125-.0148-.05-.0271-.104-.037-.163-.069.192-.2022.345-.3995.459-.1973.113-.4217.17-.6733.17-.3453 0-.6239-.094-.836-.281-.2072-.193-.3108-.447-.3108-.762 0-.385.1578-.681.4735-.888.3206-.207.7818-.311 1.3836-.311.0296 0 .0666.002.111.007.0493 0 .1282.003.2367.008v-.437c0-.227-.0641-.402-.1923-.525-.1233-.123-.3034-.185-.5401-.185-.2269 0-.402.057-.5253.17-.1234.114-.19.279-.1998.496l-.5919-.104c.0394-.325.18-.582.4217-.769.2466-.193.5574-.289.9323-.289zm3.6589 0c.508 0 .91.173 1.206.518.3009.345.4513.819.4513 1.421 0 .601-.1504 1.075-.4513 1.42-.296.346-.698.518-1.206.518-.5081 0-.9125-.172-1.2134-.518-.296-.345-.4439-.819-.4439-1.42 0-.602.1479-1.076.4439-1.421.3009-.345.7053-.518 1.2134-.518zm0 3.404c.3403 0 .5993-.124.7769-.37.1775-.252.2663-.617.2663-1.095 0-.479-.0888-.841-.2663-1.088-.1776-.251-.4366-.377-.7769-.377-.3404 0-.5993.126-.7769.377-.1776.247-.2663.609-.2663 1.088 0 .478.0887.843.2663 1.095.1776.246.4365.37.7769.37zm3.4987-.193h.0148l1.0432-3.122h.6067l-1.4058 3.899c-.1775.488-.365.836-.5623 1.043-.1973.208-.4464.311-.7472.311-.0888 0-.1776-.012-.2664-.037s-.1726-.059-.2516-.103l.0888-.504c.0987.06.1751.097.2294.111.0592.02.1208.03.185.03.1825 0 .3255-.059.4291-.178.1036-.118.2195-.357.3477-.717l-1.3761-3.855h.6436zm3.4562.185c.2319 0 .4218-.056.5697-.17.148-.113.2491-.281.3034-.503l.5253.148c-.0789.325-.2392.575-.4809.747-.2417.173-.5475.259-.9175.259-.5179 0-.9223-.168-1.2134-.503-.291-.335-.4365-.809-.4365-1.421 0-.596.148-1.07.4439-1.42.3009-.355.7029-.533 1.206-.533.439 0 .7868.143 1.0433.429.2614.282.3921.656.3921 1.125 0 .094-.0074.185-.0222.274s-.0321.162-.0518.222h-2.4268c.0148.429.1135.762.296.999.1874.231.4439.347.7694.347zm-.0148-2.93c-.291 0-.5277.099-.7102.296-.1776.198-.2861.479-.3256.844h1.8793c.0049-.025.0074-.05.0074-.074 0-.03 0-.069 0-.119 0-.281-.0789-.508-.2368-.68-.1529-.178-.3576-.267-.6141-.267z" fill="#fff"/><path d="m157.052 139.308c0 .429-.165.774-.496 1.034-.33.255-.755.382-1.275.382-.496 0-.911-.113-1.246-.34-.331-.231-.541-.548-.631-.949l.787-.297c.042.269.162.484.361.644.203.161.448.241.736.241.265 0 .475-.059.631-.177.16-.118.24-.281.24-.489 0-.16-.063-.29-.191-.389-.123-.104-.401-.21-.836-.319-.306-.08-.533-.149-.679-.205-.147-.062-.272-.13-.376-.206-.16-.113-.281-.252-.361-.418-.076-.165-.113-.356-.113-.573 0-.421.16-.763.481-1.027.321-.265.727-.397 1.218-.397.492 0 .883.106 1.176.319.293.207.472.512.538.913l-.807.206c-.033-.227-.13-.406-.29-.539-.161-.136-.364-.205-.609-.205-.246 0-.444.061-.595.184-.151.118-.227.276-.227.475 0 .16.061.293.184.396.128.1.406.203.836.312.312.076.541.144.687.205.151.062.278.13.382.206.161.118.279.262.354.432.081.165.121.359.121.581zm2.069.75c.193 0 .349-.044.467-.134.118-.095.201-.234.248-.418l.723.234c-.085.316-.255.559-.51.729s-.567.255-.935.255c-.524 0-.935-.163-1.233-.489-.297-.325-.446-.776-.446-1.352 0-.581.151-1.041.454-1.381.302-.34.712-.51 1.232-.51.453 0 .812.141 1.076.425.265.278.397.651.397 1.119 0 .085-.007.172-.021.262-.014.085-.031.156-.05.212h-2.252c.009.331.087.588.234.772.151.184.356.276.616.276zm-.014-2.436c-.232 0-.421.08-.567.241-.142.156-.227.378-.255.666h1.473c.005-.019.007-.041.007-.064 0-.029 0-.066 0-.114 0-.217-.061-.391-.184-.524-.118-.137-.276-.205-.474-.205zm2.084-.545h.716l.106.687c.09-.246.236-.435.439-.567.203-.137.444-.205.723-.205.34 0 .609.104.807.311.203.203.305.484.305.843v2.493h-.879v-2.252c0-.213-.049-.375-.148-.489-.1-.113-.244-.17-.432-.17-.241 0-.43.08-.567.241-.132.156-.198.38-.198.673v1.997h-.872zm5.377 2.96c.236 0 .427-.087.574-.262.146-.175.219-.413.219-.715v-.539c0-.264-.075-.474-.227-.63-.146-.16-.33-.241-.552-.241-.269 0-.477.109-.623.326-.147.213-.22.519-.22.921 0 .363.071.644.213.843.146.198.351.297.616.297zm1.664.602h-.736l-.092-.666c-.076.241-.213.428-.411.56-.194.127-.428.191-.701.191-.43 0-.779-.163-1.049-.489-.264-.325-.396-.762-.396-1.31 0-.599.134-1.072.403-1.416.27-.345.636-.517 1.098-.517.241 0 .451.049.631.148.184.1.311.234.382.404v-2.018h.871zm6.049-3.407h-.014l-1.126 2.331h-.574l-1.126-2.331h-.014l.007.9v2.507h-.864v-4.731h1.006l1.289 2.649h.014l1.289-2.649h.97v4.731h-.864v-2.507zm3.186-.24c.519 0 .93.165 1.232.495.307.331.46.787.46 1.367 0 .581-.151 1.039-.453 1.374-.302.331-.715.496-1.239.496-.52 0-.933-.165-1.24-.496-.302-.335-.453-.793-.453-1.374 0-.576.151-1.029.453-1.36.307-.335.72-.502 1.24-.502zm0 3.081c.269 0 .472-.102.609-.305.141-.208.212-.512.212-.914 0-.396-.071-.696-.212-.899-.137-.208-.34-.312-.609-.312-.27 0-.473.102-.609.305-.137.203-.206.505-.206.906 0 .402.069.706.206.914.136.203.339.305.609.305zm2.298-2.996h.716l.106.687c.09-.246.236-.435.439-.567.203-.137.444-.205.722-.205.34 0 .609.104.808.311.203.203.304.484.304.843v2.493h-.878v-2.252c0-.213-.049-.375-.149-.489-.099-.113-.243-.17-.432-.17-.24 0-.429.08-.566.241-.133.156-.199.38-.199.673v1.997h-.871zm5.341 2.981c.194 0 .35-.044.468-.134.118-.095.2-.234.248-.418l.722.234c-.085.316-.255.559-.51.729s-.567.255-.935.255c-.524 0-.935-.163-1.232-.489-.298-.325-.446-.776-.446-1.352 0-.581.151-1.041.453-1.381s.713-.51 1.232-.51c.454 0 .812.141 1.077.425.264.278.396.651.396 1.119 0 .085-.007.172-.021.262-.014.085-.031.156-.049.212h-2.253c.01.331.088.588.234.772.151.184.357.276.616.276zm-.014-2.436c-.231 0-.42.08-.567.241-.141.156-.226.378-.255.666h1.474c.004-.019.007-.041.007-.064 0-.029 0-.066 0-.114 0-.217-.062-.391-.184-.524-.118-.137-.277-.205-.475-.205zm3.389 2.16h.015l.864-2.705h.85l-1.311 3.704c-.174.481-.373.826-.595 1.034-.217.208-.495.312-.835.312-.114 0-.227-.017-.34-.05-.114-.028-.213-.069-.298-.12l.149-.666c.08.056.151.094.212.113.062.024.13.035.206.035.151 0 .269-.047.354-.141.09-.095.182-.272.276-.531l-1.303-3.69h.921z" fill="#fff"/><path d="m199.755 136.322-1.48 4.981c-.02.066-.081.111-.15.111l-.417-.003c-.055-.001-.106-.03-.134-.078l-.864-1.512c-.095-.166-.106-.37-.016-.538.002-.004.004-.008.006-.012.076-.138.102-.298.061-.451-.052-.191.003-.396.143-.536l.421-.421c.06-.06.158-.06.219 0l.219.22c.061.06.061.158 0 .219l-.685.685c-.049.049-.06.126-.025.186l.574 1.004c.067.117.242.098.282-.031l1.017-3.25c.038-.12-.075-.232-.194-.195l-3.253 1.016c-.129.041-.148.216-.03.283l.578.33c.075.043.101.138.058.212l-.154.269c-.043.074-.137.1-.211.057l-1.428-.816c-.048-.027-.078-.078-.078-.133l-.003-.418c-.001-.069.045-.13.111-.149l4.984-1.481c.054-.016.113-.001.153.039l.258.258c.04.041.054.1.038.154z" fill="#fff"/></svg>